<?xml version="1.0" encoding="utf-8" standalone="no"?>
<!DOCTYPE svg PUBLIC "-//W3C//DTD SVG 1.1//EN"
  "http://www.w3.org/Graphics/SVG/1.1/DTD/svg11.dtd">
<!-- Created with matplotlib (https://matplotlib.org/) -->
<svg height="288pt" version="1.1" viewBox="0 0 504 288" width="504pt" xmlns="http://www.w3.org/2000/svg" xmlns:xlink="http://www.w3.org/1999/xlink">
 <defs>
  <style type="text/css">
*{stroke-linecap:butt;stroke-linejoin:round;}
  </style>
 </defs>
 <g id="figure_1">
  <g id="patch_1">
   <path d="M 0 288 
L 504 288 
L 504 0 
L 0 0 
z
" style="fill:#ffffff;"/>
  </g>
  <g id="axes_1">
   <g id="patch_2">
    <path d="M 63 252 
L 453.6 252 
L 453.6 34.56 
L 63 34.56 
z
" style="fill:#ffffff;"/>
   </g>
   <g id="matplotlib.axis_1">
    <g id="xtick_1">
     <g id="line2d_1">
      <defs>
       <path d="M 0 0 
L 0 3.5 
" id="mcbc4d5ad77" style="stroke:#000000;stroke-width:0.8;"/>
      </defs>
      <g>
       <use style="stroke:#000000;stroke-width:0.8;" x="80.754545" xlink:href="#mcbc4d5ad77" y="252"/>
      </g>
     </g>
     <g id="text_1">
      <!-- −10 -->
      <defs>
       <path d="M 10.59375 35.5 
L 73.1875 35.5 
L 73.1875 27.203125 
L 10.59375 27.203125 
z
" id="DejaVuSans-8722"/>
       <path d="M 12.40625 8.296875 
L 28.515625 8.296875 
L 28.515625 63.921875 
L 10.984375 60.40625 
L 10.984375 69.390625 
L 28.421875 72.90625 
L 38.28125 72.90625 
L 38.28125 8.296875 
L 54.390625 8.296875 
L 54.390625 0 
L 12.40625 0 
z
" id="DejaVuSans-49"/>
       <path d="M 31.78125 66.40625 
Q 24.171875 66.40625 20.328125 58.90625 
Q 16.5 51.421875 16.5 36.375 
Q 16.5 21.390625 20.328125 13.890625 
Q 24.171875 6.390625 31.78125 6.390625 
Q 39.453125 6.390625 43.28125 13.890625 
Q 47.125 21.390625 47.125 36.375 
Q 47.125 51.421875 43.28125 58.90625 
Q 39.453125 66.40625 31.78125 66.40625 
z
M 31.78125 74.21875 
Q 44.046875 74.21875 50.515625 64.515625 
Q 56.984375 54.828125 56.984375 36.375 
Q 56.984375 17.96875 50.515625 8.265625 
Q 44.046875 -1.421875 31.78125 -1.421875 
Q 19.53125 -1.421875 13.0625 8.265625 
Q 6.59375 17.96875 6.59375 36.375 
Q 6.59375 54.828125 13.0625 64.515625 
Q 19.53125 74.21875 31.78125 74.21875 
z
" id="DejaVuSans-48"/>
      </defs>
      <g transform="translate(70.202202 266.598437)scale(0.1 -0.1)">
       <use xlink:href="#DejaVuSans-8722"/>
       <use x="83.789062" xlink:href="#DejaVuSans-49"/>
       <use x="147.412109" xlink:href="#DejaVuSans-48"/>
      </g>
     </g>
    </g>
    <g id="xtick_2">
     <g id="line2d_2">
      <g>
       <use style="stroke:#000000;stroke-width:0.8;" x="125.140909" xlink:href="#mcbc4d5ad77" y="252"/>
      </g>
     </g>
     <g id="text_2">
      <!-- −5 -->
      <defs>
       <path d="M 10.796875 72.90625 
L 49.515625 72.90625 
L 49.515625 64.59375 
L 19.828125 64.59375 
L 19.828125 46.734375 
Q 21.96875 47.46875 24.109375 47.828125 
Q 26.265625 48.1875 28.421875 48.1875 
Q 40.625 48.1875 47.75 41.5 
Q 54.890625 34.8125 54.890625 23.390625 
Q 54.890625 11.625 47.5625 5.09375 
Q 40.234375 -1.421875 26.90625 -1.421875 
Q 22.3125 -1.421875 17.546875 -0.640625 
Q 12.796875 0.140625 7.71875 1.703125 
L 7.71875 11.625 
Q 12.109375 9.234375 16.796875 8.0625 
Q 21.484375 6.890625 26.703125 6.890625 
Q 35.15625 6.890625 40.078125 11.328125 
Q 45.015625 15.765625 45.015625 23.390625 
Q 45.015625 31 40.078125 35.4375 
Q 35.15625 39.890625 26.703125 39.890625 
Q 22.75 39.890625 18.8125 39.015625 
Q 14.890625 38.140625 10.796875 36.28125 
z
" id="DejaVuSans-53"/>
      </defs>
      <g transform="translate(117.769815 266.598437)scale(0.1 -0.1)">
       <use xlink:href="#DejaVuSans-8722"/>
       <use x="83.789062" xlink:href="#DejaVuSans-53"/>
      </g>
     </g>
    </g>
    <g id="xtick_3">
     <g id="line2d_3">
      <g>
       <use style="stroke:#000000;stroke-width:0.8;" x="169.527273" xlink:href="#mcbc4d5ad77" y="252"/>
      </g>
     </g>
     <g id="text_3">
      <!-- 0 -->
      <g transform="translate(166.346023 266.598437)scale(0.1 -0.1)">
       <use xlink:href="#DejaVuSans-48"/>
      </g>
     </g>
    </g>
    <g id="xtick_4">
     <g id="line2d_4">
      <g>
       <use style="stroke:#000000;stroke-width:0.8;" x="213.913636" xlink:href="#mcbc4d5ad77" y="252"/>
      </g>
     </g>
     <g id="text_4">
      <!-- 5 -->
      <g transform="translate(210.732386 266.598437)scale(0.1 -0.1)">
       <use xlink:href="#DejaVuSans-53"/>
      </g>
     </g>
    </g>
    <g id="xtick_5">
     <g id="line2d_5">
      <g>
       <use style="stroke:#000000;stroke-width:0.8;" x="258.3" xlink:href="#mcbc4d5ad77" y="252"/>
      </g>
     </g>
     <g id="text_5">
      <!-- 10 -->
      <g transform="translate(251.9375 266.598437)scale(0.1 -0.1)">
       <use xlink:href="#DejaVuSans-49"/>
       <use x="63.623047" xlink:href="#DejaVuSans-48"/>
      </g>
     </g>
    </g>
    <g id="xtick_6">
     <g id="line2d_6">
      <g>
       <use style="stroke:#000000;stroke-width:0.8;" x="302.686364" xlink:href="#mcbc4d5ad77" y="252"/>
      </g>
     </g>
     <g id="text_6">
      <!-- 15 -->
      <g transform="translate(296.323864 266.598437)scale(0.1 -0.1)">
       <use xlink:href="#DejaVuSans-49"/>
       <use x="63.623047" xlink:href="#DejaVuSans-53"/>
      </g>
     </g>
    </g>
    <g id="xtick_7">
     <g id="line2d_7">
      <g>
       <use style="stroke:#000000;stroke-width:0.8;" x="347.072727" xlink:href="#mcbc4d5ad77" y="252"/>
      </g>
     </g>
     <g id="text_7">
      <!-- 20 -->
      <defs>
       <path d="M 19.1875 8.296875 
L 53.609375 8.296875 
L 53.609375 0 
L 7.328125 0 
L 7.328125 8.296875 
Q 12.9375 14.109375 22.625 23.890625 
Q 32.328125 33.6875 34.8125 36.53125 
Q 39.546875 41.84375 41.421875 45.53125 
Q 43.3125 49.21875 43.3125 52.78125 
Q 43.3125 58.59375 39.234375 62.25 
Q 35.15625 65.921875 28.609375 65.921875 
Q 23.96875 65.921875 18.8125 64.3125 
Q 13.671875 62.703125 7.8125 59.421875 
L 7.8125 69.390625 
Q 13.765625 71.78125 18.9375 73 
Q 24.125 74.21875 28.421875 74.21875 
Q 39.75 74.21875 46.484375 68.546875 
Q 53.21875 62.890625 53.21875 53.421875 
Q 53.21875 48.921875 51.53125 44.890625 
Q 49.859375 40.875 45.40625 35.40625 
Q 44.1875 33.984375 37.640625 27.21875 
Q 31.109375 20.453125 19.1875 8.296875 
z
" id="DejaVuSans-50"/>
      </defs>
      <g transform="translate(340.710227 266.598437)scale(0.1 -0.1)">
       <use xlink:href="#DejaVuSans-50"/>
       <use x="63.623047" xlink:href="#DejaVuSans-48"/>
      </g>
     </g>
    </g>
    <g id="xtick_8">
     <g id="line2d_8">
      <g>
       <use style="stroke:#000000;stroke-width:0.8;" x="391.459091" xlink:href="#mcbc4d5ad77" y="252"/>
      </g>
     </g>
     <g id="text_8">
      <!-- 25 -->
      <g transform="translate(385.096591 266.598437)scale(0.1 -0.1)">
       <use xlink:href="#DejaVuSans-50"/>
       <use x="63.623047" xlink:href="#DejaVuSans-53"/>
      </g>
     </g>
    </g>
    <g id="xtick_9">
     <g id="line2d_9">
      <g>
       <use style="stroke:#000000;stroke-width:0.8;" x="435.845455" xlink:href="#mcbc4d5ad77" y="252"/>
      </g>
     </g>
     <g id="text_9">
      <!-- 30 -->
      <defs>
       <path d="M 40.578125 39.3125 
Q 47.65625 37.796875 51.625 33 
Q 55.609375 28.21875 55.609375 21.1875 
Q 55.609375 10.40625 48.1875 4.484375 
Q 40.765625 -1.421875 27.09375 -1.421875 
Q 22.515625 -1.421875 17.65625 -0.515625 
Q 12.796875 0.390625 7.625 2.203125 
L 7.625 11.71875 
Q 11.71875 9.328125 16.59375 8.109375 
Q 21.484375 6.890625 26.8125 6.890625 
Q 36.078125 6.890625 40.9375 10.546875 
Q 45.796875 14.203125 45.796875 21.1875 
Q 45.796875 27.640625 41.28125 31.265625 
Q 36.765625 34.90625 28.71875 34.90625 
L 20.21875 34.90625 
L 20.21875 43.015625 
L 29.109375 43.015625 
Q 36.375 43.015625 40.234375 45.921875 
Q 44.09375 48.828125 44.09375 54.296875 
Q 44.09375 59.90625 40.109375 62.90625 
Q 36.140625 65.921875 28.71875 65.921875 
Q 24.65625 65.921875 20.015625 65.03125 
Q 15.375 64.15625 9.8125 62.3125 
L 9.8125 71.09375 
Q 15.4375 72.65625 20.34375 73.4375 
Q 25.25 74.21875 29.59375 74.21875 
Q 40.828125 74.21875 47.359375 69.109375 
Q 53.90625 64.015625 53.90625 55.328125 
Q 53.90625 49.265625 50.4375 45.09375 
Q 46.96875 40.921875 40.578125 39.3125 
z
" id="DejaVuSans-51"/>
      </defs>
      <g transform="translate(429.482955 266.598437)scale(0.1 -0.1)">
       <use xlink:href="#DejaVuSans-51"/>
       <use x="63.623047" xlink:href="#DejaVuSans-48"/>
      </g>
     </g>
    </g>
    <g id="text_10">
     <!-- Parámetros -->
     <defs>
      <path d="M 19.671875 64.796875 
L 19.671875 37.40625 
L 32.078125 37.40625 
Q 38.96875 37.40625 42.71875 40.96875 
Q 46.484375 44.53125 46.484375 51.125 
Q 46.484375 57.671875 42.71875 61.234375 
Q 38.96875 64.796875 32.078125 64.796875 
z
M 9.8125 72.90625 
L 32.078125 72.90625 
Q 44.34375 72.90625 50.609375 67.359375 
Q 56.890625 61.8125 56.890625 51.125 
Q 56.890625 40.328125 50.609375 34.8125 
Q 44.34375 29.296875 32.078125 29.296875 
L 19.671875 29.296875 
L 19.671875 0 
L 9.8125 0 
z
" id="DejaVuSans-80"/>
      <path d="M 34.28125 27.484375 
Q 23.390625 27.484375 19.1875 25 
Q 14.984375 22.515625 14.984375 16.5 
Q 14.984375 11.71875 18.140625 8.90625 
Q 21.296875 6.109375 26.703125 6.109375 
Q 34.1875 6.109375 38.703125 11.40625 
Q 43.21875 16.703125 43.21875 25.484375 
L 43.21875 27.484375 
z
M 52.203125 31.203125 
L 52.203125 0 
L 43.21875 0 
L 43.21875 8.296875 
Q 40.140625 3.328125 35.546875 0.953125 
Q 30.953125 -1.421875 24.3125 -1.421875 
Q 15.921875 -1.421875 10.953125 3.296875 
Q 6 8.015625 6 15.921875 
Q 6 25.140625 12.171875 29.828125 
Q 18.359375 34.515625 30.609375 34.515625 
L 43.21875 34.515625 
L 43.21875 35.40625 
Q 43.21875 41.609375 39.140625 45 
Q 35.0625 48.390625 27.6875 48.390625 
Q 23 48.390625 18.546875 47.265625 
Q 14.109375 46.140625 10.015625 43.890625 
L 10.015625 52.203125 
Q 14.9375 54.109375 19.578125 55.046875 
Q 24.21875 56 28.609375 56 
Q 40.484375 56 46.34375 49.84375 
Q 52.203125 43.703125 52.203125 31.203125 
z
" id="DejaVuSans-97"/>
      <path d="M 41.109375 46.296875 
Q 39.59375 47.171875 37.8125 47.578125 
Q 36.03125 48 33.890625 48 
Q 26.265625 48 22.1875 43.046875 
Q 18.109375 38.09375 18.109375 28.8125 
L 18.109375 0 
L 9.078125 0 
L 9.078125 54.6875 
L 18.109375 54.6875 
L 18.109375 46.1875 
Q 20.953125 51.171875 25.484375 53.578125 
Q 30.03125 56 36.53125 56 
Q 37.453125 56 38.578125 55.875 
Q 39.703125 55.765625 41.0625 55.515625 
z
" id="DejaVuSans-114"/>
      <path d="M 34.28125 27.484375 
Q 23.390625 27.484375 19.1875 25 
Q 14.984375 22.515625 14.984375 16.5 
Q 14.984375 11.71875 18.140625 8.90625 
Q 21.296875 6.109375 26.703125 6.109375 
Q 34.1875 6.109375 38.703125 11.40625 
Q 43.21875 16.703125 43.21875 25.484375 
L 43.21875 27.484375 
z
M 52.203125 31.203125 
L 52.203125 0 
L 43.21875 0 
L 43.21875 8.296875 
Q 40.140625 3.328125 35.546875 0.953125 
Q 30.953125 -1.421875 24.3125 -1.421875 
Q 15.921875 -1.421875 10.953125 3.296875 
Q 6 8.015625 6 15.921875 
Q 6 25.140625 12.171875 29.828125 
Q 18.359375 34.515625 30.609375 34.515625 
L 43.21875 34.515625 
L 43.21875 35.40625 
Q 43.21875 41.609375 39.140625 45 
Q 35.0625 48.390625 27.6875 48.390625 
Q 23 48.390625 18.546875 47.265625 
Q 14.109375 46.140625 10.015625 43.890625 
L 10.015625 52.203125 
Q 14.9375 54.109375 19.578125 55.046875 
Q 24.21875 56 28.609375 56 
Q 40.484375 56 46.34375 49.84375 
Q 52.203125 43.703125 52.203125 31.203125 
z
M 35.796875 79.984375 
L 45.515625 79.984375 
L 29.59375 61.625 
L 22.125 61.625 
z
" id="DejaVuSans-225"/>
      <path d="M 52 44.1875 
Q 55.375 50.25 60.0625 53.125 
Q 64.75 56 71.09375 56 
Q 79.640625 56 84.28125 50.015625 
Q 88.921875 44.046875 88.921875 33.015625 
L 88.921875 0 
L 79.890625 0 
L 79.890625 32.71875 
Q 79.890625 40.578125 77.09375 44.375 
Q 74.3125 48.1875 68.609375 48.1875 
Q 61.625 48.1875 57.5625 43.546875 
Q 53.515625 38.921875 53.515625 30.90625 
L 53.515625 0 
L 44.484375 0 
L 44.484375 32.71875 
Q 44.484375 40.625 41.703125 44.40625 
Q 38.921875 48.1875 33.109375 48.1875 
Q 26.21875 48.1875 22.15625 43.53125 
Q 18.109375 38.875 18.109375 30.90625 
L 18.109375 0 
L 9.078125 0 
L 9.078125 54.6875 
L 18.109375 54.6875 
L 18.109375 46.1875 
Q 21.1875 51.21875 25.484375 53.609375 
Q 29.78125 56 35.6875 56 
Q 41.65625 56 45.828125 52.96875 
Q 50 49.953125 52 44.1875 
z
" id="DejaVuSans-109"/>
      <path d="M 56.203125 29.59375 
L 56.203125 25.203125 
L 14.890625 25.203125 
Q 15.484375 15.921875 20.484375 11.0625 
Q 25.484375 6.203125 34.421875 6.203125 
Q 39.59375 6.203125 44.453125 7.46875 
Q 49.3125 8.734375 54.109375 11.28125 
L 54.109375 2.78125 
Q 49.265625 0.734375 44.1875 -0.34375 
Q 39.109375 -1.421875 33.890625 -1.421875 
Q 20.796875 -1.421875 13.15625 6.1875 
Q 5.515625 13.8125 5.515625 26.8125 
Q 5.515625 40.234375 12.765625 48.109375 
Q 20.015625 56 32.328125 56 
Q 43.359375 56 49.78125 48.890625 
Q 56.203125 41.796875 56.203125 29.59375 
z
M 47.21875 32.234375 
Q 47.125 39.59375 43.09375 43.984375 
Q 39.0625 48.390625 32.421875 48.390625 
Q 24.90625 48.390625 20.390625 44.140625 
Q 15.875 39.890625 15.1875 32.171875 
z
" id="DejaVuSans-101"/>
      <path d="M 18.3125 70.21875 
L 18.3125 54.6875 
L 36.8125 54.6875 
L 36.8125 47.703125 
L 18.3125 47.703125 
L 18.3125 18.015625 
Q 18.3125 11.328125 20.140625 9.421875 
Q 21.96875 7.515625 27.59375 7.515625 
L 36.8125 7.515625 
L 36.8125 0 
L 27.59375 0 
Q 17.1875 0 13.234375 3.875 
Q 9.28125 7.765625 9.28125 18.015625 
L 9.28125 47.703125 
L 2.6875 47.703125 
L 2.6875 54.6875 
L 9.28125 54.6875 
L 9.28125 70.21875 
z
" id="DejaVuSans-116"/>
      <path d="M 30.609375 48.390625 
Q 23.390625 48.390625 19.1875 42.75 
Q 14.984375 37.109375 14.984375 27.296875 
Q 14.984375 17.484375 19.15625 11.84375 
Q 23.34375 6.203125 30.609375 6.203125 
Q 37.796875 6.203125 41.984375 11.859375 
Q 46.1875 17.53125 46.1875 27.296875 
Q 46.1875 37.015625 41.984375 42.703125 
Q 37.796875 48.390625 30.609375 48.390625 
z
M 30.609375 56 
Q 42.328125 56 49.015625 48.375 
Q 55.71875 40.765625 55.71875 27.296875 
Q 55.71875 13.875 49.015625 6.21875 
Q 42.328125 -1.421875 30.609375 -1.421875 
Q 18.84375 -1.421875 12.171875 6.21875 
Q 5.515625 13.875 5.515625 27.296875 
Q 5.515625 40.765625 12.171875 48.375 
Q 18.84375 56 30.609375 56 
z
" id="DejaVuSans-111"/>
      <path d="M 44.28125 53.078125 
L 44.28125 44.578125 
Q 40.484375 46.53125 36.375 47.5 
Q 32.28125 48.484375 27.875 48.484375 
Q 21.1875 48.484375 17.84375 46.4375 
Q 14.5 44.390625 14.5 40.28125 
Q 14.5 37.15625 16.890625 35.375 
Q 19.28125 33.59375 26.515625 31.984375 
L 29.59375 31.296875 
Q 39.15625 29.25 43.1875 25.515625 
Q 47.21875 21.78125 47.21875 15.09375 
Q 47.21875 7.46875 41.1875 3.015625 
Q 35.15625 -1.421875 24.609375 -1.421875 
Q 20.21875 -1.421875 15.453125 -0.5625 
Q 10.6875 0.296875 5.421875 2 
L 5.421875 11.28125 
Q 10.40625 8.6875 15.234375 7.390625 
Q 20.0625 6.109375 24.8125 6.109375 
Q 31.15625 6.109375 34.5625 8.28125 
Q 37.984375 10.453125 37.984375 14.40625 
Q 37.984375 18.0625 35.515625 20.015625 
Q 33.0625 21.96875 24.703125 23.78125 
L 21.578125 24.515625 
Q 13.234375 26.265625 9.515625 29.90625 
Q 5.8125 33.546875 5.8125 39.890625 
Q 5.8125 47.609375 11.28125 51.796875 
Q 16.75 56 26.8125 56 
Q 31.78125 56 36.171875 55.265625 
Q 40.578125 54.546875 44.28125 53.078125 
z
" id="DejaVuSans-115"/>
     </defs>
     <g transform="translate(215.56875 284.075781)scale(0.15 -0.15)">
      <use xlink:href="#DejaVuSans-80"/>
      <use x="55.802734" xlink:href="#DejaVuSans-97"/>
      <use x="117.082031" xlink:href="#DejaVuSans-114"/>
      <use x="158.195312" xlink:href="#DejaVuSans-225"/>
      <use x="219.474609" xlink:href="#DejaVuSans-109"/>
      <use x="316.886719" xlink:href="#DejaVuSans-101"/>
      <use x="378.410156" xlink:href="#DejaVuSans-116"/>
      <use x="417.619141" xlink:href="#DejaVuSans-114"/>
      <use x="456.482422" xlink:href="#DejaVuSans-111"/>
      <use x="517.664062" xlink:href="#DejaVuSans-115"/>
     </g>
    </g>
   </g>
   <g id="matplotlib.axis_2">
    <g id="ytick_1">
     <g id="line2d_10">
      <defs>
       <path d="M 0 0 
L -3.5 0 
" id="m9cfa1661ae" style="stroke:#000000;stroke-width:0.8;"/>
      </defs>
      <g>
       <use style="stroke:#000000;stroke-width:0.8;" x="63" xlink:href="#m9cfa1661ae" y="242.182698"/>
      </g>
     </g>
     <g id="text_11">
      <!-- 0.000 -->
      <defs>
       <path d="M 10.6875 12.40625 
L 21 12.40625 
L 21 0 
L 10.6875 0 
z
" id="DejaVuSans-46"/>
      </defs>
      <g transform="translate(27.371875 245.981916)scale(0.1 -0.1)">
       <use xlink:href="#DejaVuSans-48"/>
       <use x="63.623047" xlink:href="#DejaVuSans-46"/>
       <use x="95.410156" xlink:href="#DejaVuSans-48"/>
       <use x="159.033203" xlink:href="#DejaVuSans-48"/>
       <use x="222.65625" xlink:href="#DejaVuSans-48"/>
      </g>
     </g>
    </g>
    <g id="ytick_2">
     <g id="line2d_11">
      <g>
       <use style="stroke:#000000;stroke-width:0.8;" x="63" xlink:href="#m9cfa1661ae" y="217.399782"/>
      </g>
     </g>
     <g id="text_12">
      <!-- 0.025 -->
      <g transform="translate(27.371875 221.199)scale(0.1 -0.1)">
       <use xlink:href="#DejaVuSans-48"/>
       <use x="63.623047" xlink:href="#DejaVuSans-46"/>
       <use x="95.410156" xlink:href="#DejaVuSans-48"/>
       <use x="159.033203" xlink:href="#DejaVuSans-50"/>
       <use x="222.65625" xlink:href="#DejaVuSans-53"/>
      </g>
     </g>
    </g>
    <g id="ytick_3">
     <g id="line2d_12">
      <g>
       <use style="stroke:#000000;stroke-width:0.8;" x="63" xlink:href="#m9cfa1661ae" y="192.616865"/>
      </g>
     </g>
     <g id="text_13">
      <!-- 0.050 -->
      <g transform="translate(27.371875 196.416084)scale(0.1 -0.1)">
       <use xlink:href="#DejaVuSans-48"/>
       <use x="63.623047" xlink:href="#DejaVuSans-46"/>
       <use x="95.410156" xlink:href="#DejaVuSans-48"/>
       <use x="159.033203" xlink:href="#DejaVuSans-53"/>
       <use x="222.65625" xlink:href="#DejaVuSans-48"/>
      </g>
     </g>
    </g>
    <g id="ytick_4">
     <g id="line2d_13">
      <g>
       <use style="stroke:#000000;stroke-width:0.8;" x="63" xlink:href="#m9cfa1661ae" y="167.833949"/>
      </g>
     </g>
     <g id="text_14">
      <!-- 0.075 -->
      <defs>
       <path d="M 8.203125 72.90625 
L 55.078125 72.90625 
L 55.078125 68.703125 
L 28.609375 0 
L 18.3125 0 
L 43.21875 64.59375 
L 8.203125 64.59375 
z
" id="DejaVuSans-55"/>
      </defs>
      <g transform="translate(27.371875 171.633168)scale(0.1 -0.1)">
       <use xlink:href="#DejaVuSans-48"/>
       <use x="63.623047" xlink:href="#DejaVuSans-46"/>
       <use x="95.410156" xlink:href="#DejaVuSans-48"/>
       <use x="159.033203" xlink:href="#DejaVuSans-55"/>
       <use x="222.65625" xlink:href="#DejaVuSans-53"/>
      </g>
     </g>
    </g>
    <g id="ytick_5">
     <g id="line2d_14">
      <g>
       <use style="stroke:#000000;stroke-width:0.8;" x="63" xlink:href="#m9cfa1661ae" y="143.051033"/>
      </g>
     </g>
     <g id="text_15">
      <!-- 0.100 -->
      <g transform="translate(27.371875 146.850252)scale(0.1 -0.1)">
       <use xlink:href="#DejaVuSans-48"/>
       <use x="63.623047" xlink:href="#DejaVuSans-46"/>
       <use x="95.410156" xlink:href="#DejaVuSans-49"/>
       <use x="159.033203" xlink:href="#DejaVuSans-48"/>
       <use x="222.65625" xlink:href="#DejaVuSans-48"/>
      </g>
     </g>
    </g>
    <g id="ytick_6">
     <g id="line2d_15">
      <g>
       <use style="stroke:#000000;stroke-width:0.8;" x="63" xlink:href="#m9cfa1661ae" y="118.268117"/>
      </g>
     </g>
     <g id="text_16">
      <!-- 0.125 -->
      <g transform="translate(27.371875 122.067336)scale(0.1 -0.1)">
       <use xlink:href="#DejaVuSans-48"/>
       <use x="63.623047" xlink:href="#DejaVuSans-46"/>
       <use x="95.410156" xlink:href="#DejaVuSans-49"/>
       <use x="159.033203" xlink:href="#DejaVuSans-50"/>
       <use x="222.65625" xlink:href="#DejaVuSans-53"/>
      </g>
     </g>
    </g>
    <g id="ytick_7">
     <g id="line2d_16">
      <g>
       <use style="stroke:#000000;stroke-width:0.8;" x="63" xlink:href="#m9cfa1661ae" y="93.485201"/>
      </g>
     </g>
     <g id="text_17">
      <!-- 0.150 -->
      <g transform="translate(27.371875 97.28442)scale(0.1 -0.1)">
       <use xlink:href="#DejaVuSans-48"/>
       <use x="63.623047" xlink:href="#DejaVuSans-46"/>
       <use x="95.410156" xlink:href="#DejaVuSans-49"/>
       <use x="159.033203" xlink:href="#DejaVuSans-53"/>
       <use x="222.65625" xlink:href="#DejaVuSans-48"/>
      </g>
     </g>
    </g>
    <g id="ytick_8">
     <g id="line2d_17">
      <g>
       <use style="stroke:#000000;stroke-width:0.8;" x="63" xlink:href="#m9cfa1661ae" y="68.702285"/>
      </g>
     </g>
     <g id="text_18">
      <!-- 0.175 -->
      <g transform="translate(27.371875 72.501504)scale(0.1 -0.1)">
       <use xlink:href="#DejaVuSans-48"/>
       <use x="63.623047" xlink:href="#DejaVuSans-46"/>
       <use x="95.410156" xlink:href="#DejaVuSans-49"/>
       <use x="159.033203" xlink:href="#DejaVuSans-55"/>
       <use x="222.65625" xlink:href="#DejaVuSans-53"/>
      </g>
     </g>
    </g>
    <g id="ytick_9">
     <g id="line2d_18">
      <g>
       <use style="stroke:#000000;stroke-width:0.8;" x="63" xlink:href="#m9cfa1661ae" y="43.919369"/>
      </g>
     </g>
     <g id="text_19">
      <!-- 0.200 -->
      <g transform="translate(27.371875 47.718588)scale(0.1 -0.1)">
       <use xlink:href="#DejaVuSans-48"/>
       <use x="63.623047" xlink:href="#DejaVuSans-46"/>
       <use x="95.410156" xlink:href="#DejaVuSans-50"/>
       <use x="159.033203" xlink:href="#DejaVuSans-48"/>
       <use x="222.65625" xlink:href="#DejaVuSans-48"/>
      </g>
     </g>
    </g>
    <g id="text_20">
     <!-- Densidad -->
     <defs>
      <path d="M 19.671875 64.796875 
L 19.671875 8.109375 
L 31.59375 8.109375 
Q 46.6875 8.109375 53.6875 14.9375 
Q 60.6875 21.78125 60.6875 36.53125 
Q 60.6875 51.171875 53.6875 57.984375 
Q 46.6875 64.796875 31.59375 64.796875 
z
M 9.8125 72.90625 
L 30.078125 72.90625 
Q 51.265625 72.90625 61.171875 64.09375 
Q 71.09375 55.28125 71.09375 36.53125 
Q 71.09375 17.671875 61.125 8.828125 
Q 51.171875 0 30.078125 0 
L 9.8125 0 
z
" id="DejaVuSans-68"/>
      <path d="M 54.890625 33.015625 
L 54.890625 0 
L 45.90625 0 
L 45.90625 32.71875 
Q 45.90625 40.484375 42.875 44.328125 
Q 39.84375 48.1875 33.796875 48.1875 
Q 26.515625 48.1875 22.3125 43.546875 
Q 18.109375 38.921875 18.109375 30.90625 
L 18.109375 0 
L 9.078125 0 
L 9.078125 54.6875 
L 18.109375 54.6875 
L 18.109375 46.1875 
Q 21.34375 51.125 25.703125 53.5625 
Q 30.078125 56 35.796875 56 
Q 45.21875 56 50.046875 50.171875 
Q 54.890625 44.34375 54.890625 33.015625 
z
" id="DejaVuSans-110"/>
      <path d="M 9.421875 54.6875 
L 18.40625 54.6875 
L 18.40625 0 
L 9.421875 0 
z
M 9.421875 75.984375 
L 18.40625 75.984375 
L 18.40625 64.59375 
L 9.421875 64.59375 
z
" id="DejaVuSans-105"/>
      <path d="M 45.40625 46.390625 
L 45.40625 75.984375 
L 54.390625 75.984375 
L 54.390625 0 
L 45.40625 0 
L 45.40625 8.203125 
Q 42.578125 3.328125 38.25 0.953125 
Q 33.9375 -1.421875 27.875 -1.421875 
Q 17.96875 -1.421875 11.734375 6.484375 
Q 5.515625 14.40625 5.515625 27.296875 
Q 5.515625 40.1875 11.734375 48.09375 
Q 17.96875 56 27.875 56 
Q 33.9375 56 38.25 53.625 
Q 42.578125 51.265625 45.40625 46.390625 
z
M 14.796875 27.296875 
Q 14.796875 17.390625 18.875 11.75 
Q 22.953125 6.109375 30.078125 6.109375 
Q 37.203125 6.109375 41.296875 11.75 
Q 45.40625 17.390625 45.40625 27.296875 
Q 45.40625 37.203125 41.296875 42.84375 
Q 37.203125 48.484375 30.078125 48.484375 
Q 22.953125 48.484375 18.875 42.84375 
Q 14.796875 37.203125 14.796875 27.296875 
z
" id="DejaVuSans-100"/>
     </defs>
     <g transform="translate(20.252344 178.532344)rotate(-90)scale(0.15 -0.15)">
      <use xlink:href="#DejaVuSans-68"/>
      <use x="77.001953" xlink:href="#DejaVuSans-101"/>
      <use x="138.525391" xlink:href="#DejaVuSans-110"/>
      <use x="201.904297" xlink:href="#DejaVuSans-115"/>
      <use x="254.003906" xlink:href="#DejaVuSans-105"/>
      <use x="281.787109" xlink:href="#DejaVuSans-100"/>
      <use x="345.263672" xlink:href="#DejaVuSans-97"/>
      <use x="406.542969" xlink:href="#DejaVuSans-100"/>
     </g>
    </g>
   </g>
   <g id="line2d_19">
    <path clip-path="url(#p19c3a5f552)" d="M 213.913636 233.49465 
L 214.9 232.215555 
L 215.886364 230.783383 
L 216.872727 229.1856 
L 217.859091 227.409531 
L 218.845455 225.442506 
L 219.831818 223.272032 
L 220.818182 220.885974 
L 221.804545 218.272765 
L 222.790909 215.421626 
L 223.777273 212.322805 
L 224.763636 208.967828 
L 225.75 205.349751 
L 226.736364 201.463431 
L 227.722727 197.305779 
L 228.709091 192.876026 
L 229.695455 188.175961 
L 230.681818 183.210167 
L 231.668182 177.986224 
L 232.654545 172.514885 
L 233.640909 166.810226 
L 234.627273 160.889739 
L 235.613636 154.774396 
L 236.6 148.488646 
L 237.586364 142.060368 
L 238.572727 135.520764 
L 239.559091 128.904182 
L 240.545455 122.247894 
L 241.531818 115.591797 
L 242.518182 108.978062 
L 243.504545 102.450731 
L 244.490909 96.055252 
L 245.477273 89.837982 
L 246.463636 83.845635 
L 247.45 78.124719 
L 248.436364 72.720937 
L 249.422727 67.678589 
L 250.409091 63.039969 
L 251.395455 58.844778 
L 252.381818 55.12956 
L 253.368182 51.927172 
L 254.354545 49.266298 
L 255.340909 47.171028 
L 256.327273 45.660488 
L 257.313636 44.748554 
L 258.3 44.443636 
L 259.286364 44.748554 
L 260.272727 45.660488 
L 261.259091 47.171028 
L 262.245455 49.266298 
L 263.231818 51.927172 
L 264.218182 55.12956 
L 265.204545 58.844778 
L 266.190909 63.039969 
L 267.177273 67.678589 
L 268.163636 72.720937 
L 269.15 78.124719 
L 270.136364 83.845635 
L 271.122727 89.837982 
L 272.109091 96.055252 
L 273.095455 102.450731 
L 274.081818 108.978062 
L 275.068182 115.591797 
L 276.054545 122.247894 
L 277.040909 128.904182 
L 278.027273 135.520764 
L 279.013636 142.060368 
L 280 148.488646 
L 280.986364 154.774396 
L 281.972727 160.889739 
L 282.959091 166.810226 
L 283.945455 172.514885 
L 284.931818 177.986224 
L 285.918182 183.210167 
L 286.904545 188.175961 
L 287.890909 192.876026 
L 288.877273 197.305779 
L 289.863636 201.463431 
L 290.85 205.349751 
L 291.836364 208.967828 
L 292.822727 212.322805 
L 293.809091 215.421626 
L 294.795455 218.272765 
L 295.781818 220.885974 
L 296.768182 223.272032 
L 297.754545 225.442506 
L 298.740909 227.409531 
L 299.727273 229.1856 
L 300.713636 230.783383 
L 301.7 232.215555 
L 302.686364 233.49465 
L 303.672727 234.632935 
L 304.659091 235.642302 
L 305.645455 236.534182 
L 306.631818 237.319475 
L 307.618182 238.008494 
L 308.604545 238.610934 
L 309.590909 239.135846 
L 310.577273 239.591626 
L 311.563636 239.986015 
" style="fill:none;stroke:#ff0000;stroke-linecap:square;stroke-width:1.5;"/>
   </g>
   <g id="line2d_20">
    <path clip-path="url(#p19c3a5f552)" d="M 227.229545 240.597057 
L 229.336777 240.305387 
L 231.444008 239.96788 
L 233.55124 239.578881 
L 235.658471 239.132321 
L 237.765702 238.621739 
L 239.872934 238.040306 
L 241.980165 237.380878 
L 244.087397 236.636043 
L 246.194628 235.798196 
L 248.30186 234.859624 
L 250.409091 233.812602 
L 252.516322 232.649514 
L 254.623554 231.362975 
L 256.730785 229.945983 
L 258.838017 228.392068 
L 260.945248 226.695461 
L 263.052479 224.851269 
L 265.159711 222.855658 
L 267.266942 220.70603 
L 269.374174 218.40121 
L 271.481405 215.941617 
L 273.588636 213.329432 
L 275.695868 210.568745 
L 277.803099 207.665685 
L 279.910331 204.628527 
L 282.017562 201.467765 
L 284.124793 198.196154 
L 286.232025 194.828714 
L 288.339256 191.382691 
L 290.446488 187.877476 
L 292.553719 184.33448 
L 294.66095 180.776962 
L 296.768182 177.229809 
L 298.875413 173.719281 
L 300.982645 170.272705 
L 303.089876 166.918145 
L 305.197107 163.684029 
L 307.304339 160.598758 
L 309.41157 157.690303 
L 311.518802 154.985779 
L 313.626033 152.511034 
L 315.733264 150.290236 
L 317.840496 148.345481 
L 319.947727 146.696431 
L 322.054959 145.359977 
L 324.16219 144.349957 
L 326.269421 143.676914 
L 328.376653 143.347916 
L 330.483884 143.366428 
L 332.591116 143.732256 
L 334.698347 144.441545 
L 336.805579 145.486852 
L 338.91281 146.857275 
L 341.020041 148.538637 
L 343.127273 150.513738 
L 345.234504 152.762641 
L 347.341736 155.263012 
L 349.448967 157.990486 
L 351.556198 160.919059 
L 353.66343 164.021504 
L 355.770661 167.269788 
L 357.877893 170.635485 
L 359.985124 174.090188 
L 362.092355 177.605895 
L 364.199587 181.155377 
L 366.306818 184.712507 
L 368.41405 188.252559 
L 370.521281 191.75246 
L 372.628512 195.191009 
L 374.735744 198.549035 
L 376.842975 201.809528 
L 378.950207 204.957706 
L 381.057438 207.981058 
L 383.164669 210.869327 
L 385.271901 213.614471 
L 387.379132 216.210583 
L 389.486364 218.653782 
L 391.593595 220.942083 
L 393.700826 223.075244 
L 395.808058 225.0546 
L 397.915289 226.882888 
L 400.022521 228.564066 
L 402.129752 230.103127 
L 404.236983 231.505923 
L 406.344215 232.778987 
L 408.451446 233.929372 
L 410.558678 234.964492 
L 412.665909 235.891981 
L 414.77314 236.719567 
L 416.880372 237.454958 
L 418.987603 238.10574 
L 421.094835 238.679301 
L 423.202066 239.182755 
L 425.309298 239.62289 
L 427.416529 240.00613 
L 429.52376 240.338499 
L 431.630992 240.625608 
L 433.738223 240.872641 
L 435.845455 241.084356 
" style="fill:none;stroke:#008000;stroke-linecap:square;stroke-width:1.5;"/>
   </g>
   <g id="line2d_21">
    <path clip-path="url(#p19c3a5f552)" d="M 125.140909 241.750145 
L 126.48595 241.620426 
L 127.830992 241.455987 
L 129.176033 241.248833 
L 130.521074 240.989495 
L 131.866116 240.666864 
L 133.211157 240.268016 
L 134.556198 239.778062 
L 135.90124 239.180016 
L 137.246281 238.45469 
L 138.591322 237.580643 
L 139.936364 236.534182 
L 141.281405 235.289443 
L 142.626446 233.818548 
L 143.971488 232.09187 
L 145.316529 230.078409 
L 146.66157 227.746286 
L 148.006612 225.063369 
L 149.351653 221.998026 
L 150.696694 218.520006 
L 152.041736 214.601438 
L 153.386777 210.217932 
L 154.731818 205.349751 
L 156.07686 199.983044 
L 157.421901 194.111072 
L 158.766942 187.735414 
L 160.111983 180.867079 
L 161.457025 173.527486 
L 162.802066 165.749259 
L 164.147107 157.576772 
L 165.492149 149.06641 
L 166.83719 140.286491 
L 168.182231 131.316826 
L 169.527273 122.247894 
L 170.872314 113.17962 
L 172.217355 104.219768 
L 173.562397 95.481981 
L 174.907438 87.083498 
L 176.252479 79.142621 
L 177.597521 71.775993 
L 178.942562 65.095781 
L 180.287603 59.20685 
L 181.632645 54.204036 
L 182.977686 50.16961 
L 184.322727 47.171028 
L 185.667769 45.259054 
L 187.01281 44.466332 
L 188.357851 44.80646 
L 189.702893 46.273599 
L 191.047934 48.842642 
L 192.392975 52.469928 
L 193.738017 57.094476 
L 195.083058 62.639691 
L 196.428099 69.015472 
L 197.77314 76.120648 
L 199.118182 83.845635 
L 200.463223 92.075242 
L 201.808264 100.691495 
L 203.153306 109.576413 
L 204.498347 118.614627 
L 205.843388 127.695766 
L 207.18843 136.716555 
L 208.533471 145.58257 
L 209.878512 154.209611 
L 211.223554 162.524688 
L 212.568595 170.466614 
L 213.913636 177.986224 
L 215.258678 185.046245 
L 216.603719 191.620858 
L 217.94876 197.694997 
L 219.293802 203.263441 
L 220.638843 208.329741 
L 221.983884 212.905051 
L 223.328926 217.006901 
L 224.673967 220.657965 
L 226.019008 223.884858 
L 227.36405 226.717006 
L 228.709091 229.1856 
L 230.054132 231.322671 
L 231.399174 233.16028 
L 232.744215 234.729847 
L 234.089256 236.061599 
L 235.434298 237.184149 
L 236.779339 238.124195 
L 238.12438 238.906309 
L 239.469421 239.55284 
L 240.814463 240.08387 
L 242.159504 240.517259 
L 243.504545 240.868719 
L 244.849587 241.151943 
L 246.194628 241.378747 
L 247.539669 241.559234 
L 248.884711 241.701968 
L 250.229752 241.814147 
L 251.574793 241.901765 
L 252.919835 241.969779 
L 254.264876 242.02225 
L 255.609917 242.062482 
L 256.954959 242.093142 
L 258.3 242.116364 
" style="fill:none;stroke:#008000;stroke-dasharray:5.55,2.4;stroke-dashoffset:0;stroke-width:1.5;"/>
   </g>
   <g id="line2d_22">
    <path clip-path="url(#p19c3a5f552)" d="M 80.754545 240.99211 
L 83.892975 240.77823 
L 87.031405 240.53167 
L 90.169835 240.248553 
L 93.308264 239.924739 
L 96.446694 239.555849 
L 99.585124 239.137283 
L 102.723554 238.66426 
L 105.861983 238.131853 
L 109.000413 237.535048 
L 112.138843 236.868797 
L 115.277273 236.128094 
L 118.415702 235.308055 
L 121.554132 234.404003 
L 124.692562 233.411568 
L 127.830992 232.326793 
L 130.969421 231.146241 
L 134.107851 229.867114 
L 137.246281 228.487366 
L 140.384711 227.005826 
L 143.52314 225.422305 
L 146.66157 223.737713 
L 149.8 221.954156 
L 152.93843 220.075024 
L 156.07686 218.105069 
L 159.215289 216.050462 
L 162.353719 213.918829 
L 165.492149 211.719266 
L 168.630579 209.462326 
L 171.769008 207.159981 
L 174.907438 204.825558 
L 178.045868 202.47364 
L 181.184298 200.11994 
L 184.322727 197.781152 
L 187.461157 195.474768 
L 190.599587 193.218873 
L 193.738017 191.03192 
L 196.876446 188.932487 
L 200.014876 186.939017 
L 203.153306 185.069553 
L 206.291736 183.34147 
L 209.430165 181.771205 
L 212.568595 180.374 
L 215.707025 179.163654 
L 218.845455 178.152299 
L 221.983884 177.350194 
L 225.122314 176.765556 
L 228.260744 176.404416 
L 231.399174 176.270518 
L 234.537603 176.365254 
L 237.676033 176.68764 
L 240.814463 177.23433 
L 243.952893 177.99968 
L 247.091322 178.975838 
L 250.229752 180.152883 
L 253.368182 181.518991 
L 256.506612 183.060634 
L 259.645041 184.7628 
L 262.783471 186.609238 
L 265.921901 188.582717 
L 269.060331 190.665287 
L 272.19876 192.838556 
L 275.33719 195.083949 
L 278.47562 197.382976 
L 281.61405 199.71747 
L 284.752479 202.069823 
L 287.890909 204.423193 
L 291.029339 206.761683 
L 294.167769 209.07051 
L 297.306198 211.336123 
L 300.444628 213.546311 
L 303.583058 215.690276 
L 306.721488 217.75867 
L 309.859917 219.743614 
L 312.998347 221.638692 
L 316.136777 223.438912 
L 319.275207 225.140653 
L 322.413636 226.741597 
L 325.552066 228.240635 
L 328.690496 229.637776 
L 331.828926 230.93403 
L 334.967355 232.131301 
L 338.105785 233.232268 
L 341.244215 234.240264 
L 344.382645 235.159167 
L 347.521074 235.993284 
L 350.659504 236.747244 
L 353.797934 237.425905 
L 356.936364 238.034257 
L 360.074793 238.577346 
L 363.213223 239.060196 
L 366.351653 239.487753 
L 369.490083 239.864827 
L 372.628512 240.19605 
L 375.766942 240.485844 
L 378.905372 240.738388 
L 382.043802 240.957606 
L 385.182231 241.147153 
L 388.320661 241.310407 
L 391.459091 241.45047 
" style="fill:none;stroke:#008000;stroke-dasharray:1.5,2.475;stroke-dashoffset:0;stroke-width:1.5;"/>
   </g>
   <g id="patch_3">
    <path d="M 63 252 
L 63 34.56 
" style="fill:none;stroke:#000000;stroke-linecap:square;stroke-linejoin:miter;stroke-width:0.8;"/>
   </g>
   <g id="patch_4">
    <path d="M 453.6 252 
L 453.6 34.56 
" style="fill:none;stroke:#000000;stroke-linecap:square;stroke-linejoin:miter;stroke-width:0.8;"/>
   </g>
   <g id="patch_5">
    <path d="M 63 252 
L 453.6 252 
" style="fill:none;stroke:#000000;stroke-linecap:square;stroke-linejoin:miter;stroke-width:0.8;"/>
   </g>
   <g id="patch_6">
    <path d="M 63 34.56 
L 453.6 34.56 
" style="fill:none;stroke:#000000;stroke-linecap:square;stroke-linejoin:miter;stroke-width:0.8;"/>
   </g>
   <g id="text_21">
    <!-- ¿Cuál es más parecida al posterior? -->
    <defs>
     <path d="M 24.421875 35.109375 
L 33.6875 35.109375 
L 33.6875 27.484375 
Q 33.6875 22.5625 32.34375 19.390625 
Q 31 16.21875 26.609375 11.96875 
L 22.21875 7.671875 
Q 19.390625 5.078125 18.140625 2.78125 
Q 16.890625 0.484375 16.890625 -1.90625 
Q 16.890625 -6.25 20.09375 -8.9375 
Q 23.296875 -11.625 28.609375 -11.625 
Q 32.421875 -11.625 36.8125 -9.90625 
Q 41.21875 -8.203125 45.90625 -4.9375 
L 45.90625 -14.109375 
Q 41.3125 -16.890625 36.625 -18.25 
Q 31.9375 -19.625 26.90625 -19.625 
Q 17.921875 -19.625 12.453125 -14.890625 
Q 6.984375 -10.15625 6.984375 -2.390625 
Q 6.984375 1.3125 8.765625 4.65625 
Q 10.546875 8.015625 14.890625 12.203125 
L 19.1875 16.40625 
Q 21.53125 18.703125 22.453125 20 
Q 23.390625 21.296875 23.78125 22.515625 
Q 24.125 23.53125 24.265625 25 
Q 24.421875 26.46875 24.421875 29.109375 
z
M 33.984375 42.28125 
L 24.125 42.28125 
L 24.125 54.6875 
L 33.984375 54.6875 
z
" id="DejaVuSans-191"/>
     <path d="M 64.40625 67.28125 
L 64.40625 56.890625 
Q 59.421875 61.53125 53.78125 63.8125 
Q 48.140625 66.109375 41.796875 66.109375 
Q 29.296875 66.109375 22.65625 58.46875 
Q 16.015625 50.828125 16.015625 36.375 
Q 16.015625 21.96875 22.65625 14.328125 
Q 29.296875 6.6875 41.796875 6.6875 
Q 48.140625 6.6875 53.78125 8.984375 
Q 59.421875 11.28125 64.40625 15.921875 
L 64.40625 5.609375 
Q 59.234375 2.09375 53.4375 0.328125 
Q 47.65625 -1.421875 41.21875 -1.421875 
Q 24.65625 -1.421875 15.125 8.703125 
Q 5.609375 18.84375 5.609375 36.375 
Q 5.609375 53.953125 15.125 64.078125 
Q 24.65625 74.21875 41.21875 74.21875 
Q 47.75 74.21875 53.53125 72.484375 
Q 59.328125 70.75 64.40625 67.28125 
z
" id="DejaVuSans-67"/>
     <path d="M 8.5 21.578125 
L 8.5 54.6875 
L 17.484375 54.6875 
L 17.484375 21.921875 
Q 17.484375 14.15625 20.5 10.265625 
Q 23.53125 6.390625 29.59375 6.390625 
Q 36.859375 6.390625 41.078125 11.03125 
Q 45.3125 15.671875 45.3125 23.6875 
L 45.3125 54.6875 
L 54.296875 54.6875 
L 54.296875 0 
L 45.3125 0 
L 45.3125 8.40625 
Q 42.046875 3.421875 37.71875 1 
Q 33.40625 -1.421875 27.6875 -1.421875 
Q 18.265625 -1.421875 13.375 4.4375 
Q 8.5 10.296875 8.5 21.578125 
z
M 31.109375 56 
z
" id="DejaVuSans-117"/>
     <path d="M 9.421875 75.984375 
L 18.40625 75.984375 
L 18.40625 0 
L 9.421875 0 
z
" id="DejaVuSans-108"/>
     <path id="DejaVuSans-32"/>
     <path d="M 18.109375 8.203125 
L 18.109375 -20.796875 
L 9.078125 -20.796875 
L 9.078125 54.6875 
L 18.109375 54.6875 
L 18.109375 46.390625 
Q 20.953125 51.265625 25.265625 53.625 
Q 29.59375 56 35.59375 56 
Q 45.5625 56 51.78125 48.09375 
Q 58.015625 40.1875 58.015625 27.296875 
Q 58.015625 14.40625 51.78125 6.484375 
Q 45.5625 -1.421875 35.59375 -1.421875 
Q 29.59375 -1.421875 25.265625 0.953125 
Q 20.953125 3.328125 18.109375 8.203125 
z
M 48.6875 27.296875 
Q 48.6875 37.203125 44.609375 42.84375 
Q 40.53125 48.484375 33.40625 48.484375 
Q 26.265625 48.484375 22.1875 42.84375 
Q 18.109375 37.203125 18.109375 27.296875 
Q 18.109375 17.390625 22.1875 11.75 
Q 26.265625 6.109375 33.40625 6.109375 
Q 40.53125 6.109375 44.609375 11.75 
Q 48.6875 17.390625 48.6875 27.296875 
z
" id="DejaVuSans-112"/>
     <path d="M 48.78125 52.59375 
L 48.78125 44.1875 
Q 44.96875 46.296875 41.140625 47.34375 
Q 37.3125 48.390625 33.40625 48.390625 
Q 24.65625 48.390625 19.8125 42.84375 
Q 14.984375 37.3125 14.984375 27.296875 
Q 14.984375 17.28125 19.8125 11.734375 
Q 24.65625 6.203125 33.40625 6.203125 
Q 37.3125 6.203125 41.140625 7.25 
Q 44.96875 8.296875 48.78125 10.40625 
L 48.78125 2.09375 
Q 45.015625 0.34375 40.984375 -0.53125 
Q 36.96875 -1.421875 32.421875 -1.421875 
Q 20.0625 -1.421875 12.78125 6.34375 
Q 5.515625 14.109375 5.515625 27.296875 
Q 5.515625 40.671875 12.859375 48.328125 
Q 20.21875 56 33.015625 56 
Q 37.15625 56 41.109375 55.140625 
Q 45.0625 54.296875 48.78125 52.59375 
z
" id="DejaVuSans-99"/>
     <path d="M 19.09375 12.40625 
L 29 12.40625 
L 29 0 
L 19.09375 0 
z
M 28.71875 19.578125 
L 19.390625 19.578125 
L 19.390625 27.09375 
Q 19.390625 32.03125 20.75 35.203125 
Q 22.125 38.375 26.515625 42.578125 
L 30.90625 46.921875 
Q 33.6875 49.515625 34.9375 51.8125 
Q 36.1875 54.109375 36.1875 56.5 
Q 36.1875 60.84375 32.984375 63.53125 
Q 29.78125 66.21875 24.515625 66.21875 
Q 20.65625 66.21875 16.28125 64.5 
Q 11.921875 62.796875 7.171875 59.515625 
L 7.171875 68.703125 
Q 11.765625 71.484375 16.46875 72.84375 
Q 21.1875 74.21875 26.21875 74.21875 
Q 35.203125 74.21875 40.640625 69.484375 
Q 46.09375 64.75 46.09375 56.984375 
Q 46.09375 53.265625 44.328125 49.921875 
Q 42.578125 46.578125 38.1875 42.390625 
L 33.890625 38.1875 
Q 31.59375 35.890625 30.640625 34.59375 
Q 29.6875 33.296875 29.296875 32.078125 
Q 29 31.0625 28.859375 29.59375 
Q 28.71875 28.125 28.71875 25.59375 
z
" id="DejaVuSans-63"/>
    </defs>
    <g transform="translate(80.082812 28.56)scale(0.2 -0.2)">
     <use xlink:href="#DejaVuSans-191"/>
     <use x="53.076172" xlink:href="#DejaVuSans-67"/>
     <use x="122.900391" xlink:href="#DejaVuSans-117"/>
     <use x="186.279297" xlink:href="#DejaVuSans-225"/>
     <use x="247.558594" xlink:href="#DejaVuSans-108"/>
     <use x="275.341797" xlink:href="#DejaVuSans-32"/>
     <use x="307.128906" xlink:href="#DejaVuSans-101"/>
     <use x="368.652344" xlink:href="#DejaVuSans-115"/>
     <use x="420.751953" xlink:href="#DejaVuSans-32"/>
     <use x="452.539062" xlink:href="#DejaVuSans-109"/>
     <use x="549.951172" xlink:href="#DejaVuSans-225"/>
     <use x="611.230469" xlink:href="#DejaVuSans-115"/>
     <use x="663.330078" xlink:href="#DejaVuSans-32"/>
     <use x="695.117188" xlink:href="#DejaVuSans-112"/>
     <use x="758.59375" xlink:href="#DejaVuSans-97"/>
     <use x="819.873047" xlink:href="#DejaVuSans-114"/>
     <use x="858.736328" xlink:href="#DejaVuSans-101"/>
     <use x="920.259766" xlink:href="#DejaVuSans-99"/>
     <use x="975.240234" xlink:href="#DejaVuSans-105"/>
     <use x="1003.023438" xlink:href="#DejaVuSans-100"/>
     <use x="1066.5" xlink:href="#DejaVuSans-97"/>
     <use x="1127.779297" xlink:href="#DejaVuSans-32"/>
     <use x="1159.566406" xlink:href="#DejaVuSans-97"/>
     <use x="1220.845703" xlink:href="#DejaVuSans-108"/>
     <use x="1248.628906" xlink:href="#DejaVuSans-32"/>
     <use x="1280.416016" xlink:href="#DejaVuSans-112"/>
     <use x="1343.892578" xlink:href="#DejaVuSans-111"/>
     <use x="1405.074219" xlink:href="#DejaVuSans-115"/>
     <use x="1457.173828" xlink:href="#DejaVuSans-116"/>
     <use x="1496.382812" xlink:href="#DejaVuSans-101"/>
     <use x="1557.90625" xlink:href="#DejaVuSans-114"/>
     <use x="1599.019531" xlink:href="#DejaVuSans-105"/>
     <use x="1626.802734" xlink:href="#DejaVuSans-111"/>
     <use x="1687.984375" xlink:href="#DejaVuSans-114"/>
     <use x="1729.097656" xlink:href="#DejaVuSans-63"/>
    </g>
   </g>
   <g id="legend_1">
    <g id="patch_7">
     <path d="M 306.660938 101.2725 
L 446.6 101.2725 
Q 448.6 101.2725 448.6 99.2725 
L 448.6 41.56 
Q 448.6 39.56 446.6 39.56 
L 306.660938 39.56 
Q 304.660938 39.56 304.660938 41.56 
L 304.660938 99.2725 
Q 304.660938 101.2725 306.660938 101.2725 
z
" style="fill:#ffffff;opacity:0.8;stroke:#cccccc;stroke-linejoin:miter;"/>
    </g>
    <g id="line2d_23">
     <path d="M 308.660938 47.658437 
L 328.660938 47.658437 
" style="fill:none;stroke:#ff0000;stroke-linecap:square;stroke-width:1.5;"/>
    </g>
    <g id="line2d_24"/>
    <g id="text_22">
     <!-- Posterior -->
     <g transform="translate(336.660938 51.158437)scale(0.1 -0.1)">
      <use xlink:href="#DejaVuSans-80"/>
      <use x="56.677734" xlink:href="#DejaVuSans-111"/>
      <use x="117.859375" xlink:href="#DejaVuSans-115"/>
      <use x="169.958984" xlink:href="#DejaVuSans-116"/>
      <use x="209.167969" xlink:href="#DejaVuSans-101"/>
      <use x="270.691406" xlink:href="#DejaVuSans-114"/>
      <use x="311.804688" xlink:href="#DejaVuSans-105"/>
      <use x="339.587891" xlink:href="#DejaVuSans-111"/>
      <use x="400.769531" xlink:href="#DejaVuSans-114"/>
     </g>
    </g>
    <g id="line2d_25">
     <path d="M 308.660938 62.336562 
L 328.660938 62.336562 
" style="fill:none;stroke:#008000;stroke-linecap:square;stroke-width:1.5;"/>
    </g>
    <g id="line2d_26"/>
    <g id="text_23">
     <!-- Candidata 1. KL: 8.74 -->
     <defs>
      <path d="M 9.8125 72.90625 
L 19.671875 72.90625 
L 19.671875 42.09375 
L 52.390625 72.90625 
L 65.09375 72.90625 
L 28.90625 38.921875 
L 67.671875 0 
L 54.6875 0 
L 19.671875 35.109375 
L 19.671875 0 
L 9.8125 0 
z
" id="DejaVuSans-75"/>
      <path d="M 9.8125 72.90625 
L 19.671875 72.90625 
L 19.671875 8.296875 
L 55.171875 8.296875 
L 55.171875 0 
L 9.8125 0 
z
" id="DejaVuSans-76"/>
      <path d="M 11.71875 12.40625 
L 22.015625 12.40625 
L 22.015625 0 
L 11.71875 0 
z
M 11.71875 51.703125 
L 22.015625 51.703125 
L 22.015625 39.3125 
L 11.71875 39.3125 
z
" id="DejaVuSans-58"/>
      <path d="M 31.78125 34.625 
Q 24.75 34.625 20.71875 30.859375 
Q 16.703125 27.09375 16.703125 20.515625 
Q 16.703125 13.921875 20.71875 10.15625 
Q 24.75 6.390625 31.78125 6.390625 
Q 38.8125 6.390625 42.859375 10.171875 
Q 46.921875 13.96875 46.921875 20.515625 
Q 46.921875 27.09375 42.890625 30.859375 
Q 38.875 34.625 31.78125 34.625 
z
M 21.921875 38.8125 
Q 15.578125 40.375 12.03125 44.71875 
Q 8.5 49.078125 8.5 55.328125 
Q 8.5 64.0625 14.71875 69.140625 
Q 20.953125 74.21875 31.78125 74.21875 
Q 42.671875 74.21875 48.875 69.140625 
Q 55.078125 64.0625 55.078125 55.328125 
Q 55.078125 49.078125 51.53125 44.71875 
Q 48 40.375 41.703125 38.8125 
Q 48.828125 37.15625 52.796875 32.3125 
Q 56.78125 27.484375 56.78125 20.515625 
Q 56.78125 9.90625 50.3125 4.234375 
Q 43.84375 -1.421875 31.78125 -1.421875 
Q 19.734375 -1.421875 13.25 4.234375 
Q 6.78125 9.90625 6.78125 20.515625 
Q 6.78125 27.484375 10.78125 32.3125 
Q 14.796875 37.15625 21.921875 38.8125 
z
M 18.3125 54.390625 
Q 18.3125 48.734375 21.84375 45.5625 
Q 25.390625 42.390625 31.78125 42.390625 
Q 38.140625 42.390625 41.71875 45.5625 
Q 45.3125 48.734375 45.3125 54.390625 
Q 45.3125 60.0625 41.71875 63.234375 
Q 38.140625 66.40625 31.78125 66.40625 
Q 25.390625 66.40625 21.84375 63.234375 
Q 18.3125 60.0625 18.3125 54.390625 
z
" id="DejaVuSans-56"/>
      <path d="M 37.796875 64.3125 
L 12.890625 25.390625 
L 37.796875 25.390625 
z
M 35.203125 72.90625 
L 47.609375 72.90625 
L 47.609375 25.390625 
L 58.015625 25.390625 
L 58.015625 17.1875 
L 47.609375 17.1875 
L 47.609375 0 
L 37.796875 0 
L 37.796875 17.1875 
L 4.890625 17.1875 
L 4.890625 26.703125 
z
" id="DejaVuSans-52"/>
     </defs>
     <g transform="translate(336.660938 65.836562)scale(0.1 -0.1)">
      <use xlink:href="#DejaVuSans-67"/>
      <use x="69.824219" xlink:href="#DejaVuSans-97"/>
      <use x="131.103516" xlink:href="#DejaVuSans-110"/>
      <use x="194.482422" xlink:href="#DejaVuSans-100"/>
      <use x="257.958984" xlink:href="#DejaVuSans-105"/>
      <use x="285.742188" xlink:href="#DejaVuSans-100"/>
      <use x="349.21875" xlink:href="#DejaVuSans-97"/>
      <use x="410.498047" xlink:href="#DejaVuSans-116"/>
      <use x="449.707031" xlink:href="#DejaVuSans-97"/>
      <use x="510.986328" xlink:href="#DejaVuSans-32"/>
      <use x="542.773438" xlink:href="#DejaVuSans-49"/>
      <use x="606.396484" xlink:href="#DejaVuSans-46"/>
      <use x="638.183594" xlink:href="#DejaVuSans-32"/>
      <use x="669.970703" xlink:href="#DejaVuSans-75"/>
      <use x="735.546875" xlink:href="#DejaVuSans-76"/>
      <use x="791.259766" xlink:href="#DejaVuSans-58"/>
      <use x="824.951172" xlink:href="#DejaVuSans-32"/>
      <use x="856.738281" xlink:href="#DejaVuSans-56"/>
      <use x="920.361328" xlink:href="#DejaVuSans-46"/>
      <use x="952.148438" xlink:href="#DejaVuSans-55"/>
      <use x="1015.771484" xlink:href="#DejaVuSans-52"/>
     </g>
    </g>
    <g id="line2d_27">
     <path d="M 308.660938 77.014687 
L 328.660938 77.014687 
" style="fill:none;stroke:#008000;stroke-dasharray:5.55,2.4;stroke-dashoffset:0;stroke-width:1.5;"/>
    </g>
    <g id="line2d_28"/>
    <g id="text_24">
     <!-- Candidata 2. KL: 8.0 -->
     <g transform="translate(336.660938 80.514687)scale(0.1 -0.1)">
      <use xlink:href="#DejaVuSans-67"/>
      <use x="69.824219" xlink:href="#DejaVuSans-97"/>
      <use x="131.103516" xlink:href="#DejaVuSans-110"/>
      <use x="194.482422" xlink:href="#DejaVuSans-100"/>
      <use x="257.958984" xlink:href="#DejaVuSans-105"/>
      <use x="285.742188" xlink:href="#DejaVuSans-100"/>
      <use x="349.21875" xlink:href="#DejaVuSans-97"/>
      <use x="410.498047" xlink:href="#DejaVuSans-116"/>
      <use x="449.707031" xlink:href="#DejaVuSans-97"/>
      <use x="510.986328" xlink:href="#DejaVuSans-32"/>
      <use x="542.773438" xlink:href="#DejaVuSans-50"/>
      <use x="606.396484" xlink:href="#DejaVuSans-46"/>
      <use x="638.183594" xlink:href="#DejaVuSans-32"/>
      <use x="669.970703" xlink:href="#DejaVuSans-75"/>
      <use x="735.546875" xlink:href="#DejaVuSans-76"/>
      <use x="791.259766" xlink:href="#DejaVuSans-58"/>
      <use x="824.951172" xlink:href="#DejaVuSans-32"/>
      <use x="856.738281" xlink:href="#DejaVuSans-56"/>
      <use x="920.361328" xlink:href="#DejaVuSans-46"/>
      <use x="952.148438" xlink:href="#DejaVuSans-48"/>
     </g>
    </g>
    <g id="line2d_29">
     <path d="M 308.660938 91.692813 
L 328.660938 91.692813 
" style="fill:none;stroke:#008000;stroke-dasharray:1.5,2.475;stroke-dashoffset:0;stroke-width:1.5;"/>
    </g>
    <g id="line2d_30"/>
    <g id="text_25">
     <!-- Candidata 3. KL: 4.02 -->
     <g transform="translate(336.660938 95.192813)scale(0.1 -0.1)">
      <use xlink:href="#DejaVuSans-67"/>
      <use x="69.824219" xlink:href="#DejaVuSans-97"/>
      <use x="131.103516" xlink:href="#DejaVuSans-110"/>
      <use x="194.482422" xlink:href="#DejaVuSans-100"/>
      <use x="257.958984" xlink:href="#DejaVuSans-105"/>
      <use x="285.742188" xlink:href="#DejaVuSans-100"/>
      <use x="349.21875" xlink:href="#DejaVuSans-97"/>
      <use x="410.498047" xlink:href="#DejaVuSans-116"/>
      <use x="449.707031" xlink:href="#DejaVuSans-97"/>
      <use x="510.986328" xlink:href="#DejaVuSans-32"/>
      <use x="542.773438" xlink:href="#DejaVuSans-51"/>
      <use x="606.396484" xlink:href="#DejaVuSans-46"/>
      <use x="638.183594" xlink:href="#DejaVuSans-32"/>
      <use x="669.970703" xlink:href="#DejaVuSans-75"/>
      <use x="735.546875" xlink:href="#DejaVuSans-76"/>
      <use x="791.259766" xlink:href="#DejaVuSans-58"/>
      <use x="824.951172" xlink:href="#DejaVuSans-32"/>
      <use x="856.738281" xlink:href="#DejaVuSans-52"/>
      <use x="920.361328" xlink:href="#DejaVuSans-46"/>
      <use x="952.148438" xlink:href="#DejaVuSans-48"/>
      <use x="1015.771484" xlink:href="#DejaVuSans-50"/>
     </g>
    </g>
   </g>
  </g>
 </g>
 <defs>
  <clipPath id="p19c3a5f552">
   <rect height="217.44" width="390.6" x="63" y="34.56"/>
  </clipPath>
 </defs>
</svg>
