<?xml version="1.0" encoding="UTF-8" standalone="no"?>
<!DOCTYPE svg PUBLIC "-//W3C//DTD SVG 1.1//EN"
 "http://www.w3.org/Graphics/SVG/1.1/DTD/svg11.dtd">
<!-- Generated by graphviz version 2.44.0 (20200408.0750)
 -->
<!-- Title: G Pages: 1 -->
<svg width="320pt" height="163pt"
 viewBox="0.00 0.00 320.38 162.79" xmlns="http://www.w3.org/2000/svg" xmlns:xlink="http://www.w3.org/1999/xlink">
<g id="graph0" class="graph" transform="scale(1 1) rotate(0) translate(4 158.79)">
<title>G</title>
<polygon fill="white" stroke="transparent" points="-4,4 -4,-158.79 316.38,-158.79 316.38,4 -4,4"/>
<!-- Valor 1 -->
<g id="node1" class="node">
<title>Valor 1</title>
<ellipse fill="none" stroke="black" cx="36.4" cy="-36.4" rx="36.29" ry="36.29"/>
<text text-anchor="middle" x="36.4" y="-32.7" font-family="Times,serif" font-size="14.00">Valor 1</text>
</g>
<!-- Valor 1&#45;&gt;Valor 1 -->
<g id="edge4" class="edge">
<title>Valor 1&#45;&gt;Valor 1</title>
<path fill="none" stroke="black" d="M25.53,-71.19C25.69,-82.15 29.32,-90.79 36.4,-90.79 41.04,-90.79 44.2,-87.07 45.87,-81.41"/>
<polygon fill="black" stroke="black" points="49.38,-81.57 47.27,-71.19 42.44,-80.62 49.38,-81.57"/>
<text text-anchor="middle" x="36.4" y="-94.19" font-family="Times,serif" font-size="12.00">??</text>
</g>
<!-- Valor 2 -->
<g id="node2" class="node">
<title>Valor 2</title>
<ellipse fill="none" stroke="black" cx="156.19" cy="-87.4" rx="36.29" ry="36.29"/>
<text text-anchor="middle" x="156.19" y="-83.7" font-family="Times,serif" font-size="14.00">Valor 2</text>
</g>
<!-- Valor 1&#45;&gt;Valor 2 -->
<g id="edge1" class="edge">
<title>Valor 1&#45;&gt;Valor 2</title>
<path fill="none" stroke="black" d="M70.21,-50.6C83.48,-56.35 98.97,-63.06 113.07,-69.16"/>
<polygon fill="black" stroke="black" points="111.99,-72.51 122.55,-73.27 114.77,-66.08 111.99,-72.51"/>
<text text-anchor="middle" x="96.29" y="-66.8" font-family="Times,serif" font-size="12.00">??</text>
</g>
<!-- Valor n -->
<g id="node3" class="node">
<title>Valor n</title>
<ellipse fill="none" stroke="black" cx="275.98" cy="-36.4" rx="36.29" ry="36.29"/>
<text text-anchor="middle" x="275.98" y="-32.7" font-family="Times,serif" font-size="14.00">Valor n</text>
</g>
<!-- Valor 1&#45;&gt;Valor n -->
<g id="edge2" class="edge">
<title>Valor 1&#45;&gt;Valor n</title>
<path fill="none" stroke="black" d="M72.64,-32.74C87.22,-31.4 104.3,-30.05 119.79,-29.4 152.12,-28.03 160.26,-28.03 192.59,-29.4 204.57,-29.9 217.5,-30.83 229.49,-31.84"/>
<polygon fill="black" stroke="black" points="229.47,-35.35 239.74,-32.74 230.09,-28.38 229.47,-35.35"/>
<text text-anchor="middle" x="156.19" y="-32.8" font-family="Times,serif" font-size="12.00">??</text>
</g>
<!-- Valor 2&#45;&gt;Valor 2 -->
<g id="edge5" class="edge">
<title>Valor 2&#45;&gt;Valor 2</title>
<path fill="none" stroke="black" d="M145.32,-122.19C145.49,-133.15 149.11,-141.79 156.19,-141.79 160.84,-141.79 163.99,-138.07 165.66,-132.41"/>
<polygon fill="black" stroke="black" points="169.17,-132.57 167.06,-122.19 162.24,-131.62 169.17,-132.57"/>
<text text-anchor="middle" x="156.19" y="-145.19" font-family="Times,serif" font-size="12.00">??</text>
</g>
<!-- Valor 2&#45;&gt;Valor n -->
<g id="edge3" class="edge">
<title>Valor 2&#45;&gt;Valor n</title>
<path fill="none" stroke="black" d="M190,-73.19C203.28,-67.44 218.77,-60.74 232.86,-54.64"/>
<polygon fill="black" stroke="black" points="234.56,-57.71 242.35,-50.53 231.78,-51.29 234.56,-57.71"/>
<text text-anchor="middle" x="216.09" y="-66.8" font-family="Times,serif" font-size="12.00">??</text>
</g>
<!-- Valor n&#45;&gt;Valor n -->
<g id="edge6" class="edge">
<title>Valor n&#45;&gt;Valor n</title>
<path fill="none" stroke="black" d="M265.11,-71.19C265.28,-82.15 268.9,-90.79 275.98,-90.79 280.63,-90.79 283.79,-87.07 285.46,-81.41"/>
<polygon fill="black" stroke="black" points="288.97,-81.57 286.85,-71.19 282.03,-80.62 288.97,-81.57"/>
<text text-anchor="middle" x="275.98" y="-94.19" font-family="Times,serif" font-size="12.00">??</text>
</g>
</g>
</svg>
