<?xml version="1.0" encoding="UTF-8" standalone="no"?>
<!DOCTYPE svg PUBLIC "-//W3C//DTD SVG 1.1//EN"
 "http://www.w3.org/Graphics/SVG/1.1/DTD/svg11.dtd">
<!-- Generated by graphviz version 2.44.0 (20200408.0750)
 -->
<!-- Title: G Pages: 1 -->
<svg width="351pt" height="167pt"
 viewBox="0.00 0.00 351.48 166.59" xmlns="http://www.w3.org/2000/svg" xmlns:xlink="http://www.w3.org/1999/xlink">
<g id="graph0" class="graph" transform="scale(1 1) rotate(0) translate(4 162.59)">
<title>G</title>
<polygon fill="white" stroke="transparent" points="-4,4 -4,-162.59 347.48,-162.59 347.48,4 -4,4"/>
<!-- Tengo -->
<g id="node1" class="node">
<title>Tengo</title>
<ellipse fill="none" stroke="black" cx="33.15" cy="-55.25" rx="33.29" ry="33.29"/>
<text text-anchor="middle" x="33.15" y="-51.55" font-family="Times,serif" font-size="14.00">Tengo</text>
</g>
<!-- Tengo&#45;&gt;Tengo -->
<g id="edge7" class="edge">
<title>Tengo&#45;&gt;Tengo</title>
<path fill="none" stroke="black" d="M21.53,-86.46C21.34,-97.46 25.22,-106.39 33.15,-106.39 38.35,-106.39 41.81,-102.55 43.52,-96.79"/>
<polygon fill="black" stroke="black" points="47.04,-96.81 44.77,-86.46 40.09,-95.97 47.04,-96.81"/>
<text text-anchor="middle" x="33.15" y="-109.79" font-family="Times,serif" font-size="12.00">0.05</text>
</g>
<!-- Una -->
<g id="node2" class="node">
<title>Una</title>
<ellipse fill="none" stroke="black" cx="149.64" cy="-102.25" rx="25.2" ry="25.2"/>
<text text-anchor="middle" x="149.64" y="-98.55" font-family="Times,serif" font-size="14.00">Una</text>
</g>
<!-- Tengo&#45;&gt;Una -->
<g id="edge1" class="edge">
<title>Tengo&#45;&gt;Una</title>
<path fill="none" stroke="black" d="M60.91,-73.9C68.25,-78.42 76.37,-82.91 84.29,-86.25 93.82,-90.26 104.58,-93.43 114.54,-95.85"/>
<polygon fill="black" stroke="black" points="114.02,-99.31 124.54,-98.1 115.56,-92.49 114.02,-99.31"/>
<text text-anchor="middle" x="95.29" y="-96.65" font-family="Times,serif" font-size="12.00">0.65</text>
</g>
<!-- Oportunidad -->
<g id="node3" class="node">
<title>Oportunidad</title>
<ellipse fill="none" stroke="black" cx="288.23" cy="-55.25" rx="55.49" ry="55.49"/>
<text text-anchor="middle" x="288.23" y="-51.55" font-family="Times,serif" font-size="14.00">Oportunidad</text>
</g>
<!-- Tengo&#45;&gt;Oportunidad -->
<g id="edge2" class="edge">
<title>Tengo&#45;&gt;Oportunidad</title>
<path fill="none" stroke="black" d="M66.46,-55.25C105.73,-55.25 172.93,-55.25 222.91,-55.25"/>
<polygon fill="black" stroke="black" points="222.98,-58.75 232.98,-55.25 222.98,-51.75 222.98,-58.75"/>
<text text-anchor="middle" x="149.64" y="-58.65" font-family="Times,serif" font-size="12.00">0.345</text>
</g>
<!-- Una&#45;&gt;Tengo -->
<g id="edge3" class="edge">
<title>Una&#45;&gt;Tengo</title>
<path fill="none" stroke="black" d="M130.5,-85.06C123.43,-79.22 114.95,-73.18 106.29,-69.25 96.97,-65.01 86.41,-62.05 76.29,-59.99"/>
<polygon fill="black" stroke="black" points="76.85,-56.53 66.39,-58.21 75.61,-63.42 76.85,-56.53"/>
<text text-anchor="middle" x="95.29" y="-72.65" font-family="Times,serif" font-size="12.00">0.05</text>
</g>
<!-- Una&#45;&gt;Una -->
<g id="edge8" class="edge">
<title>Una&#45;&gt;Una</title>
<path fill="none" stroke="black" d="M139.68,-125.88C138.73,-136.45 142.05,-145.59 149.64,-145.59 154.63,-145.59 157.77,-141.66 159.07,-135.96"/>
<polygon fill="black" stroke="black" points="162.57,-136.05 159.61,-125.88 155.58,-135.68 162.57,-136.05"/>
<text text-anchor="middle" x="149.64" y="-148.99" font-family="Times,serif" font-size="12.00">0.05</text>
</g>
<!-- Una&#45;&gt;Oportunidad -->
<g id="edge4" class="edge">
<title>Una&#45;&gt;Oportunidad</title>
<path fill="none" stroke="black" d="M174.74,-97.23C186.94,-94.44 201.9,-90.65 214.99,-86.25 219.25,-84.81 223.61,-83.23 227.98,-81.57"/>
<polygon fill="black" stroke="black" points="229.48,-84.74 237.51,-77.82 226.92,-78.23 229.48,-84.74"/>
<text text-anchor="middle" x="203.99" y="-95.65" font-family="Times,serif" font-size="12.00">0.9</text>
</g>
<!-- Oportunidad&#45;&gt;Tengo -->
<g id="edge5" class="edge">
<title>Oportunidad&#45;&gt;Tengo</title>
<path fill="none" stroke="black" d="M234.06,-44.38C202.23,-39.21 160.97,-34.82 124.29,-38.25 108.32,-39.74 90.95,-42.69 75.77,-45.72"/>
<polygon fill="black" stroke="black" points="74.73,-42.36 65.65,-47.81 76.15,-49.21 74.73,-42.36"/>
<text text-anchor="middle" x="149.64" y="-41.65" font-family="Times,serif" font-size="12.00">0.1</text>
</g>
<!-- Oportunidad&#45;&gt;Una -->
<g id="edge6" class="edge">
<title>Oportunidad&#45;&gt;Una</title>
<path fill="none" stroke="black" d="M232.59,-58.53C219.26,-60.63 205.31,-63.97 192.99,-69.25 187.39,-71.64 181.89,-74.97 176.81,-78.59"/>
<polygon fill="black" stroke="black" points="174.47,-75.97 168.69,-84.85 178.75,-81.51 174.47,-75.97"/>
<text text-anchor="middle" x="203.99" y="-72.65" font-family="Times,serif" font-size="12.00">0.85</text>
</g>
<!-- Oportunidad&#45;&gt;Oportunidad -->
<g id="edge9" class="edge">
<title>Oportunidad&#45;&gt;Oportunidad</title>
<path fill="none" stroke="black" d="M272.95,-108.57C274.44,-120.12 279.54,-128.49 288.23,-128.49 294.21,-128.49 298.49,-124.53 301.06,-118.31"/>
<polygon fill="black" stroke="black" points="304.47,-119.13 303.52,-108.57 297.68,-117.41 304.47,-119.13"/>
<text text-anchor="middle" x="288.23" y="-131.89" font-family="Times,serif" font-size="12.00">0.05</text>
</g>
</g>
</svg>
