<?xml version="1.0" encoding="UTF-8" standalone="no"?>
<!DOCTYPE svg PUBLIC "-//W3C//DTD SVG 1.1//EN"
 "http://www.w3.org/Graphics/SVG/1.1/DTD/svg11.dtd">
<!-- Generated by graphviz version 2.44.0 (20200408.0750)
 -->
<!-- Title: G Pages: 1 -->
<svg width="372pt" height="180pt"
 viewBox="0.00 0.00 371.98 179.79" xmlns="http://www.w3.org/2000/svg" xmlns:xlink="http://www.w3.org/1999/xlink">
<g id="graph0" class="graph" transform="scale(1 1) rotate(0) translate(4 175.79)">
<title>G</title>
<polygon fill="white" stroke="transparent" points="-4,4 -4,-175.79 367.98,-175.79 367.98,4 -4,4"/>
<!-- Descanso -->
<g id="node1" class="node">
<title>Descanso</title>
<ellipse fill="none" stroke="black" cx="44.2" cy="-46.5" rx="44.39" ry="44.39"/>
<text text-anchor="middle" x="44.2" y="-42.8" font-family="Times,serif" font-size="14.00">Descanso</text>
</g>
<!-- Descanso&#45;&gt;Descanso -->
<g id="edge7" class="edge">
<title>Descanso&#45;&gt;Descanso</title>
<path fill="none" stroke="black" d="M31.19,-88.94C31.93,-100.18 36.27,-108.69 44.2,-108.69 49.52,-108.69 53.23,-104.85 55.31,-98.92"/>
<polygon fill="black" stroke="black" points="58.78,-99.42 57.21,-88.94 51.9,-98.11 58.78,-99.42"/>
<text text-anchor="middle" x="44.2" y="-112.09" font-family="Times,serif" font-size="12.00">0.6</text>
</g>
<!-- Estudiar -->
<g id="node2" class="node">
<title>Estudiar</title>
<ellipse fill="none" stroke="black" cx="180.69" cy="-100.5" rx="40.09" ry="40.09"/>
<text text-anchor="middle" x="180.69" y="-96.8" font-family="Times,serif" font-size="14.00">Estudiar</text>
</g>
<!-- Descanso&#45;&gt;Estudiar -->
<g id="edge1" class="edge">
<title>Descanso&#45;&gt;Estudiar</title>
<path fill="none" stroke="black" d="M83.6,-67.16C91.06,-70.83 98.89,-74.44 106.39,-77.5 114.56,-80.82 123.4,-83.96 132.01,-86.79"/>
<polygon fill="black" stroke="black" points="131.01,-90.15 141.6,-89.85 133.14,-83.48 131.01,-90.15"/>
<text text-anchor="middle" x="114.39" y="-85.9" font-family="Times,serif" font-size="12.00">0.1</text>
</g>
<!-- Gimnasio -->
<g id="node3" class="node">
<title>Gimnasio</title>
<ellipse fill="none" stroke="black" cx="318.48" cy="-45.5" rx="45.49" ry="45.49"/>
<text text-anchor="middle" x="318.48" y="-41.8" font-family="Times,serif" font-size="14.00">Gimnasio</text>
</g>
<!-- Descanso&#45;&gt;Gimnasio -->
<g id="edge2" class="edge">
<title>Descanso&#45;&gt;Gimnasio</title>
<path fill="none" stroke="black" d="M88.27,-42.11C104.58,-40.65 123.32,-39.21 140.39,-38.5 176.18,-36.99 185.19,-37.2 220.99,-38.5 234.49,-38.99 249.05,-39.86 262.65,-40.83"/>
<polygon fill="black" stroke="black" points="262.61,-44.33 272.84,-41.58 263.12,-37.35 262.61,-44.33"/>
<text text-anchor="middle" x="180.69" y="-41.9" font-family="Times,serif" font-size="12.00">0.3</text>
</g>
<!-- Estudiar&#45;&gt;Descanso -->
<g id="edge3" class="edge">
<title>Estudiar&#45;&gt;Descanso</title>
<path fill="none" stroke="black" d="M148.99,-75.48C140.76,-69.8 131.58,-64.32 122.39,-60.5 114.79,-57.33 106.48,-54.88 98.21,-52.99"/>
<polygon fill="black" stroke="black" points="98.7,-49.51 88.21,-50.94 97.3,-56.37 98.7,-49.51"/>
<text text-anchor="middle" x="114.39" y="-63.9" font-family="Times,serif" font-size="12.00">0.5</text>
</g>
<!-- Estudiar&#45;&gt;Estudiar -->
<g id="edge8" class="edge">
<title>Estudiar&#45;&gt;Estudiar</title>
<path fill="none" stroke="black" d="M168.35,-138.9C168.78,-150.11 172.89,-158.79 180.69,-158.79 185.93,-158.79 189.5,-154.87 191.42,-148.9"/>
<polygon fill="black" stroke="black" points="194.89,-149.33 193.03,-138.9 187.98,-148.22 194.89,-149.33"/>
<text text-anchor="middle" x="180.69" y="-162.19" font-family="Times,serif" font-size="12.00">0.3</text>
</g>
<!-- Estudiar&#45;&gt;Gimnasio -->
<g id="edge4" class="edge">
<title>Estudiar&#45;&gt;Gimnasio</title>
<path fill="none" stroke="black" d="M219.79,-89.88C231.25,-86.33 243.75,-82.09 254.99,-77.5 259.66,-75.58 264.46,-73.45 269.22,-71.22"/>
<polygon fill="black" stroke="black" points="270.8,-74.34 278.28,-66.84 267.75,-68.04 270.8,-74.34"/>
<text text-anchor="middle" x="246.99" y="-85.9" font-family="Times,serif" font-size="12.00">0.2</text>
</g>
<!-- Gimnasio&#45;&gt;Descanso -->
<g id="edge5" class="edge">
<title>Gimnasio&#45;&gt;Descanso</title>
<path fill="none" stroke="black" d="M274.74,-31.39C258.15,-26.6 238.87,-21.86 220.99,-19.5 185.48,-14.8 175.87,-14.56 140.39,-19.5 125.74,-21.53 110.17,-25.26 95.96,-29.3"/>
<polygon fill="black" stroke="black" points="94.97,-25.94 86.37,-32.13 96.95,-32.66 94.97,-25.94"/>
<text text-anchor="middle" x="180.69" y="-22.9" font-family="Times,serif" font-size="12.00">0.75</text>
</g>
<!-- Gimnasio&#45;&gt;Estudiar -->
<g id="edge6" class="edge">
<title>Gimnasio&#45;&gt;Estudiar</title>
<path fill="none" stroke="black" d="M272.93,-50.66C261.58,-52.87 249.6,-56.02 238.99,-60.5 232.83,-63.09 226.67,-66.43 220.79,-70.06"/>
<polygon fill="black" stroke="black" points="218.86,-67.13 212.41,-75.54 222.7,-72.99 218.86,-67.13"/>
<text text-anchor="middle" x="246.99" y="-63.9" font-family="Times,serif" font-size="12.00">0.2</text>
</g>
<!-- Gimnasio&#45;&gt;Gimnasio -->
<g id="edge9" class="edge">
<title>Gimnasio&#45;&gt;Gimnasio</title>
<path fill="none" stroke="black" d="M305.49,-89.12C306.29,-100.45 310.62,-108.99 318.48,-108.99 323.76,-108.99 327.45,-105.14 329.54,-99.17"/>
<polygon fill="black" stroke="black" points="333.02,-99.6 331.47,-89.12 326.15,-98.28 333.02,-99.6"/>
<text text-anchor="middle" x="318.48" y="-112.39" font-family="Times,serif" font-size="12.00">0.05</text>
</g>
</g>
</svg>
