<?xml version="1.0" encoding="UTF-8" standalone="no"?>
<svg
   xmlns:dc="http://purl.org/dc/elements/1.1/"
   xmlns:cc="http://creativecommons.org/ns#"
   xmlns:rdf="http://www.w3.org/1999/02/22-rdf-syntax-ns#"
   xmlns:svg="http://www.w3.org/2000/svg"
   xmlns="http://www.w3.org/2000/svg"
   xmlns:sodipodi="http://sodipodi.sourceforge.net/DTD/sodipodi-0.dtd"
   xmlns:inkscape="http://www.inkscape.org/namespaces/inkscape"
   inkscape:version="1.0 (4035a4f, 2020-05-01)"
   sodipodi:docname="mcmc_diagram.svg"
   viewBox="0 0 160.123993 101.543999"
   height="101.543999"
   width="160.123993"
   xml:space="preserve"
   id="svg10"
   version="1.1"><metadata
     id="metadata16"><rdf:RDF><cc:Work
         rdf:about=""><dc:format>image/svg+xml</dc:format><dc:type
           rdf:resource="http://purl.org/dc/dcmitype/StillImage" /><dc:title></dc:title></cc:Work></rdf:RDF></metadata><defs
     id="defs14" /><sodipodi:namedview
     inkscape:current-layer="g18"
     inkscape:window-maximized="0"
     inkscape:window-y="23"
     inkscape:window-x="0"
     inkscape:cy="50.7719994"
     inkscape:cx="80.0619965"
     inkscape:zoom="1.59290556"
     showgrid="false"
     id="namedview12"
     inkscape:window-height="480"
     inkscape:window-width="739"
     inkscape:pageshadow="2"
     inkscape:pageopacity="0"
     guidetolerance="10"
     gridtolerance="10"
     objecttolerance="10"
     borderopacity="1"
     bordercolor="#666666"
     pagecolor="#ffffff" /><g
     transform="matrix(1.33333333,0,0,-1.33333333,0.466666666,99.228)"
     inkscape:label="mcmc_diagram"
     inkscape:groupmode="layer"
     id="g18"><g
       id="g20"><g
         id="g22"><path
           id="path24"
           style="fill:none;stroke:#000000;stroke-width:1;stroke-linecap:butt;stroke-linejoin:bevel;stroke-miterlimit:10;stroke-dasharray:none;stroke-opacity:1"
           d="m 11.70714,38.05748 c -1.33303,9.90613 1.04802,19.02826 7.1411,19.02826 3.80903,0 6.16706,-3.56307 6.92277,-15.56081" /><g
           transform="matrix(0.06285,-0.9982,0.9982,0.06285,25.771,41.52495)"
           id="g26"><g
             id="g28"><path
               id="path30"
               style="fill:#000000;fill-opacity:1;fill-rule:nonzero;stroke:none"
               d="m 3.47371,0 c -1.44739,0.28947 -4.05266,0.86842 -5.78951,2.17107 1.44738,-1.59212 1.44738,-2.75002 0,-4.34214 1.73685,1.30265 4.34212,1.8816 5.78951,2.17107 z" /></g></g><g
           id="g32"><g
             transform="translate(16.544,61.696)"
             id="g34"><g
               id="g36"><g
                 transform="translate(-16.894,-63.433)"
                 id="g38"><text
                   id="text42"
                   style="font-variant:normal;font-weight:normal;font-size:8.9664px;font-family:CMR9;-inkscape-font-specification:CMR9;writing-mode:lr-tb;fill:#000000;fill-opacity:1;fill-rule:nonzero;stroke:none"
                   transform="matrix(1,0,0,-1,16.894,63.433)"><tspan
                     id="tspan40"
                     y="0"
                     x="0">0</tspan></text><g
                   transform="translate(16.894,63.433)"
                   id="g44" /></g></g><g
               transform="translate(-16.544,-61.696)"
               id="g46" /></g></g><path
           id="path48"
           style="fill:none;stroke:#000000;stroke-width:1;stroke-linecap:butt;stroke-linejoin:bevel;stroke-miterlimit:10;stroke-dasharray:none;stroke-opacity:1"
           d="m 37.70647,20.23724 c 9.59112,0 21.64027,0 39.30683,0" /><g
           transform="translate(77.0133,20.23724)"
           id="g50"><g
             id="g52"><path
               id="path54"
               style="fill:#000000;fill-opacity:1;fill-rule:nonzero;stroke:none"
               d="m 3.47371,0 c -1.44739,0.28947 -4.05266,0.86842 -5.78951,2.17107 1.44738,-1.59212 1.44738,-2.75002 0,-4.34214 1.73685,1.30265 4.34212,1.8816 5.78951,2.17107 z" /></g></g><g
           id="g56"><g
             transform="translate(56.893,24.848)"
             id="g58"><g
               id="g60"><g
                 transform="translate(-57.243,-26.585)"
                 id="g62"><text
                   id="text66"
                   style="font-variant:normal;font-weight:normal;font-size:8.9664px;font-family:CMR9;-inkscape-font-specification:CMR9;writing-mode:lr-tb;fill:#000000;fill-opacity:1;fill-rule:nonzero;stroke:none"
                   transform="matrix(1,0,0,-1,57.243,26.585)"><tspan
                     id="tspan64"
                     y="0"
                     x="0">1</tspan></text><g
                   transform="translate(57.243,26.585)"
                   id="g68" /></g></g><g
               transform="translate(-56.893,-24.848)"
               id="g70" /></g></g><path
           id="path72"
           style="fill:none;stroke:#000000;stroke-width:1;stroke-linecap:butt;stroke-linejoin:bevel;stroke-miterlimit:10;stroke-dasharray:none;stroke-opacity:1"
           d="M 84.31706,8.60059 C 76.18297,3.32713 65.64784,-1.2369 55.69771,1.2369 51.73465,2.22212 47.72859,3.73544 37.9924,8.61119" /><g
           transform="matrix(-0.89442,0.44792,-0.44792,-0.89442,37.9924,8.61118)"
           id="g74"><g
             id="g76"><path
               id="path78"
               style="fill:#000000;fill-opacity:1;fill-rule:nonzero;stroke:none"
               d="m 3.47371,0 c -1.44739,0.28947 -4.05266,0.86842 -5.78951,2.17107 1.44738,-1.59212 1.44738,-2.75002 0,-4.34214 1.73685,1.30265 4.34212,1.8816 5.78951,2.17107 z" /></g></g><g
           id="g80"><g
             transform="translate(50.898,6.487)"
             id="g82"><g
               id="g84"><g
                 transform="translate(-51.248,-8.224)"
                 id="g86"><text
                   id="text90"
                   style="font-variant:normal;font-weight:normal;font-size:6.9738px;font-family:CMMI7;-inkscape-font-specification:CMMI7;writing-mode:lr-tb;fill:#000000;fill-opacity:1;fill-rule:nonzero;stroke:none"
                   transform="matrix(1,0,0,-1,57.542,12.147)"><tspan
                     id="tspan88"
                     y="0"
                     x="0">θ</tspan></text><g
                   transform="translate(52.443,10.715)"
                   id="g92"><path
                     id="path94"
                     style="fill:none;stroke:#000000;stroke-width:0.398;stroke-linecap:butt;stroke-linejoin:bevel;stroke-miterlimit:10;stroke-dasharray:none;stroke-opacity:1"
                     d="M 0,0 H 14.207" /></g><text
                   id="text98"
                   style="font-variant:normal;font-weight:normal;font-size:6.9738px;font-family:CMR7;-inkscape-font-specification:CMR7;writing-mode:lr-tb;fill:#000000;fill-opacity:1;fill-rule:nonzero;stroke:none"
                   transform="matrix(1,0,0,-1,52.443,4.788)"><tspan
                     id="tspan96"
                     y="0"
                     x="0">1</tspan></text><text
                   id="text102"
                   style="font-variant:normal;font-weight:normal;font-size:6.9738px;font-family:CMSY7;-inkscape-font-specification:CMSY7;writing-mode:lr-tb;fill:#000000;fill-opacity:1;fill-rule:nonzero;stroke:none"
                   transform="matrix(1,0,0,-1,56.415,4.788)"><tspan
                     id="tspan100"
                     y="0"
                     x="0">−</tspan></text><text
                   id="text106"
                   style="font-variant:normal;font-weight:normal;font-size:6.9738px;font-family:CMMI7;-inkscape-font-specification:CMMI7;writing-mode:lr-tb;fill:#000000;fill-opacity:1;fill-rule:nonzero;stroke:none"
                   transform="matrix(1,0,0,-1,62.641,4.788)"><tspan
                     id="tspan104"
                     y="0"
                     x="0">θ</tspan></text><g
                   transform="translate(51.248,8.224)"
                   id="g108" /></g></g><g
               transform="translate(-50.898,-6.487)"
               id="g110" /></g></g><path
           id="path112"
           style="fill:none;stroke:#000000;stroke-width:1;stroke-linecap:butt;stroke-linejoin:bevel;stroke-miterlimit:10;stroke-dasharray:none;stroke-opacity:1"
           d="m 92.40518,38.05748 c -1.33302,9.90613 1.04702,19.02826 7.14108,19.02826 3.80507,0 6.1651,-3.56307 6.92547,-15.56081" /><g
           transform="matrix(0.06323,-0.9982,0.9982,0.06323,106.47171,41.52495)"
           id="g114"><g
             id="g116"><path
               id="path118"
               style="fill:#000000;fill-opacity:1;fill-rule:nonzero;stroke:none"
               d="m 3.47371,0 c -1.44739,0.28947 -4.05266,0.86842 -5.78951,2.17107 1.44738,-1.59212 1.44738,-2.75002 0,-4.34214 1.73685,1.30265 4.34212,1.8816 5.78951,2.17107 z" /></g></g><g
           id="g120"><g
             transform="translate(82.667,62.335)"
             id="g122"><g
               id="g124"><g
                 transform="translate(-83.017,-64.072)"
                 id="g126"><text
                   id="text130"
                   style="font-variant:normal;font-weight:normal;font-size:9.9626px;font-family:CMR10;-inkscape-font-specification:CMR10;writing-mode:lr-tb;fill:#000000;fill-opacity:1;fill-rule:nonzero;stroke:none"
                   transform="matrix(1,0,0,-1,83.017,64.072)"><tspan
                     id="tspan128"
                     y="0"
                     x="0">1</tspan></text><text
                   id="text134"
                   style="font-variant:normal;font-weight:normal;font-size:9.9626px;font-family:CMSY10;-inkscape-font-specification:CMSY10;writing-mode:lr-tb;fill:#000000;fill-opacity:1;fill-rule:nonzero;stroke:none"
                   transform="matrix(1,0,0,-1,90.212,64.072)"><tspan
                     id="tspan132"
                     y="0"
                     x="0">−</tspan></text><text
                   id="text138"
                   style="font-variant:normal;font-weight:normal;font-size:6.9738px;font-family:CMMI7;-inkscape-font-specification:CMMI7;writing-mode:lr-tb;fill:#000000;fill-opacity:1;fill-rule:nonzero;stroke:none"
                   transform="matrix(1,0,0,-1,106.469,67.995)"><tspan
                     id="tspan136"
                     y="0"
                     x="0">θ</tspan></text><g
                   transform="translate(101.37,66.563)"
                   id="g140"><path
                     id="path142"
                     style="fill:none;stroke:#000000;stroke-width:0.398;stroke-linecap:butt;stroke-linejoin:bevel;stroke-miterlimit:10;stroke-dasharray:none;stroke-opacity:1"
                     d="M 0,0 H 14.207" /></g><text
                   id="text146"
                   style="font-variant:normal;font-weight:normal;font-size:6.9738px;font-family:CMR7;-inkscape-font-specification:CMR7;writing-mode:lr-tb;fill:#000000;fill-opacity:1;fill-rule:nonzero;stroke:none"
                   transform="matrix(1,0,0,-1,101.37,60.636)"><tspan
                     id="tspan144"
                     y="0"
                     x="0">1</tspan></text><text
                   id="text150"
                   style="font-variant:normal;font-weight:normal;font-size:6.9738px;font-family:CMSY7;-inkscape-font-specification:CMSY7;writing-mode:lr-tb;fill:#000000;fill-opacity:1;fill-rule:nonzero;stroke:none"
                   transform="matrix(1,0,0,-1,105.342,60.636)"><tspan
                     id="tspan148"
                     y="0"
                     x="0">−</tspan></text><text
                   id="text154"
                   style="font-variant:normal;font-weight:normal;font-size:6.9738px;font-family:CMMI7;-inkscape-font-specification:CMMI7;writing-mode:lr-tb;fill:#000000;fill-opacity:1;fill-rule:nonzero;stroke:none"
                   transform="matrix(1,0,0,-1,111.568,60.636)"><tspan
                     id="tspan152"
                     y="0"
                     x="0">θ</tspan></text><g
                   transform="translate(83.017,64.072)"
                   id="g156" /></g></g><g
               transform="translate(-82.667,-62.335)"
               id="g158" /></g></g><g
           id="g160"><path
             id="path162"
             style="fill:none;stroke:#000000;stroke-width:1;stroke-linecap:butt;stroke-linejoin:bevel;stroke-miterlimit:10;stroke-dasharray:none;stroke-opacity:1"
             d="m 37.55046,20.24025 c 0,10.32799 -8.37226,18.70024 -18.70023,18.70024 -10.32798,0 -18.70022,-8.37225 -18.70022,-18.70024 0,-10.32797 8.37224,-18.70023 18.70022,-18.70023 10.32797,0 18.70023,8.37226 18.70023,18.70023 z" /><g
             id="g164"><g
               transform="translate(16.371,16.778)"
               id="g166"><g
                 id="g168"><g
                   transform="translate(-16.721,-18.515)"
                   id="g170"><text
                     id="text174"
                     style="font-variant:normal;font-weight:normal;font-size:9.9626px;font-family:CMMI10;-inkscape-font-specification:CMMI10;writing-mode:lr-tb;fill:#000000;fill-opacity:1;fill-rule:nonzero;stroke:none"
                     transform="matrix(1,0,0,-1,16.721,18.515)"><tspan
                       id="tspan172"
                       y="0"
                       x="0">θ</tspan></text><g
                     transform="translate(16.721,18.515)"
                     id="g176" /></g></g><g
                 transform="translate(-16.371,-16.778)"
                 id="g178" /></g></g></g><g
           id="g180"><path
             id="path182"
             style="fill:none;stroke:#000000;stroke-width:1;stroke-linecap:butt;stroke-linejoin:bevel;stroke-miterlimit:10;stroke-dasharray:none;stroke-opacity:1"
             d="m 118.24149,20.24025 c 0,10.32799 -8.37226,18.70024 -18.70023,18.70024 -10.32799,0 -18.70023,-8.37225 -18.70023,-18.70024 0,-10.32797 8.37224,-18.70023 18.70023,-18.70023 10.32797,0 18.70023,8.37226 18.70023,18.70023 z" /><g
             id="g184"><g
               transform="translate(88.489,17.193)"
               id="g186"><g
                 id="g188"><g
                   transform="translate(-88.839,-18.93)"
                   id="g190"><text
                     id="text194"
                     style="font-variant:normal;font-weight:normal;font-size:9.9626px;font-family:CMR10;-inkscape-font-specification:CMR10;writing-mode:lr-tb;fill:#000000;fill-opacity:1;fill-rule:nonzero;stroke:none"
                     transform="matrix(1,0,0,-1,88.839,18.93)"><tspan
                       id="tspan192"
                       y="0"
                       x="0">1</tspan></text><text
                     id="text198"
                     style="font-variant:normal;font-weight:normal;font-size:9.9626px;font-family:CMSY10;-inkscape-font-specification:CMSY10;writing-mode:lr-tb;fill:#000000;fill-opacity:1;fill-rule:nonzero;stroke:none"
                     transform="matrix(1,0,0,-1,96.034,18.93)"><tspan
                       id="tspan196"
                       y="0"
                       x="0">−</tspan></text><text
                     id="text202"
                     style="font-variant:normal;font-weight:normal;font-size:9.9626px;font-family:CMMI10;-inkscape-font-specification:CMMI10;writing-mode:lr-tb;fill:#000000;fill-opacity:1;fill-rule:nonzero;stroke:none"
                     transform="matrix(1,0,0,-1,105.997,18.93)"><tspan
                       id="tspan200"
                       y="0"
                       x="0">θ</tspan></text><g
                     transform="translate(88.839,18.93)"
                     id="g204" /></g></g><g
                 transform="translate(-88.489,-17.193)"
                 id="g206" /></g></g></g></g></g></g></svg>
