<?xml version="1.0" encoding="utf-8" standalone="no"?>
<!DOCTYPE svg PUBLIC "-//W3C//DTD SVG 1.1//EN"
  "http://www.w3.org/Graphics/SVG/1.1/DTD/svg11.dtd">
<!-- Created with matplotlib (https://matplotlib.org/) -->
<svg height="288pt" version="1.1" viewBox="0 0 432 288" width="432pt" xmlns="http://www.w3.org/2000/svg" xmlns:xlink="http://www.w3.org/1999/xlink">
 <metadata>
  <rdf:RDF xmlns:cc="http://creativecommons.org/ns#" xmlns:dc="http://purl.org/dc/elements/1.1/" xmlns:rdf="http://www.w3.org/1999/02/22-rdf-syntax-ns#">
   <cc:Work>
    <dc:type rdf:resource="http://purl.org/dc/dcmitype/StillImage"/>
    <dc:date>2021-04-14T05:28:01.355595</dc:date>
    <dc:format>image/svg+xml</dc:format>
    <dc:creator>
     <cc:Agent>
      <dc:title>Matplotlib v3.3.3, https://matplotlib.org/</dc:title>
     </cc:Agent>
    </dc:creator>
   </cc:Work>
  </rdf:RDF>
 </metadata>
 <defs>
  <style type="text/css">*{stroke-linecap:butt;stroke-linejoin:round;}</style>
 </defs>
 <g id="figure_1">
  <g id="patch_1">
   <path d="M 0 288 
L 432 288 
L 432 0 
L 0 0 
z
" style="fill:none;"/>
  </g>
  <g id="axes_1">
   <g id="patch_2">
    <path d="M 3.00024 264.450385 
L 428.99976 264.450385 
L 428.99976 3.00024 
L 3.00024 3.00024 
z
" style="fill:#ffffff;"/>
   </g>
   <g id="matplotlib.axis_1">
    <g id="xtick_1">
     <g id="line2d_1">
      <defs>
       <path d="M 0 0 
L 0 3.5 
" id="mcb95b58e23" style="stroke:#000000;stroke-width:0.8;"/>
      </defs>
      <g>
       <use style="stroke:#000000;stroke-width:0.8;" x="36.652039" xlink:href="#mcb95b58e23" y="264.450385"/>
      </g>
     </g>
     <g id="text_1">
      <!-- −20 -->
      <g transform="translate(21.878757 282.088197)scale(0.14 -0.14)">
       <defs>
        <path d="M 10.59375 35.5 
L 73.1875 35.5 
L 73.1875 27.203125 
L 10.59375 27.203125 
z
" id="DejaVuSans-8722"/>
        <path d="M 19.1875 8.296875 
L 53.609375 8.296875 
L 53.609375 0 
L 7.328125 0 
L 7.328125 8.296875 
Q 12.9375 14.109375 22.625 23.890625 
Q 32.328125 33.6875 34.8125 36.53125 
Q 39.546875 41.84375 41.421875 45.53125 
Q 43.3125 49.21875 43.3125 52.78125 
Q 43.3125 58.59375 39.234375 62.25 
Q 35.15625 65.921875 28.609375 65.921875 
Q 23.96875 65.921875 18.8125 64.3125 
Q 13.671875 62.703125 7.8125 59.421875 
L 7.8125 69.390625 
Q 13.765625 71.78125 18.9375 73 
Q 24.125 74.21875 28.421875 74.21875 
Q 39.75 74.21875 46.484375 68.546875 
Q 53.21875 62.890625 53.21875 53.421875 
Q 53.21875 48.921875 51.53125 44.890625 
Q 49.859375 40.875 45.40625 35.40625 
Q 44.1875 33.984375 37.640625 27.21875 
Q 31.109375 20.453125 19.1875 8.296875 
z
" id="DejaVuSans-50"/>
        <path d="M 31.78125 66.40625 
Q 24.171875 66.40625 20.328125 58.90625 
Q 16.5 51.421875 16.5 36.375 
Q 16.5 21.390625 20.328125 13.890625 
Q 24.171875 6.390625 31.78125 6.390625 
Q 39.453125 6.390625 43.28125 13.890625 
Q 47.125 21.390625 47.125 36.375 
Q 47.125 51.421875 43.28125 58.90625 
Q 39.453125 66.40625 31.78125 66.40625 
z
M 31.78125 74.21875 
Q 44.046875 74.21875 50.515625 64.515625 
Q 56.984375 54.828125 56.984375 36.375 
Q 56.984375 17.96875 50.515625 8.265625 
Q 44.046875 -1.421875 31.78125 -1.421875 
Q 19.53125 -1.421875 13.0625 8.265625 
Q 6.59375 17.96875 6.59375 36.375 
Q 6.59375 54.828125 13.0625 64.515625 
Q 19.53125 74.21875 31.78125 74.21875 
z
" id="DejaVuSans-48"/>
       </defs>
       <use xlink:href="#DejaVuSans-8722"/>
       <use x="83.789062" xlink:href="#DejaVuSans-50"/>
       <use x="147.412109" xlink:href="#DejaVuSans-48"/>
      </g>
     </g>
    </g>
    <g id="xtick_2">
     <g id="line2d_2">
      <g>
       <use style="stroke:#000000;stroke-width:0.8;" x="126.564061" xlink:href="#mcb95b58e23" y="264.450385"/>
      </g>
     </g>
     <g id="text_2">
      <!-- 0 -->
      <g transform="translate(122.110311 282.088197)scale(0.14 -0.14)">
       <use xlink:href="#DejaVuSans-48"/>
      </g>
     </g>
    </g>
    <g id="xtick_3">
     <g id="line2d_3">
      <g>
       <use style="stroke:#000000;stroke-width:0.8;" x="216.476083" xlink:href="#mcb95b58e23" y="264.450385"/>
      </g>
     </g>
     <g id="text_3">
      <!-- 20 -->
      <g transform="translate(207.568583 282.088197)scale(0.14 -0.14)">
       <use xlink:href="#DejaVuSans-50"/>
       <use x="63.623047" xlink:href="#DejaVuSans-48"/>
      </g>
     </g>
    </g>
    <g id="xtick_4">
     <g id="line2d_4">
      <g>
       <use style="stroke:#000000;stroke-width:0.8;" x="306.388105" xlink:href="#mcb95b58e23" y="264.450385"/>
      </g>
     </g>
     <g id="text_4">
      <!-- 40 -->
      <g transform="translate(297.480605 282.088197)scale(0.14 -0.14)">
       <defs>
        <path d="M 37.796875 64.3125 
L 12.890625 25.390625 
L 37.796875 25.390625 
z
M 35.203125 72.90625 
L 47.609375 72.90625 
L 47.609375 25.390625 
L 58.015625 25.390625 
L 58.015625 17.1875 
L 47.609375 17.1875 
L 47.609375 0 
L 37.796875 0 
L 37.796875 17.1875 
L 4.890625 17.1875 
L 4.890625 26.703125 
z
" id="DejaVuSans-52"/>
       </defs>
       <use xlink:href="#DejaVuSans-52"/>
       <use x="63.623047" xlink:href="#DejaVuSans-48"/>
      </g>
     </g>
    </g>
    <g id="xtick_5">
     <g id="line2d_5">
      <g>
       <use style="stroke:#000000;stroke-width:0.8;" x="396.300128" xlink:href="#mcb95b58e23" y="264.450385"/>
      </g>
     </g>
     <g id="text_5">
      <!-- 60 -->
      <g transform="translate(387.392628 282.088197)scale(0.14 -0.14)">
       <defs>
        <path d="M 33.015625 40.375 
Q 26.375 40.375 22.484375 35.828125 
Q 18.609375 31.296875 18.609375 23.390625 
Q 18.609375 15.53125 22.484375 10.953125 
Q 26.375 6.390625 33.015625 6.390625 
Q 39.65625 6.390625 43.53125 10.953125 
Q 47.40625 15.53125 47.40625 23.390625 
Q 47.40625 31.296875 43.53125 35.828125 
Q 39.65625 40.375 33.015625 40.375 
z
M 52.59375 71.296875 
L 52.59375 62.3125 
Q 48.875 64.0625 45.09375 64.984375 
Q 41.3125 65.921875 37.59375 65.921875 
Q 27.828125 65.921875 22.671875 59.328125 
Q 17.53125 52.734375 16.796875 39.40625 
Q 19.671875 43.65625 24.015625 45.921875 
Q 28.375 48.1875 33.59375 48.1875 
Q 44.578125 48.1875 50.953125 41.515625 
Q 57.328125 34.859375 57.328125 23.390625 
Q 57.328125 12.15625 50.6875 5.359375 
Q 44.046875 -1.421875 33.015625 -1.421875 
Q 20.359375 -1.421875 13.671875 8.265625 
Q 6.984375 17.96875 6.984375 36.375 
Q 6.984375 53.65625 15.1875 63.9375 
Q 23.390625 74.21875 37.203125 74.21875 
Q 40.921875 74.21875 44.703125 73.484375 
Q 48.484375 72.75 52.59375 71.296875 
z
" id="DejaVuSans-54"/>
       </defs>
       <use xlink:href="#DejaVuSans-54"/>
       <use x="63.623047" xlink:href="#DejaVuSans-48"/>
      </g>
     </g>
    </g>
   </g>
   <g id="matplotlib.axis_2"/>
   <g id="line2d_6">
    <path clip-path="url(#p483efdd170)" d="M 22.363855 252.38797 
L 40.389603 252.434145 
L 56.913207 252.254533 
L 69.681445 251.594304 
L 73.43681 251.656507 
L 76.441101 251.651626 
L 78.69432 251.381083 
L 80.947538 250.875086 
L 86.956121 249.31692 
L 90.711486 248.632911 
L 98.222214 247.485095 
L 99.72436 246.993125 
L 101.226506 246.246542 
L 102.728652 245.215145 
L 104.98187 243.31309 
L 110.23938 238.546694 
L 111.741526 236.73455 
L 113.994745 233.489413 
L 117.750109 227.596646 
L 119.252255 224.565781 
L 120.754401 220.542223 
L 122.256546 215.365725 
L 123.758692 209.348439 
L 126.762983 196.08604 
L 129.016202 185.356588 
L 131.269421 173.725154 
L 134.273712 156.97228 
L 137.278004 138.94787 
L 140.282295 119.630534 
L 142.535514 103.580866 
L 147.041951 69.45189 
L 147.793024 65.176501 
L 148.544097 61.703544 
L 149.29517 59.126546 
L 150.046242 57.279878 
L 150.797315 56.024498 
L 153.050534 53.23138 
L 153.801607 51.976823 
L 154.55268 50.363253 
L 155.303753 48.434749 
L 156.805898 43.691997 
L 160.561263 30.501067 
L 162.063408 26.519241 
L 162.814481 25.016157 
L 163.565554 23.801984 
L 165.0677 21.935308 
L 166.569846 20.157589 
L 168.071991 18.092827 
L 169.574137 16.017052 
L 170.32521 15.258137 
L 171.076283 14.884337 
L 171.827356 15.00931 
L 172.578429 15.747093 
L 173.329501 17.206344 
L 174.080574 19.371191 
L 174.831647 22.216366 
L 176.333793 29.478013 
L 179.338084 45.331878 
L 180.84023 52.197617 
L 184.595594 68.612547 
L 186.848813 78.66693 
L 188.350959 84.5342 
L 189.853105 89.456539 
L 193.608469 100.727831 
L 195.110615 106.382652 
L 197.363833 116.072441 
L 200.368125 128.945446 
L 201.87027 134.620753 
L 203.372416 139.672704 
L 205.625635 146.278962 
L 209.380999 157.18266 
L 212.385291 165.739597 
L 216.140655 175.508554 
L 218.393874 180.855799 
L 220.647092 185.403427 
L 226.655675 196.216397 
L 228.908894 199.655365 
L 233.415331 206.267325 
L 236.419622 210.989561 
L 240.174987 217.25152 
L 241.677133 219.198739 
L 243.179278 220.590062 
L 244.681424 221.51736 
L 246.934643 222.469393 
L 249.187861 223.390538 
L 251.44108 224.621383 
L 252.943226 225.679269 
L 260.453954 231.583686 
L 264.209319 234.279813 
L 267.964683 237.12659 
L 269.466829 238.005308 
L 276.977557 241.69228 
L 278.479703 242.122018 
L 284.488286 243.335338 
L 287.492578 244.424 
L 291.999015 246.23569 
L 293.501161 246.657331 
L 295.754379 246.994621 
L 298.758671 247.102409 
L 302.514035 247.242472 
L 304.767254 247.483105 
L 307.020472 247.951117 
L 312.277982 249.39369 
L 314.531201 249.668428 
L 326.548367 250.641282 
L 338.565533 251.735124 
L 341.569824 251.784809 
L 344.574116 251.609886 
L 348.32948 251.405056 
L 351.333772 251.526022 
L 359.595573 252.086583 
L 363.350938 252.126839 
L 367.857375 252.156964 
L 373.114885 252.338599 
L 379.123468 252.339238 
L 385.883124 252.497785 
L 399.402435 252.423534 
L 406.162091 252.280422 
L 406.162091 252.280422 
" style="fill:none;stroke:#1f77b4;stroke-linecap:square;stroke-width:1.5;"/>
   </g>
   <g id="line2d_7">
    <path clip-path="url(#p483efdd170)" d="M 22.363855 252.50172 
L 22.363855 252.38797 
" style="fill:none;stroke:#1f77b4;stroke-linecap:square;stroke-width:1.5;"/>
   </g>
   <g id="line2d_8">
    <path clip-path="url(#p483efdd170)" d="M 406.162091 252.502796 
L 406.162091 252.280422 
" style="fill:none;stroke:#1f77b4;stroke-linecap:square;stroke-width:1.5;"/>
   </g>
   <g id="line2d_9">
    <defs>
     <path d="M 0 3 
C 0.795609 3 1.55874 2.683901 2.12132 2.12132 
C 2.683901 1.55874 3 0.795609 3 0 
C 3 -0.795609 2.683901 -1.55874 2.12132 -2.12132 
C 1.55874 -2.683901 0.795609 -3 0 -3 
C -0.795609 -3 -1.55874 -2.683901 -2.12132 -2.12132 
C -2.683901 -1.55874 -3 -0.795609 -3 0 
C -3 0.795609 -2.683901 1.55874 -2.12132 2.12132 
C -1.55874 2.683901 -0.795609 3 0 3 
z
" id="m2118d48fe7" style="stroke:#000000;"/>
    </defs>
    <g clip-path="url(#p483efdd170)">
     <use style="fill:#1f77b4;stroke:#000000;" x="178.842574" xlink:href="#m2118d48fe7" y="252.500594"/>
    </g>
   </g>
   <g id="line2d_10">
    <path clip-path="url(#p483efdd170)" d="M 128.92219 245.931262 
L 129.471532 245.848532 
L 130.020875 245.595571 
L 130.570217 245.19029 
L 131.119559 244.630581 
L 132.218244 243.050046 
L 133.316929 240.919386 
L 134.415614 238.307702 
L 136.063641 233.702737 
L 138.26101 226.692921 
L 139.909037 220.785399 
L 141.557064 214.021098 
L 143.205092 205.904473 
L 144.853119 196.348515 
L 148.698515 172.658327 
L 149.7972 167.077864 
L 150.895885 162.325799 
L 152.543912 156.240342 
L 154.741282 148.268236 
L 156.389309 141.385416 
L 159.136021 128.784951 
L 161.882733 115.433105 
L 164.080102 103.642726 
L 168.474841 78.232551 
L 173.968265 46.245391 
L 175.06695 41.268777 
L 176.165634 37.21786 
L 177.264319 34.04552 
L 178.363004 31.579865 
L 179.461689 29.616948 
L 181.109716 27.170062 
L 182.208401 25.843296 
L 183.307085 24.802254 
L 184.40577 24.191768 
L 184.955112 24.053175 
L 186.053797 24.122293 
L 187.152482 24.584724 
L 188.251167 25.364143 
L 189.899194 26.899736 
L 190.997879 28.176938 
L 192.096563 29.714505 
L 193.195248 31.573202 
L 194.293933 33.839217 
L 195.94196 37.902617 
L 198.688672 45.675032 
L 208.027492 72.941351 
L 209.675519 78.785798 
L 211.872889 87.824249 
L 214.619601 99.089289 
L 216.267628 104.854036 
L 218.464998 111.524059 
L 221.211709 119.924427 
L 223.958421 129.391285 
L 226.155791 136.654066 
L 227.803818 141.191772 
L 229.451845 144.955264 
L 232.747899 152.218775 
L 234.395927 156.44961 
L 236.593296 162.782847 
L 240.438693 174.913708 
L 242.636062 181.500631 
L 244.284089 185.807395 
L 245.932117 189.54051 
L 247.580144 192.757922 
L 249.777513 196.441882 
L 254.721595 204.282839 
L 259.665676 212.573989 
L 265.1591 221.011655 
L 267.356469 223.962854 
L 269.004496 225.898937 
L 271.201866 228.120881 
L 276.145947 232.528104 
L 278.892659 234.852278 
L 281.090029 236.387602 
L 284.386083 238.262082 
L 287.682137 240.186301 
L 292.076876 242.897258 
L 293.724903 243.656993 
L 295.372931 244.186872 
L 297.5703 244.641285 
L 301.965039 245.212883 
L 305.810436 245.723081 
L 308.007805 246.23883 
L 310.754517 247.165431 
L 314.050572 248.235208 
L 316.797283 248.858438 
L 320.64268 249.448246 
L 337.122951 251.408863 
L 339.869663 251.515118 
L 343.165718 251.397417 
L 348.659141 251.099409 
L 351.405853 251.213413 
L 356.349935 251.770061 
L 359.645989 252.002528 
L 364.040728 252.030321 
L 368.435467 252.097007 
L 373.928891 252.274151 
L 380.520999 252.375551 
L 386.563766 252.495286 
L 395.902586 252.417887 
L 409.636145 252.198158 
L 409.636145 252.198158 
" style="fill:none;stroke:#ff7f0e;stroke-linecap:square;stroke-width:1.5;"/>
   </g>
   <g id="line2d_11">
    <path clip-path="url(#p483efdd170)" d="M 128.92219 252.566287 
L 128.92219 245.931262 
" style="fill:none;stroke:#ff7f0e;stroke-linecap:square;stroke-width:1.5;"/>
   </g>
   <g id="line2d_12">
    <path clip-path="url(#p483efdd170)" d="M 409.636145 252.503619 
L 409.636145 252.198158 
" style="fill:none;stroke:#ff7f0e;stroke-linecap:square;stroke-width:1.5;"/>
   </g>
   <g id="line2d_13">
    <defs>
     <path d="M 0 3 
C 0.795609 3 1.55874 2.683901 2.12132 2.12132 
C 2.683901 1.55874 3 0.795609 3 0 
C 3 -0.795609 2.683901 -1.55874 2.12132 -2.12132 
C 1.55874 -2.683901 0.795609 -3 0 -3 
C -0.795609 -3 -1.55874 -2.683901 -2.12132 -2.12132 
C -2.683901 -1.55874 -3 -0.795609 -3 0 
C -3 0.795609 -2.683901 1.55874 -2.12132 2.12132 
C -1.55874 2.683901 -0.795609 3 0 3 
z
" id="me9d3572093" style="stroke:#000000;"/>
    </defs>
    <g clip-path="url(#p483efdd170)">
     <use style="fill:#ff7f0e;stroke:#000000;" x="198.999942" xlink:href="#me9d3572093" y="252.500594"/>
    </g>
   </g>
   <g id="line2d_14"/>
   <g id="line2d_15"/>
   <g id="patch_3">
    <path d="M 3.00024 264.450385 
L 428.99976 264.450385 
" style="fill:none;stroke:#000000;stroke-linecap:square;stroke-linejoin:miter;stroke-width:0.8;"/>
   </g>
   <g id="legend_1">
    <g id="patch_4">
     <path d="M 287.13601 55.29899 
L 419.19976 55.29899 
Q 421.99976 55.29899 421.99976 52.49899 
L 421.99976 12.80024 
Q 421.99976 10.00024 419.19976 10.00024 
L 287.13601 10.00024 
Q 284.33601 10.00024 284.33601 12.80024 
L 284.33601 52.49899 
Q 284.33601 55.29899 287.13601 55.29899 
z
" style="fill:#ffffff;opacity:0.8;stroke:#cccccc;stroke-linejoin:miter;"/>
    </g>
    <g id="line2d_16">
     <path d="M 289.93601 21.338052 
L 317.93601 21.338052 
" style="fill:none;stroke:#1f77b4;stroke-linecap:square;stroke-width:1.5;"/>
    </g>
    <g id="line2d_17"/>
    <g id="text_6">
     <!-- Escuela A -->
     <g transform="translate(329.13601 26.238052)scale(0.14 -0.14)">
      <defs>
       <path d="M 9.8125 72.90625 
L 55.90625 72.90625 
L 55.90625 64.59375 
L 19.671875 64.59375 
L 19.671875 43.015625 
L 54.390625 43.015625 
L 54.390625 34.71875 
L 19.671875 34.71875 
L 19.671875 8.296875 
L 56.78125 8.296875 
L 56.78125 0 
L 9.8125 0 
z
" id="DejaVuSans-69"/>
       <path d="M 44.28125 53.078125 
L 44.28125 44.578125 
Q 40.484375 46.53125 36.375 47.5 
Q 32.28125 48.484375 27.875 48.484375 
Q 21.1875 48.484375 17.84375 46.4375 
Q 14.5 44.390625 14.5 40.28125 
Q 14.5 37.15625 16.890625 35.375 
Q 19.28125 33.59375 26.515625 31.984375 
L 29.59375 31.296875 
Q 39.15625 29.25 43.1875 25.515625 
Q 47.21875 21.78125 47.21875 15.09375 
Q 47.21875 7.46875 41.1875 3.015625 
Q 35.15625 -1.421875 24.609375 -1.421875 
Q 20.21875 -1.421875 15.453125 -0.5625 
Q 10.6875 0.296875 5.421875 2 
L 5.421875 11.28125 
Q 10.40625 8.6875 15.234375 7.390625 
Q 20.0625 6.109375 24.8125 6.109375 
Q 31.15625 6.109375 34.5625 8.28125 
Q 37.984375 10.453125 37.984375 14.40625 
Q 37.984375 18.0625 35.515625 20.015625 
Q 33.0625 21.96875 24.703125 23.78125 
L 21.578125 24.515625 
Q 13.234375 26.265625 9.515625 29.90625 
Q 5.8125 33.546875 5.8125 39.890625 
Q 5.8125 47.609375 11.28125 51.796875 
Q 16.75 56 26.8125 56 
Q 31.78125 56 36.171875 55.265625 
Q 40.578125 54.546875 44.28125 53.078125 
z
" id="DejaVuSans-115"/>
       <path d="M 48.78125 52.59375 
L 48.78125 44.1875 
Q 44.96875 46.296875 41.140625 47.34375 
Q 37.3125 48.390625 33.40625 48.390625 
Q 24.65625 48.390625 19.8125 42.84375 
Q 14.984375 37.3125 14.984375 27.296875 
Q 14.984375 17.28125 19.8125 11.734375 
Q 24.65625 6.203125 33.40625 6.203125 
Q 37.3125 6.203125 41.140625 7.25 
Q 44.96875 8.296875 48.78125 10.40625 
L 48.78125 2.09375 
Q 45.015625 0.34375 40.984375 -0.53125 
Q 36.96875 -1.421875 32.421875 -1.421875 
Q 20.0625 -1.421875 12.78125 6.34375 
Q 5.515625 14.109375 5.515625 27.296875 
Q 5.515625 40.671875 12.859375 48.328125 
Q 20.21875 56 33.015625 56 
Q 37.15625 56 41.109375 55.140625 
Q 45.0625 54.296875 48.78125 52.59375 
z
" id="DejaVuSans-99"/>
       <path d="M 8.5 21.578125 
L 8.5 54.6875 
L 17.484375 54.6875 
L 17.484375 21.921875 
Q 17.484375 14.15625 20.5 10.265625 
Q 23.53125 6.390625 29.59375 6.390625 
Q 36.859375 6.390625 41.078125 11.03125 
Q 45.3125 15.671875 45.3125 23.6875 
L 45.3125 54.6875 
L 54.296875 54.6875 
L 54.296875 0 
L 45.3125 0 
L 45.3125 8.40625 
Q 42.046875 3.421875 37.71875 1 
Q 33.40625 -1.421875 27.6875 -1.421875 
Q 18.265625 -1.421875 13.375 4.4375 
Q 8.5 10.296875 8.5 21.578125 
z
M 31.109375 56 
z
" id="DejaVuSans-117"/>
       <path d="M 56.203125 29.59375 
L 56.203125 25.203125 
L 14.890625 25.203125 
Q 15.484375 15.921875 20.484375 11.0625 
Q 25.484375 6.203125 34.421875 6.203125 
Q 39.59375 6.203125 44.453125 7.46875 
Q 49.3125 8.734375 54.109375 11.28125 
L 54.109375 2.78125 
Q 49.265625 0.734375 44.1875 -0.34375 
Q 39.109375 -1.421875 33.890625 -1.421875 
Q 20.796875 -1.421875 13.15625 6.1875 
Q 5.515625 13.8125 5.515625 26.8125 
Q 5.515625 40.234375 12.765625 48.109375 
Q 20.015625 56 32.328125 56 
Q 43.359375 56 49.78125 48.890625 
Q 56.203125 41.796875 56.203125 29.59375 
z
M 47.21875 32.234375 
Q 47.125 39.59375 43.09375 43.984375 
Q 39.0625 48.390625 32.421875 48.390625 
Q 24.90625 48.390625 20.390625 44.140625 
Q 15.875 39.890625 15.1875 32.171875 
z
" id="DejaVuSans-101"/>
       <path d="M 9.421875 75.984375 
L 18.40625 75.984375 
L 18.40625 0 
L 9.421875 0 
z
" id="DejaVuSans-108"/>
       <path d="M 34.28125 27.484375 
Q 23.390625 27.484375 19.1875 25 
Q 14.984375 22.515625 14.984375 16.5 
Q 14.984375 11.71875 18.140625 8.90625 
Q 21.296875 6.109375 26.703125 6.109375 
Q 34.1875 6.109375 38.703125 11.40625 
Q 43.21875 16.703125 43.21875 25.484375 
L 43.21875 27.484375 
z
M 52.203125 31.203125 
L 52.203125 0 
L 43.21875 0 
L 43.21875 8.296875 
Q 40.140625 3.328125 35.546875 0.953125 
Q 30.953125 -1.421875 24.3125 -1.421875 
Q 15.921875 -1.421875 10.953125 3.296875 
Q 6 8.015625 6 15.921875 
Q 6 25.140625 12.171875 29.828125 
Q 18.359375 34.515625 30.609375 34.515625 
L 43.21875 34.515625 
L 43.21875 35.40625 
Q 43.21875 41.609375 39.140625 45 
Q 35.0625 48.390625 27.6875 48.390625 
Q 23 48.390625 18.546875 47.265625 
Q 14.109375 46.140625 10.015625 43.890625 
L 10.015625 52.203125 
Q 14.9375 54.109375 19.578125 55.046875 
Q 24.21875 56 28.609375 56 
Q 40.484375 56 46.34375 49.84375 
Q 52.203125 43.703125 52.203125 31.203125 
z
" id="DejaVuSans-97"/>
       <path id="DejaVuSans-32"/>
       <path d="M 34.1875 63.1875 
L 20.796875 26.90625 
L 47.609375 26.90625 
z
M 28.609375 72.90625 
L 39.796875 72.90625 
L 67.578125 0 
L 57.328125 0 
L 50.6875 18.703125 
L 17.828125 18.703125 
L 11.1875 0 
L 0.78125 0 
z
" id="DejaVuSans-65"/>
      </defs>
      <use xlink:href="#DejaVuSans-69"/>
      <use x="63.183594" xlink:href="#DejaVuSans-115"/>
      <use x="115.283203" xlink:href="#DejaVuSans-99"/>
      <use x="170.263672" xlink:href="#DejaVuSans-117"/>
      <use x="233.642578" xlink:href="#DejaVuSans-101"/>
      <use x="295.166016" xlink:href="#DejaVuSans-108"/>
      <use x="322.949219" xlink:href="#DejaVuSans-97"/>
      <use x="384.228516" xlink:href="#DejaVuSans-32"/>
      <use x="416.015625" xlink:href="#DejaVuSans-65"/>
     </g>
    </g>
    <g id="line2d_18">
     <path d="M 289.93601 41.887427 
L 317.93601 41.887427 
" style="fill:none;stroke:#ff7f0e;stroke-linecap:square;stroke-width:1.5;"/>
    </g>
    <g id="line2d_19"/>
    <g id="text_7">
     <!-- Mejor efecto -->
     <g transform="translate(329.13601 46.787427)scale(0.14 -0.14)">
      <defs>
       <path d="M 9.8125 72.90625 
L 24.515625 72.90625 
L 43.109375 23.296875 
L 61.8125 72.90625 
L 76.515625 72.90625 
L 76.515625 0 
L 66.890625 0 
L 66.890625 64.015625 
L 48.09375 14.015625 
L 38.1875 14.015625 
L 19.390625 64.015625 
L 19.390625 0 
L 9.8125 0 
z
" id="DejaVuSans-77"/>
       <path d="M 9.421875 54.6875 
L 18.40625 54.6875 
L 18.40625 -0.984375 
Q 18.40625 -11.421875 14.421875 -16.109375 
Q 10.453125 -20.796875 1.609375 -20.796875 
L -1.8125 -20.796875 
L -1.8125 -13.1875 
L 0.59375 -13.1875 
Q 5.71875 -13.1875 7.5625 -10.8125 
Q 9.421875 -8.453125 9.421875 -0.984375 
z
M 9.421875 75.984375 
L 18.40625 75.984375 
L 18.40625 64.59375 
L 9.421875 64.59375 
z
" id="DejaVuSans-106"/>
       <path d="M 30.609375 48.390625 
Q 23.390625 48.390625 19.1875 42.75 
Q 14.984375 37.109375 14.984375 27.296875 
Q 14.984375 17.484375 19.15625 11.84375 
Q 23.34375 6.203125 30.609375 6.203125 
Q 37.796875 6.203125 41.984375 11.859375 
Q 46.1875 17.53125 46.1875 27.296875 
Q 46.1875 37.015625 41.984375 42.703125 
Q 37.796875 48.390625 30.609375 48.390625 
z
M 30.609375 56 
Q 42.328125 56 49.015625 48.375 
Q 55.71875 40.765625 55.71875 27.296875 
Q 55.71875 13.875 49.015625 6.21875 
Q 42.328125 -1.421875 30.609375 -1.421875 
Q 18.84375 -1.421875 12.171875 6.21875 
Q 5.515625 13.875 5.515625 27.296875 
Q 5.515625 40.765625 12.171875 48.375 
Q 18.84375 56 30.609375 56 
z
" id="DejaVuSans-111"/>
       <path d="M 41.109375 46.296875 
Q 39.59375 47.171875 37.8125 47.578125 
Q 36.03125 48 33.890625 48 
Q 26.265625 48 22.1875 43.046875 
Q 18.109375 38.09375 18.109375 28.8125 
L 18.109375 0 
L 9.078125 0 
L 9.078125 54.6875 
L 18.109375 54.6875 
L 18.109375 46.1875 
Q 20.953125 51.171875 25.484375 53.578125 
Q 30.03125 56 36.53125 56 
Q 37.453125 56 38.578125 55.875 
Q 39.703125 55.765625 41.0625 55.515625 
z
" id="DejaVuSans-114"/>
       <path d="M 37.109375 75.984375 
L 37.109375 68.5 
L 28.515625 68.5 
Q 23.6875 68.5 21.796875 66.546875 
Q 19.921875 64.59375 19.921875 59.515625 
L 19.921875 54.6875 
L 34.71875 54.6875 
L 34.71875 47.703125 
L 19.921875 47.703125 
L 19.921875 0 
L 10.890625 0 
L 10.890625 47.703125 
L 2.296875 47.703125 
L 2.296875 54.6875 
L 10.890625 54.6875 
L 10.890625 58.5 
Q 10.890625 67.625 15.140625 71.796875 
Q 19.390625 75.984375 28.609375 75.984375 
z
" id="DejaVuSans-102"/>
       <path d="M 18.3125 70.21875 
L 18.3125 54.6875 
L 36.8125 54.6875 
L 36.8125 47.703125 
L 18.3125 47.703125 
L 18.3125 18.015625 
Q 18.3125 11.328125 20.140625 9.421875 
Q 21.96875 7.515625 27.59375 7.515625 
L 36.8125 7.515625 
L 36.8125 0 
L 27.59375 0 
Q 17.1875 0 13.234375 3.875 
Q 9.28125 7.765625 9.28125 18.015625 
L 9.28125 47.703125 
L 2.6875 47.703125 
L 2.6875 54.6875 
L 9.28125 54.6875 
L 9.28125 70.21875 
z
" id="DejaVuSans-116"/>
      </defs>
      <use xlink:href="#DejaVuSans-77"/>
      <use x="86.279297" xlink:href="#DejaVuSans-101"/>
      <use x="147.802734" xlink:href="#DejaVuSans-106"/>
      <use x="175.585938" xlink:href="#DejaVuSans-111"/>
      <use x="236.767578" xlink:href="#DejaVuSans-114"/>
      <use x="277.880859" xlink:href="#DejaVuSans-32"/>
      <use x="309.667969" xlink:href="#DejaVuSans-101"/>
      <use x="371.191406" xlink:href="#DejaVuSans-102"/>
      <use x="406.396484" xlink:href="#DejaVuSans-101"/>
      <use x="467.919922" xlink:href="#DejaVuSans-99"/>
      <use x="522.900391" xlink:href="#DejaVuSans-116"/>
      <use x="562.109375" xlink:href="#DejaVuSans-111"/>
     </g>
    </g>
   </g>
  </g>
 </g>
 <defs>
  <clipPath id="p483efdd170">
   <rect height="261.450145" width="425.99952" x="3.00024" y="3.00024"/>
  </clipPath>
 </defs>
</svg>
