<?xml version="1.0" encoding="utf-8" standalone="no"?>
<!DOCTYPE svg PUBLIC "-//W3C//DTD SVG 1.1//EN"
  "http://www.w3.org/Graphics/SVG/1.1/DTD/svg11.dtd">
<!-- Created with matplotlib (https://matplotlib.org/) -->
<svg height="288pt" version="1.1" viewBox="0 0 432 288" width="432pt" xmlns="http://www.w3.org/2000/svg" xmlns:xlink="http://www.w3.org/1999/xlink">
 <metadata>
  <rdf:RDF xmlns:cc="http://creativecommons.org/ns#" xmlns:dc="http://purl.org/dc/elements/1.1/" xmlns:rdf="http://www.w3.org/1999/02/22-rdf-syntax-ns#">
   <cc:Work>
    <dc:type rdf:resource="http://purl.org/dc/dcmitype/StillImage"/>
    <dc:date>2021-04-14T05:27:29.607225</dc:date>
    <dc:format>image/svg+xml</dc:format>
    <dc:creator>
     <cc:Agent>
      <dc:title>Matplotlib v3.3.3, https://matplotlib.org/</dc:title>
     </cc:Agent>
    </dc:creator>
   </cc:Work>
  </rdf:RDF>
 </metadata>
 <defs>
  <style type="text/css">*{stroke-linecap:butt;stroke-linejoin:round;}</style>
 </defs>
 <g id="figure_1">
  <g id="patch_1">
   <path d="M 0 288 
L 432 288 
L 432 0 
L 0 0 
z
" style="fill:none;"/>
  </g>
  <g id="axes_1">
   <g id="patch_2">
    <path d="M 3.00024 264.450385 
L 428.99976 264.450385 
L 428.99976 21.15774 
L 3.00024 21.15774 
z
" style="fill:#ffffff;"/>
   </g>
   <g id="matplotlib.axis_1">
    <g id="xtick_1">
     <g id="line2d_1">
      <defs>
       <path d="M 0 0 
L 0 3.5 
" id="mfa89b4ad28" style="stroke:#000000;stroke-width:0.8;"/>
      </defs>
      <g>
       <use style="stroke:#000000;stroke-width:0.8;" x="18.249844" xlink:href="#mfa89b4ad28" y="264.450385"/>
      </g>
     </g>
     <g id="text_1">
      <!-- 0 -->
      <g transform="translate(13.796094 282.088197)scale(0.14 -0.14)">
       <defs>
        <path d="M 31.78125 66.40625 
Q 24.171875 66.40625 20.328125 58.90625 
Q 16.5 51.421875 16.5 36.375 
Q 16.5 21.390625 20.328125 13.890625 
Q 24.171875 6.390625 31.78125 6.390625 
Q 39.453125 6.390625 43.28125 13.890625 
Q 47.125 21.390625 47.125 36.375 
Q 47.125 51.421875 43.28125 58.90625 
Q 39.453125 66.40625 31.78125 66.40625 
z
M 31.78125 74.21875 
Q 44.046875 74.21875 50.515625 64.515625 
Q 56.984375 54.828125 56.984375 36.375 
Q 56.984375 17.96875 50.515625 8.265625 
Q 44.046875 -1.421875 31.78125 -1.421875 
Q 19.53125 -1.421875 13.0625 8.265625 
Q 6.59375 17.96875 6.59375 36.375 
Q 6.59375 54.828125 13.0625 64.515625 
Q 19.53125 74.21875 31.78125 74.21875 
z
" id="DejaVuSans-48"/>
       </defs>
       <use xlink:href="#DejaVuSans-48"/>
      </g>
     </g>
    </g>
    <g id="xtick_2">
     <g id="line2d_2">
      <g>
       <use style="stroke:#000000;stroke-width:0.8;" x="83.569559" xlink:href="#mfa89b4ad28" y="264.450385"/>
      </g>
     </g>
     <g id="text_2">
      <!-- 5 -->
      <g transform="translate(79.115809 282.088197)scale(0.14 -0.14)">
       <defs>
        <path d="M 10.796875 72.90625 
L 49.515625 72.90625 
L 49.515625 64.59375 
L 19.828125 64.59375 
L 19.828125 46.734375 
Q 21.96875 47.46875 24.109375 47.828125 
Q 26.265625 48.1875 28.421875 48.1875 
Q 40.625 48.1875 47.75 41.5 
Q 54.890625 34.8125 54.890625 23.390625 
Q 54.890625 11.625 47.5625 5.09375 
Q 40.234375 -1.421875 26.90625 -1.421875 
Q 22.3125 -1.421875 17.546875 -0.640625 
Q 12.796875 0.140625 7.71875 1.703125 
L 7.71875 11.625 
Q 12.109375 9.234375 16.796875 8.0625 
Q 21.484375 6.890625 26.703125 6.890625 
Q 35.15625 6.890625 40.078125 11.328125 
Q 45.015625 15.765625 45.015625 23.390625 
Q 45.015625 31 40.078125 35.4375 
Q 35.15625 39.890625 26.703125 39.890625 
Q 22.75 39.890625 18.8125 39.015625 
Q 14.890625 38.140625 10.796875 36.28125 
z
" id="DejaVuSans-53"/>
       </defs>
       <use xlink:href="#DejaVuSans-53"/>
      </g>
     </g>
    </g>
    <g id="xtick_3">
     <g id="line2d_3">
      <g>
       <use style="stroke:#000000;stroke-width:0.8;" x="148.889275" xlink:href="#mfa89b4ad28" y="264.450385"/>
      </g>
     </g>
     <g id="text_3">
      <!-- 10 -->
      <g transform="translate(139.981775 282.088197)scale(0.14 -0.14)">
       <defs>
        <path d="M 12.40625 8.296875 
L 28.515625 8.296875 
L 28.515625 63.921875 
L 10.984375 60.40625 
L 10.984375 69.390625 
L 28.421875 72.90625 
L 38.28125 72.90625 
L 38.28125 8.296875 
L 54.390625 8.296875 
L 54.390625 0 
L 12.40625 0 
z
" id="DejaVuSans-49"/>
       </defs>
       <use xlink:href="#DejaVuSans-49"/>
       <use x="63.623047" xlink:href="#DejaVuSans-48"/>
      </g>
     </g>
    </g>
    <g id="xtick_4">
     <g id="line2d_4">
      <g>
       <use style="stroke:#000000;stroke-width:0.8;" x="214.20899" xlink:href="#mfa89b4ad28" y="264.450385"/>
      </g>
     </g>
     <g id="text_4">
      <!-- 15 -->
      <g transform="translate(205.30149 282.088197)scale(0.14 -0.14)">
       <use xlink:href="#DejaVuSans-49"/>
       <use x="63.623047" xlink:href="#DejaVuSans-53"/>
      </g>
     </g>
    </g>
    <g id="xtick_5">
     <g id="line2d_5">
      <g>
       <use style="stroke:#000000;stroke-width:0.8;" x="279.528706" xlink:href="#mfa89b4ad28" y="264.450385"/>
      </g>
     </g>
     <g id="text_5">
      <!-- 20 -->
      <g transform="translate(270.621206 282.088197)scale(0.14 -0.14)">
       <defs>
        <path d="M 19.1875 8.296875 
L 53.609375 8.296875 
L 53.609375 0 
L 7.328125 0 
L 7.328125 8.296875 
Q 12.9375 14.109375 22.625 23.890625 
Q 32.328125 33.6875 34.8125 36.53125 
Q 39.546875 41.84375 41.421875 45.53125 
Q 43.3125 49.21875 43.3125 52.78125 
Q 43.3125 58.59375 39.234375 62.25 
Q 35.15625 65.921875 28.609375 65.921875 
Q 23.96875 65.921875 18.8125 64.3125 
Q 13.671875 62.703125 7.8125 59.421875 
L 7.8125 69.390625 
Q 13.765625 71.78125 18.9375 73 
Q 24.125 74.21875 28.421875 74.21875 
Q 39.75 74.21875 46.484375 68.546875 
Q 53.21875 62.890625 53.21875 53.421875 
Q 53.21875 48.921875 51.53125 44.890625 
Q 49.859375 40.875 45.40625 35.40625 
Q 44.1875 33.984375 37.640625 27.21875 
Q 31.109375 20.453125 19.1875 8.296875 
z
" id="DejaVuSans-50"/>
       </defs>
       <use xlink:href="#DejaVuSans-50"/>
       <use x="63.623047" xlink:href="#DejaVuSans-48"/>
      </g>
     </g>
    </g>
    <g id="xtick_6">
     <g id="line2d_6">
      <g>
       <use style="stroke:#000000;stroke-width:0.8;" x="344.848421" xlink:href="#mfa89b4ad28" y="264.450385"/>
      </g>
     </g>
     <g id="text_6">
      <!-- 25 -->
      <g transform="translate(335.940921 282.088197)scale(0.14 -0.14)">
       <use xlink:href="#DejaVuSans-50"/>
       <use x="63.623047" xlink:href="#DejaVuSans-53"/>
      </g>
     </g>
    </g>
    <g id="xtick_7">
     <g id="line2d_7">
      <g>
       <use style="stroke:#000000;stroke-width:0.8;" x="410.168136" xlink:href="#mfa89b4ad28" y="264.450385"/>
      </g>
     </g>
     <g id="text_7">
      <!-- 30 -->
      <g transform="translate(401.260636 282.088197)scale(0.14 -0.14)">
       <defs>
        <path d="M 40.578125 39.3125 
Q 47.65625 37.796875 51.625 33 
Q 55.609375 28.21875 55.609375 21.1875 
Q 55.609375 10.40625 48.1875 4.484375 
Q 40.765625 -1.421875 27.09375 -1.421875 
Q 22.515625 -1.421875 17.65625 -0.515625 
Q 12.796875 0.390625 7.625 2.203125 
L 7.625 11.71875 
Q 11.71875 9.328125 16.59375 8.109375 
Q 21.484375 6.890625 26.8125 6.890625 
Q 36.078125 6.890625 40.9375 10.546875 
Q 45.796875 14.203125 45.796875 21.1875 
Q 45.796875 27.640625 41.28125 31.265625 
Q 36.765625 34.90625 28.71875 34.90625 
L 20.21875 34.90625 
L 20.21875 43.015625 
L 29.109375 43.015625 
Q 36.375 43.015625 40.234375 45.921875 
Q 44.09375 48.828125 44.09375 54.296875 
Q 44.09375 59.90625 40.109375 62.90625 
Q 36.140625 65.921875 28.71875 65.921875 
Q 24.65625 65.921875 20.015625 65.03125 
Q 15.375 64.15625 9.8125 62.3125 
L 9.8125 71.09375 
Q 15.4375 72.65625 20.34375 73.4375 
Q 25.25 74.21875 29.59375 74.21875 
Q 40.828125 74.21875 47.359375 69.109375 
Q 53.90625 64.015625 53.90625 55.328125 
Q 53.90625 49.265625 50.4375 45.09375 
Q 46.96875 40.921875 40.578125 39.3125 
z
" id="DejaVuSans-51"/>
       </defs>
       <use xlink:href="#DejaVuSans-51"/>
       <use x="63.623047" xlink:href="#DejaVuSans-48"/>
      </g>
     </g>
    </g>
   </g>
   <g id="matplotlib.axis_2"/>
   <g id="line2d_8">
    <path clip-path="url(#p549d6c0bb6)" d="M 22.363855 76.096998 
L 23.121726 75.23187 
L 23.879597 72.738324 
L 24.637469 68.882471 
L 26.153212 58.833975 
L 27.668954 48.703738 
L 28.426826 44.451329 
L 29.184697 40.95355 
L 29.942569 38.234032 
L 30.70044 36.29947 
L 31.458311 34.924765 
L 32.216183 33.977934 
L 33.731926 32.792645 
L 34.489797 32.441887 
L 36.00554 32.216497 
L 37.521283 32.390286 
L 38.279154 32.629691 
L 39.037026 33.07117 
L 39.794897 33.696456 
L 41.31064 35.439393 
L 42.826383 37.579758 
L 46.61574 43.232754 
L 48.131483 45.058798 
L 49.647225 46.452029 
L 51.162968 47.454101 
L 54.194454 49.206712 
L 55.710197 50.387593 
L 57.983811 52.731785 
L 61.015296 55.979033 
L 62.531039 57.167222 
L 67.836139 60.438784 
L 70.109753 62.57895 
L 72.383368 65.129914 
L 73.89911 67.12206 
L 75.414853 69.460731 
L 76.930596 72.163469 
L 79.962082 78.207714 
L 82.235696 82.64434 
L 84.50931 86.612018 
L 86.782924 90.018467 
L 89.056539 92.938079 
L 94.361639 99.228799 
L 96.635253 101.747898 
L 102.698224 107.981966 
L 104.971838 110.756452 
L 107.245453 114.041247 
L 109.519067 117.83649 
L 112.550552 123.042055 
L 118.613524 133.01213 
L 123.160752 141.424537 
L 124.676495 143.746194 
L 126.192238 145.695448 
L 127.707981 147.378856 
L 129.981595 149.453666 
L 132.255209 151.443169 
L 133.770952 153.051421 
L 136.044566 156.013462 
L 138.31818 159.088533 
L 139.833923 160.865265 
L 143.62328 164.937366 
L 145.139023 166.940476 
L 147.412637 170.412314 
L 149.686252 173.971725 
L 151.201994 176.026189 
L 152.717737 177.682668 
L 154.23348 178.905838 
L 155.749223 179.847596 
L 158.022837 181.181257 
L 159.53858 182.290749 
L 161.054323 183.674773 
L 163.327937 186.223572 
L 166.359423 189.733678 
L 168.633037 192.005485 
L 172.422394 195.482778 
L 175.45388 198.736137 
L 180.758979 204.573251 
L 183.032594 206.845185 
L 184.548336 208.115902 
L 186.064079 209.061278 
L 187.579822 209.653512 
L 189.095565 209.953541 
L 192.127051 210.384575 
L 193.642793 210.847911 
L 195.158536 211.630719 
L 196.674279 212.716821 
L 201.979379 217.019716 
L 203.495122 217.878073 
L 205.010865 218.510701 
L 207.284479 219.140275 
L 210.315964 219.881151 
L 212.589579 220.730992 
L 217.894679 223.246843 
L 220.926164 224.926149 
L 223.199778 226.168996 
L 226.231264 227.470192 
L 227.747007 228.155182 
L 230.020621 229.473545 
L 232.294235 230.829839 
L 233.809978 231.437299 
L 235.325721 231.719 
L 237.599335 231.749497 
L 239.872949 231.826191 
L 241.388692 232.123548 
L 242.904435 232.668972 
L 244.420178 233.416275 
L 249.725278 236.390968 
L 251.998892 237.29022 
L 256.54612 238.750767 
L 259.577606 239.553437 
L 264.124835 240.629643 
L 267.914192 241.674984 
L 270.187806 241.996657 
L 272.46142 242.048179 
L 275.492906 242.074273 
L 277.76652 242.359718 
L 283.07162 243.461828 
L 289.134591 243.936533 
L 292.923948 244.580167 
L 294.439691 244.660612 
L 296.713305 244.531399 
L 302.018405 244.045536 
L 304.292019 244.138233 
L 306.565634 244.540526 
L 309.597119 245.44788 
L 312.628605 246.278362 
L 314.902219 246.655842 
L 317.175833 246.799129 
L 324.754547 246.934549 
L 327.786033 246.982972 
L 332.333262 246.94038 
L 335.364747 247.212911 
L 343.701333 248.284013 
L 347.49069 248.319416 
L 351.280047 248.364287 
L 359.616632 248.888122 
L 364.921732 249.228555 
L 373.258318 249.217128 
L 385.38426 250.000062 
L 388.415746 249.913566 
L 392.205103 249.803851 
L 405.846788 250.145882 
L 409.636145 250.390291 
L 409.636145 250.390291 
" style="fill:none;stroke:#1f77b4;stroke-linecap:square;stroke-width:1.5;"/>
   </g>
   <g id="line2d_9">
    <path clip-path="url(#p549d6c0bb6)" d="M 22.363855 253.391628 
L 22.363855 76.096998 
" style="fill:none;stroke:#1f77b4;stroke-linecap:square;stroke-width:1.5;"/>
   </g>
   <g id="line2d_10">
    <path clip-path="url(#p549d6c0bb6)" d="M 409.636145 251.648695 
L 409.636145 250.390291 
" style="fill:none;stroke:#1f77b4;stroke-linecap:square;stroke-width:1.5;"/>
   </g>
   <g id="line2d_11">
    <defs>
     <path d="M 0 3 
C 0.795609 3 1.55874 2.683901 2.12132 2.12132 
C 2.683901 1.55874 3 0.795609 3 0 
C 3 -0.795609 2.683901 -1.55874 2.12132 -2.12132 
C 1.55874 -2.683901 0.795609 -3 0 -3 
C -0.795609 -3 -1.55874 -2.683901 -2.12132 -2.12132 
C -2.683901 -1.55874 -3 -0.795609 -3 0 
C -3 0.795609 -2.683901 1.55874 -2.12132 2.12132 
C -1.55874 2.683901 -0.795609 3 0 3 
z
" id="m1ac1f63d19" style="stroke:#000000;"/>
    </defs>
    <g clip-path="url(#p549d6c0bb6)">
     <use style="fill:#1f77b4;stroke:#000000;" x="101.352249" xlink:href="#m1ac1f63d19" y="251.636236"/>
    </g>
   </g>
   <g id="patch_3">
    <path d="M 3.00024 264.450385 
L 428.99976 264.450385 
" style="fill:none;stroke:#000000;stroke-linecap:square;stroke-linejoin:miter;stroke-width:0.8;"/>
   </g>
   <g id="text_8">
    <!-- tau -->
    <g transform="translate(202.89125 15.15774)scale(0.16 -0.16)">
     <defs>
      <path d="M 18.3125 70.21875 
L 18.3125 54.6875 
L 36.8125 54.6875 
L 36.8125 47.703125 
L 18.3125 47.703125 
L 18.3125 18.015625 
Q 18.3125 11.328125 20.140625 9.421875 
Q 21.96875 7.515625 27.59375 7.515625 
L 36.8125 7.515625 
L 36.8125 0 
L 27.59375 0 
Q 17.1875 0 13.234375 3.875 
Q 9.28125 7.765625 9.28125 18.015625 
L 9.28125 47.703125 
L 2.6875 47.703125 
L 2.6875 54.6875 
L 9.28125 54.6875 
L 9.28125 70.21875 
z
" id="DejaVuSans-116"/>
      <path d="M 34.28125 27.484375 
Q 23.390625 27.484375 19.1875 25 
Q 14.984375 22.515625 14.984375 16.5 
Q 14.984375 11.71875 18.140625 8.90625 
Q 21.296875 6.109375 26.703125 6.109375 
Q 34.1875 6.109375 38.703125 11.40625 
Q 43.21875 16.703125 43.21875 25.484375 
L 43.21875 27.484375 
z
M 52.203125 31.203125 
L 52.203125 0 
L 43.21875 0 
L 43.21875 8.296875 
Q 40.140625 3.328125 35.546875 0.953125 
Q 30.953125 -1.421875 24.3125 -1.421875 
Q 15.921875 -1.421875 10.953125 3.296875 
Q 6 8.015625 6 15.921875 
Q 6 25.140625 12.171875 29.828125 
Q 18.359375 34.515625 30.609375 34.515625 
L 43.21875 34.515625 
L 43.21875 35.40625 
Q 43.21875 41.609375 39.140625 45 
Q 35.0625 48.390625 27.6875 48.390625 
Q 23 48.390625 18.546875 47.265625 
Q 14.109375 46.140625 10.015625 43.890625 
L 10.015625 52.203125 
Q 14.9375 54.109375 19.578125 55.046875 
Q 24.21875 56 28.609375 56 
Q 40.484375 56 46.34375 49.84375 
Q 52.203125 43.703125 52.203125 31.203125 
z
" id="DejaVuSans-97"/>
      <path d="M 8.5 21.578125 
L 8.5 54.6875 
L 17.484375 54.6875 
L 17.484375 21.921875 
Q 17.484375 14.15625 20.5 10.265625 
Q 23.53125 6.390625 29.59375 6.390625 
Q 36.859375 6.390625 41.078125 11.03125 
Q 45.3125 15.671875 45.3125 23.6875 
L 45.3125 54.6875 
L 54.296875 54.6875 
L 54.296875 0 
L 45.3125 0 
L 45.3125 8.40625 
Q 42.046875 3.421875 37.71875 1 
Q 33.40625 -1.421875 27.6875 -1.421875 
Q 18.265625 -1.421875 13.375 4.4375 
Q 8.5 10.296875 8.5 21.578125 
z
M 31.109375 56 
z
" id="DejaVuSans-117"/>
     </defs>
     <use xlink:href="#DejaVuSans-116"/>
     <use x="39.208984" xlink:href="#DejaVuSans-97"/>
     <use x="100.488281" xlink:href="#DejaVuSans-117"/>
    </g>
   </g>
  </g>
 </g>
 <defs>
  <clipPath id="p549d6c0bb6">
   <rect height="243.292645" width="425.99952" x="3.00024" y="21.15774"/>
  </clipPath>
 </defs>
</svg>
