<?xml version="1.0" encoding="UTF-8" standalone="no"?>
<svg
   xmlns:dc="http://purl.org/dc/elements/1.1/"
   xmlns:cc="http://creativecommons.org/ns#"
   xmlns:rdf="http://www.w3.org/1999/02/22-rdf-syntax-ns#"
   xmlns:svg="http://www.w3.org/2000/svg"
   xmlns="http://www.w3.org/2000/svg"
   xmlns:sodipodi="http://sodipodi.sourceforge.net/DTD/sodipodi-0.dtd"
   xmlns:inkscape="http://www.inkscape.org/namespaces/inkscape"
   inkscape:version="1.0 (4035a4f, 2020-05-01)"
   sodipodi:docname="infrastructure.svg"
   version="1.1"
   width="512"
   viewBox="0 0 64 64"
   height="512"
   enable-background="new 0 0 64 64"
   id="Layer_3">
  <metadata
     id="metadata130">
    <rdf:RDF>
      <cc:Work
         rdf:about="">
        <dc:format>image/svg+xml</dc:format>
        <dc:type
           rdf:resource="http://purl.org/dc/dcmitype/StillImage" />
      </cc:Work>
    </rdf:RDF>
  </metadata>
  <defs
     id="defs128" />
  <sodipodi:namedview
     inkscape:current-layer="Layer_3"
     inkscape:window-maximized="0"
     inkscape:window-y="23"
     inkscape:window-x="0"
     inkscape:cy="256"
     inkscape:cx="256"
     inkscape:zoom="0.653320313"
     showgrid="false"
     id="namedview126"
     inkscape:window-height="761"
     inkscape:window-width="1339"
     inkscape:pageshadow="2"
     inkscape:pageopacity="0"
     guidetolerance="10"
     gridtolerance="10"
     objecttolerance="10"
     borderopacity="1"
     bordercolor="#666666"
     pagecolor="#ffffff" />
  <g
     id="g123">
    <path
       id="path97"
       fill="#2862be"
       d="m47 34v-4l-3.248-.433c-.31-1.507-.908-2.908-1.726-4.151l1.994-2.608-2.828-2.828-2.608 1.994c-1.243-.818-2.644-1.415-4.151-1.726l-.433-3.248h-4l-.433 3.248c-1.507.31-2.908.908-4.151 1.726l-2.608-1.994-2.828 2.828 1.994 2.608c-.818 1.243-1.415 2.644-1.726 4.151l-3.248.433v4l3.248.433c.31 1.507.908 2.908 1.726 4.151l-1.994 2.608 2.828 2.828 2.608-1.994c1.243.818 2.644 1.415 4.151 1.726l.433 3.248h4l.433-3.248c1.507-.31 2.908-.908 4.151-1.726l2.608 1.994 2.828-2.828-1.994-2.608c.818-1.243 1.415-2.644 1.726-4.151zm-15 6c-4.418 0-8-3.582-8-8s3.582-8 8-8 8 3.582 8 8-3.582 8-8 8z" />
    <g
       id="g111"
       fill="#f6b940">
      <path
         id="path99"
         d="m54 28h8v8h-8z" />
      <path
         id="path101"
         d="m54 48h8v8h-8z" />
      <path
         id="path103"
         d="m54 8h8v8h-8z" />
      <path
         id="path105"
         transform="matrix(-1 0 0 -1 12 64)"
         d="m2 28h8v8h-8z" />
      <path
         id="path107"
         transform="matrix(-1 0 0 -1 12 104)"
         d="m2 48h8v8h-8z" />
      <path
         id="path109"
         transform="matrix(-1 0 0 -1 12 24)"
         d="m2 8h8v8h-8z" />
    </g>
    <g
       id="g117"
       fill="#61668c">
      <path
         id="path113"
         d="m54 13v-2h-4c-.552 0-1 .448-1 1v19h-2v2h2v19c0 .552.448 1 1 1h4v-2h-3v-18h3v-2h-3v-18z" />
      <path
         id="path115"
         d="m15 12c0-.552-.448-1-1-1h-4v2h3v18h-3v2h3v18h-3v2h4c.552 0 1-.448 1-1v-19h2v-2h-2z" />
    </g>
    <path
       id="path119"
       d="m32 23c-4.962 0-9 4.038-9 9s4.038 9 9 9 9-4.038 9-9-4.038-9-9-9zm0 16c-3.86 0-7-3.14-7-7s3.14-7 7-7 7 3.14 7 7-3.14 7-7 7z" />
    <path
       id="path121"
       d="m62 7h-8c-.552 0-1 .448-1 1v3h-3c-.552 0-1 .448-1 1v19h-1v-1c0-.501-.371-.925-.868-.991l-2.565-.342c-.295-1.116-.74-2.185-1.328-3.192l1.576-2.06c.304-.398.267-.96-.087-1.314l-2.829-2.829c-.354-.355-.917-.392-1.314-.087l-2.06 1.576c-1.007-.587-2.076-1.032-3.192-1.328l-.342-2.565c-.066-.497-.49-.868-.991-.868h-4c-.501 0-.925.371-.991.868l-.342 2.565c-1.116.295-2.185.74-3.192 1.328l-2.06-1.576c-.398-.304-.96-.267-1.314.087l-2.829 2.829c-.354.354-.392.917-.087 1.314l1.576 2.06c-.587 1.007-1.032 2.076-1.328 3.192l-2.565.342c-.497.066-.868.49-.868.991v1h-1v-19c0-.552-.448-1-1-1h-3v-3c0-.552-.448-1-1-1h-8c-.552 0-1 .448-1 1v8c0 .552.448 1 1 1h8c.552 0 1-.448 1-1v-3h2v18h-2v-3c0-.552-.448-1-1-1h-8c-.552 0-1 .448-1 1v8c0 .552.448 1 1 1h8c.552 0 1-.448 1-1v-3h2v18h-2v-3c0-.552-.448-1-1-1h-8c-.552 0-1 .448-1 1v8c0 .552.448 1 1 1h8c.552 0 1-.448 1-1v-3h3c.552 0 1-.448 1-1v-19h1v1c0 .501.371.925.868.991l2.565.342c.295 1.116.74 2.185 1.328 3.192l-1.576 2.06c-.304.398-.267.96.087 1.314l2.829 2.829c.354.354.915.391 1.314.087l2.06-1.576c1.007.587 2.076 1.032 3.192 1.328l.342 2.565c.066.497.49.868.991.868h4c.501 0 .925-.371.991-.868l.342-2.565c1.116-.295 2.185-.74 3.192-1.328l2.06 1.576c.398.305.961.268 1.314-.087l2.829-2.829c.354-.354.392-.917.087-1.314l-1.576-2.06c.587-1.007 1.032-2.076 1.328-3.192l2.565-.342c.497-.066.868-.49.868-.991v-1h1v19c0 .552.448 1 1 1h3v3c0 .552.448 1 1 1h8c.552 0 1-.448 1-1v-8c0-.552-.448-1-1-1h-8c-.552 0-1 .448-1 1v3h-2v-18h2v3c0 .552.448 1 1 1h8c.552 0 1-.448 1-1v-8c0-.552-.448-1-1-1h-8c-.552 0-1 .448-1 1v3h-2v-18h2v3c0 .552.448 1 1 1h8c.552 0 1-.448 1-1v-8c0-.552-.448-1-1-1zm-53 8h-6v-6h6zm0 20h-6v-6h6zm0 20h-6v-6h6zm37-21.875-2.38.317c-.421.056-.761.373-.847.79-.278 1.352-.811 2.632-1.582 3.803-.234.355-.217.819.041 1.157l1.463 1.913-1.59 1.59-1.913-1.463c-.338-.258-.803-.275-1.157-.041-1.171.771-2.451 1.304-3.803 1.582-.417.086-.733.426-.79.847l-.317 2.38h-2.249l-.317-2.38c-.056-.421-.373-.761-.79-.847-1.352-.278-2.632-.811-3.803-1.582-.354-.233-.818-.217-1.157.041l-1.913 1.463-1.59-1.59 1.463-1.913c.258-.338.275-.802.041-1.157-.771-1.171-1.304-2.451-1.582-3.803-.086-.417-.426-.733-.847-.79l-2.381-.317v-2.249l2.38-.317c.421-.056.761-.373.847-.79.278-1.352.811-2.632 1.582-3.803.234-.355.217-.819-.041-1.157l-1.463-1.913 1.59-1.59 1.913 1.463c.337.258.802.274 1.157.041 1.171-.771 2.451-1.304 3.803-1.582.417-.086.733-.426.79-.847l.317-2.381h2.249l.317 2.38c.056.421.373.761.79.847 1.352.278 2.632.811 3.803 1.582.356.234.82.218 1.157-.041l1.913-1.463 1.59 1.59-1.463 1.913c-.258.338-.275.802-.041 1.157.771 1.171 1.304 2.451 1.582 3.803.086.417.426.733.847.79l2.381.317zm9 15.875h6v6h-6zm0-20h6v6h-6zm6-14h-6v-6h6z" />
  </g>
  <text
     id="text134"
     y="62.8636017"
     x="1.41330349"
     style="font-size:2px;line-height:1.25;font-family:Helvetica;-inkscape-font-specification:Helvetica;stroke-width:0.125"
     xml:space="preserve"><tspan
       style="font-size:2px;stroke-width:0.125"
       y="62.8636017"
       x="1.41330349"
       id="tspan132"
       sodipodi:role="line">Surang at flaticon.com</tspan></text>
</svg>
