<?xml version="1.0" encoding="UTF-8" standalone="no"?>
<svg
   xmlns:dc="http://purl.org/dc/elements/1.1/"
   xmlns:cc="http://creativecommons.org/ns#"
   xmlns:rdf="http://www.w3.org/1999/02/22-rdf-syntax-ns#"
   xmlns:svg="http://www.w3.org/2000/svg"
   xmlns="http://www.w3.org/2000/svg"
   xmlns:sodipodi="http://sodipodi.sourceforge.net/DTD/sodipodi-0.dtd"
   xmlns:inkscape="http://www.inkscape.org/namespaces/inkscape"
   width="346pt"
   height="145pt"
   viewBox="0 0 346 145"
   version="1.1"
   id="svg2197"
   sodipodi:docname="model_8s.gv.svg"
   inkscape:version="1.0.2 (e86c870, 2021-01-15)">
  <metadata
     id="metadata2203">
    <rdf:RDF>
      <cc:Work
         rdf:about="">
        <dc:format>image/svg+xml</dc:format>
        <dc:type
           rdf:resource="http://purl.org/dc/dcmitype/StillImage" />
        <dc:title></dc:title>
      </cc:Work>
    </rdf:RDF>
  </metadata>
  <defs
     id="defs2201" />
  <sodipodi:namedview
     pagecolor="#ffffff"
     bordercolor="#666666"
     borderopacity="1"
     objecttolerance="10"
     gridtolerance="10"
     guidetolerance="10"
     inkscape:pageopacity="0"
     inkscape:pageshadow="2"
     inkscape:window-width="1848"
     inkscape:window-height="1016"
     id="namedview2199"
     showgrid="false"
     inkscape:zoom="1.4174473"
     inkscape:cx="431.04136"
     inkscape:cy="96.666667"
     inkscape:window-x="72"
     inkscape:window-y="27"
     inkscape:window-maximized="1"
     inkscape:current-layer="svg2197" />
  <polygon
     fill="#ffffff"
     stroke="transparent"
     points="242,4 -4,4 -4,-141 242,-141 "
     id="polygon1995"
     transform="translate(4,141)" />
  <text
     text-anchor="middle"
     x="123"
     y="19.199997"
     font-family="Times, serif"
     font-size="14px"
     id="text1997">8 schools</text>
  <text
     text-anchor="middle"
     x="123"
     y="37.699997"
     font-family="Times, serif"
     font-size="14px"
     id="text2001">$\mu,\tau$</text>
  <text
     text-anchor="middle"
     x="11"
     y="87.699997"
     font-family="Times, serif"
     font-size="14px"
     id="text2006"
     style="font-size:8px">$\theta_1$</text>
  <path
     fill="none"
     stroke="#000000"
     d="M 115.99,38 C 98.47,45.51 52.38,65.27 27.5,75.93"
     id="path2011" />
  <polygon
     fill="#000000"
     stroke="#000000"
     points="21.82,-68.16 24.57,-61.72 14,-61 "
     id="polygon2013"
     transform="translate(4,141)" />
  <text
     text-anchor="middle"
     x="43"
     y="87.699997"
     font-family="Times, serif"
     font-size="14px"
     id="text2018"
     style="font-size:8px">$\theta_2$</text>
  <path
     fill="none"
     stroke="#000000"
     d="M 115.9,39.26 C 103.24,46.85 76.48,62.91 59.14,73.32"
     id="path2023" />
  <polygon
     fill="#000000"
     stroke="#000000"
     points="52.97,-70.47 56.57,-64.46 46.2,-62.32 "
     id="polygon2025"
     transform="translate(4,141)" />
  <text
     text-anchor="middle"
     x="75"
     y="87.699997"
     font-family="Times, serif"
     font-size="14px"
     id="text2030"
     style="font-size:8px">$\theta_3$</text>
  <path
     fill="none"
     stroke="#000000"
     d="M 116.72,41.28 C 109.57,48.43 97.67,60.33 88.4,69.6"
     id="path2035" />
  <polygon
     fill="#000000"
     stroke="#000000"
     points="81.72,-73.67 86.67,-68.72 77.12,-64.12 "
     id="polygon2037"
     transform="translate(4,141)" />
  <text
     text-anchor="middle"
     x="107"
     y="87.699997"
     font-family="Times, serif"
     font-size="14px"
     id="text2042"
     style="font-size:8px">$\theta_4$</text>
  <path
     fill="none"
     stroke="#000000"
     d="m 120.91,41.28 c -2.19,6.57 -5.72,17.16 -8.68,26.02"
     id="path2047" />
  <polygon
     fill="#000000"
     stroke="#000000"
     points="104.88,-74.72 111.52,-72.5 105.04,-64.12 "
     id="polygon2049"
     transform="translate(4,141)" />
  <text
     text-anchor="middle"
     x="139"
     y="87.699997"
     font-family="Times, serif"
     font-size="14px"
     id="text2054"
     style="font-size:8px">$\theta_5$</text>
  <path
     fill="none"
     stroke="#000000"
     d="m 125.09,41.28 c 2.19,6.57 5.72,17.16 8.68,26.02"
     id="path2059" />
  <polygon
     fill="#000000"
     stroke="#000000"
     points="126.48,-72.5 133.12,-74.72 132.96,-64.12 "
     id="polygon2061"
     transform="translate(4,141)" />
  <text
     text-anchor="middle"
     x="171"
     y="87.699997"
     font-family="Times, serif"
     font-size="14px"
     id="text2066"
     style="font-size:8px">$\theta_6$</text>
  <path
     fill="none"
     stroke="#000000"
     d="m 129.28,41.28 c 7.15,7.15 19.05,19.05 28.32,28.32"
     id="path2071" />
  <polygon
     fill="#000000"
     stroke="#000000"
     points="151.33,-68.72 156.28,-73.67 160.88,-64.12 "
     id="polygon2073"
     transform="translate(4,141)" />
  <text
     text-anchor="middle"
     x="203"
     y="87.699997"
     font-family="Times, serif"
     font-size="14px"
     id="text2078"
     style="font-size:8px">$\theta_7$</text>
  <path
     fill="none"
     stroke="#000000"
     d="m 130.1,39.26 c 12.66,7.59 39.42,23.65 56.76,34.06"
     id="path2083" />
  <polygon
     fill="#000000"
     stroke="#000000"
     points="181.43,-64.46 185.03,-70.47 191.8,-62.32 "
     id="polygon2085"
     transform="translate(4,141)" />
  <text
     text-anchor="middle"
     x="235"
     y="87.699997"
     font-family="Times, serif"
     font-size="14px"
     id="text2090"
     style="font-size:8px">$\theta_8$</text>
  <path
     fill="none"
     stroke="#000000"
     d="m 130.01,38 c 17.52,7.51 63.61,27.27 88.49,37.93"
     id="path2095" />
  <polygon
     fill="#000000"
     stroke="#000000"
     points="213.43,-61.72 216.18,-68.16 224,-61 "
     id="polygon2097"
     transform="translate(4,141)" />
  <text
     text-anchor="middle"
     x="11"
     y="137.7"
     font-family="Times, serif"
     font-size="14px"
     id="text2102"
     style="font-size:8px">$y_1$</text>
  <path
     fill="none"
     stroke="#000000"
     d="m 11,91.28 c 0,6.43 0,16.7 0,25.44"
     id="path2107" />
  <polygon
     fill="#000000"
     stroke="#000000"
     points="3.5,-24.12 10.5,-24.12 7,-14.12 "
     id="polygon2109"
     transform="translate(4,141)" />
  <text
     text-anchor="middle"
     x="43"
     y="137.7"
     font-family="Times, serif"
     font-size="14px"
     id="text2114"
     style="font-size:8px">$y_2$</text>
  <path
     fill="none"
     stroke="#000000"
     d="m 43,91.28 c 0,6.43 0,16.7 0,25.44"
     id="path2119" />
  <polygon
     fill="#000000"
     stroke="#000000"
     points="35.5,-24.12 42.5,-24.12 39,-14.12 "
     id="polygon2121"
     transform="translate(4,141)" />
  <text
     text-anchor="middle"
     x="75"
     y="137.7"
     font-family="Times, serif"
     font-size="14px"
     id="text2126"
     style="font-size:8px">$y_3$</text>
  <path
     fill="none"
     stroke="#000000"
     d="m 75,91.28 c 0,6.43 0,16.7 0,25.44"
     id="path2131" />
  <polygon
     fill="#000000"
     stroke="#000000"
     points="67.5,-24.12 74.5,-24.12 71,-14.12 "
     id="polygon2133"
     transform="translate(4,141)" />
  <text
     text-anchor="middle"
     x="107"
     y="137.7"
     font-family="Times, serif"
     font-size="14px"
     id="text2138"
     style="font-size:8px">$y_4$</text>
  <path
     fill="none"
     stroke="#000000"
     d="m 107,91.28 c 0,6.43 0,16.7 0,25.44"
     id="path2143" />
  <polygon
     fill="#000000"
     stroke="#000000"
     points="99.5,-24.12 106.5,-24.12 103,-14.12 "
     id="polygon2145"
     transform="translate(4,141)" />
  <text
     text-anchor="middle"
     x="139"
     y="137.7"
     font-family="Times, serif"
     font-size="14px"
     id="text2150"
     style="font-size:8px">$y_5$</text>
  <path
     fill="none"
     stroke="#000000"
     d="m 139,91.28 c 0,6.43 0,16.7 0,25.44"
     id="path2155" />
  <polygon
     fill="#000000"
     stroke="#000000"
     points="131.5,-24.12 138.5,-24.12 135,-14.12 "
     id="polygon2157"
     transform="translate(4,141)" />
  <text
     text-anchor="middle"
     x="171"
     y="137.7"
     font-family="Times, serif"
     font-size="14px"
     id="text2162"
     style="font-size:8px">$y_6$</text>
  <path
     fill="none"
     stroke="#000000"
     d="m 171,91.28 c 0,6.43 0,16.7 0,25.44"
     id="path2167" />
  <polygon
     fill="#000000"
     stroke="#000000"
     points="163.5,-24.12 170.5,-24.12 167,-14.12 "
     id="polygon2169"
     transform="translate(4,141)" />
  <text
     text-anchor="middle"
     x="203"
     y="137.7"
     font-family="Times, serif"
     font-size="14px"
     id="text2174"
     style="font-size:8px">$y_7$</text>
  <path
     fill="none"
     stroke="#000000"
     d="m 203,91.28 c 0,6.43 0,16.7 0,25.44"
     id="path2179" />
  <polygon
     fill="#000000"
     stroke="#000000"
     points="195.5,-24.12 202.5,-24.12 199,-14.12 "
     id="polygon2181"
     transform="translate(4,141)" />
  <text
     text-anchor="middle"
     x="235"
     y="137.7"
     font-family="Times, serif"
     font-size="14px"
     id="text2186"
     style="font-size:8px">$y_8$</text>
  <path
     fill="none"
     stroke="#000000"
     d="m 235,91.28 c 0,6.43 0,16.7 0,25.44"
     id="path2191" />
  <polygon
     fill="#000000"
     stroke="#000000"
     points="227.5,-24.12 234.5,-24.12 231,-14.12 "
     id="polygon2193"
     transform="translate(4,141)" />
  <text
     xml:space="preserve"
     style="font-size:10px;line-height:1.25;font-family:sans-serif;stroke-width:0.75"
     x="256.54675"
     y="80.434616"
     id="text2373"><tspan
       sodipodi:role="line"
       id="tspan2371"
       x="256.54675"
       y="80.434616"
       style="font-size:10px;stroke-width:0.75">$\mu \sim  Uniform(0,K_1)$</tspan><tspan
       sodipodi:role="line"
       x="256.54675"
       y="92.934616"
       style="font-size:10px;stroke-width:0.75"
       id="tspan2375">$\tau \sim  Uniform(0,K_2)$</tspan><tspan
       sodipodi:role="line"
       x="256.54675"
       y="105.43462"
       style="font-size:10px;stroke-width:0.75"
       id="tspan2377">$\theta_j \sim  Normal(\mu, \tau)$</tspan><tspan
       sodipodi:role="line"
       x="256.54675"
       y="117.93462"
       style="font-size:10px;stroke-width:0.75"
       id="tspan2379">$y_j \sim  Normal(\theta_j, \sigma^2_{j \; data})$</tspan></text>
</svg>
