<?xml version="1.0" encoding="utf-8" standalone="no"?>
<!DOCTYPE svg PUBLIC "-//W3C//DTD SVG 1.1//EN"
  "http://www.w3.org/Graphics/SVG/1.1/DTD/svg11.dtd">
<!-- Created with matplotlib (https://matplotlib.org/) -->
<svg height="576pt" version="1.1" viewBox="0 0 576 576" width="576pt" xmlns="http://www.w3.org/2000/svg" xmlns:xlink="http://www.w3.org/1999/xlink">
 <metadata>
  <rdf:RDF xmlns:cc="http://creativecommons.org/ns#" xmlns:dc="http://purl.org/dc/elements/1.1/" xmlns:rdf="http://www.w3.org/1999/02/22-rdf-syntax-ns#">
   <cc:Work>
    <dc:type rdf:resource="http://purl.org/dc/dcmitype/StillImage"/>
    <dc:date>2021-04-09T09:29:27.175119</dc:date>
    <dc:format>image/svg+xml</dc:format>
    <dc:creator>
     <cc:Agent>
      <dc:title>Matplotlib v3.3.3, https://matplotlib.org/</dc:title>
     </cc:Agent>
    </dc:creator>
   </cc:Work>
  </rdf:RDF>
 </metadata>
 <defs>
  <style type="text/css">*{stroke-linecap:butt;stroke-linejoin:round;}</style>
 </defs>
 <g id="figure_1">
  <g id="patch_1">
   <path d="M 0 576 
L 576 576 
L 576 0 
L 0 0 
z
" style="fill:none;"/>
  </g>
  <g id="axes_1">
   <g id="patch_2">
    <path d="M 21.8 258.35 
L 554.1375 258.35 
L 554.1375 31.8 
L 21.8 31.8 
z
" style="fill:#ffffff;"/>
   </g>
   <g id="matplotlib.axis_1">
    <g id="xtick_1">
     <g id="line2d_1">
      <defs>
       <path d="M 0 0 
L 0 3.5 
" id="m3cbb7642a7" style="stroke:#000000;stroke-width:0.8;"/>
      </defs>
      <g>
       <use style="stroke:#000000;stroke-width:0.8;" x="21.8" xlink:href="#m3cbb7642a7" y="258.35"/>
      </g>
     </g>
    </g>
    <g id="xtick_2">
     <g id="line2d_2">
      <g>
       <use style="stroke:#000000;stroke-width:0.8;" x="128.2675" xlink:href="#m3cbb7642a7" y="258.35"/>
      </g>
     </g>
    </g>
    <g id="xtick_3">
     <g id="line2d_3">
      <g>
       <use style="stroke:#000000;stroke-width:0.8;" x="234.735" xlink:href="#m3cbb7642a7" y="258.35"/>
      </g>
     </g>
    </g>
    <g id="xtick_4">
     <g id="line2d_4">
      <g>
       <use style="stroke:#000000;stroke-width:0.8;" x="341.2025" xlink:href="#m3cbb7642a7" y="258.35"/>
      </g>
     </g>
    </g>
    <g id="xtick_5">
     <g id="line2d_5">
      <g>
       <use style="stroke:#000000;stroke-width:0.8;" x="447.67" xlink:href="#m3cbb7642a7" y="258.35"/>
      </g>
     </g>
    </g>
    <g id="xtick_6">
     <g id="line2d_6">
      <g>
       <use style="stroke:#000000;stroke-width:0.8;" x="554.1375" xlink:href="#m3cbb7642a7" y="258.35"/>
      </g>
     </g>
    </g>
   </g>
   <g id="matplotlib.axis_2"/>
   <g id="line2d_7">
    <path clip-path="url(#p82d436def7)" d="M 21.966199 42.69079 
L 22.579326 43.051262 
L 23.192453 43.847744 
L 23.80558 45.107493 
L 24.72527 47.711245 
L 25.951524 52.271523 
L 27.177777 57.72843 
L 29.323721 68.436372 
L 31.776228 81.924618 
L 33.615609 93.262664 
L 35.761552 107.954893 
L 40.05344 137.802941 
L 41.586257 146.993336 
L 43.119074 154.922053 
L 44.345327 160.297438 
L 45.878144 165.994803 
L 47.717525 171.914918 
L 51.396286 183.76301 
L 53.848793 191.872804 
L 55.075046 195.327477 
L 56.3013 198.18825 
L 57.527554 200.497871 
L 59.673497 203.863665 
L 61.512878 206.82814 
L 63.352258 210.252932 
L 66.111329 215.410955 
L 67.337582 217.248493 
L 68.870399 219.123761 
L 71.936033 222.356511 
L 76.534484 227.262736 
L 77.760738 229.045668 
L 79.906682 232.685591 
L 81.746062 235.634525 
L 82.972316 237.278653 
L 84.505133 238.917224 
L 85.731386 239.908185 
L 86.95764 240.582612 
L 88.183893 240.995783 
L 90.636401 241.751028 
L 91.556091 242.277588 
L 92.475781 243.013899 
L 93.702034 244.281308 
L 97.380795 248.370605 
L 98.607049 249.29742 
L 99.833302 249.924535 
L 101.366119 250.40771 
L 108.110514 251.983076 
L 111.176148 253.102746 
L 113.935219 254.086538 
L 115.774599 254.491355 
L 125.278064 255.876249 
L 136.007783 256.248087 
L 141.832488 256.867616 
L 146.430939 257.214147 
L 151.335953 257.588004 
L 158.386911 257.870685 
L 161.759109 257.750387 
L 164.824743 257.687135 
L 167.583813 257.91277 
L 171.262574 258.228901 
L 174.021645 258.23022 
L 178.620096 258.054589 
L 178.620096 258.054589 
" style="fill:none;stroke:#0000ff;stroke-linecap:square;stroke-width:1.5;"/>
   </g>
   <g id="line2d_8">
    <path clip-path="url(#p82d436def7)" d="M 21.966199 260.506592 
L 21.966199 42.69079 
" style="fill:none;stroke:#0000ff;stroke-linecap:square;stroke-width:1.5;"/>
   </g>
   <g id="line2d_9">
    <path clip-path="url(#p82d436def7)" d="M 178.620096 258.352954 
L 178.620096 258.054589 
" style="fill:none;stroke:#0000ff;stroke-linecap:square;stroke-width:1.5;"/>
   </g>
   <g id="line2d_10">
    <defs>
     <path d="M 0 3 
C 0.795609 3 1.55874 2.683901 2.12132 2.12132 
C 2.683901 1.55874 3 0.795609 3 0 
C 3 -0.795609 2.683901 -1.55874 2.12132 -2.12132 
C 1.55874 -2.683901 0.795609 -3 0 -3 
C -0.795609 -3 -1.55874 -2.683901 -2.12132 -2.12132 
C -2.683901 -1.55874 -3 -0.795609 -3 0 
C -3 0.795609 -2.683901 1.55874 -2.12132 2.12132 
C -1.55874 2.683901 -0.795609 3 0 3 
z
" id="md9d1beb780" style="stroke:#000000;"/>
    </defs>
    <g clip-path="url(#p82d436def7)">
     <use style="fill:#0000ff;stroke:#000000;" x="45.500082" xlink:href="#md9d1beb780" y="258.35"/>
    </g>
   </g>
   <g id="line2d_11">
    <path clip-path="url(#p82d436def7)" d="M 21.990757 62.255877 
L 22.372099 62.333772 
L 22.753441 62.538128 
L 23.516126 63.359586 
L 24.278811 64.639616 
L 25.422838 67.294234 
L 26.948207 71.755088 
L 28.092235 75.734084 
L 29.236262 80.324776 
L 30.761631 87.640681 
L 32.668343 98.330036 
L 35.719082 115.720206 
L 38.007136 127.048757 
L 42.583245 147.76409 
L 44.871299 157.408201 
L 46.396668 162.951541 
L 47.922038 167.669023 
L 49.82875 172.809976 
L 52.116804 178.985354 
L 54.023516 184.800745 
L 57.455597 195.584744 
L 58.599624 198.561812 
L 59.743651 201.021112 
L 61.269021 203.64243 
L 64.701102 209.138447 
L 66.607814 212.768893 
L 69.27721 217.779425 
L 73.090634 224.201935 
L 75.760031 228.487739 
L 77.2854 230.551099 
L 78.81077 232.255496 
L 85.29359 238.580093 
L 86.818959 239.702316 
L 87.962987 240.315181 
L 89.488356 240.859005 
L 93.30178 242.051591 
L 94.827149 242.785035 
L 97.496546 244.347413 
L 106.648763 250.000244 
L 108.555474 250.773981 
L 110.843529 251.450931 
L 112.75024 251.763144 
L 114.656952 251.831055 
L 119.995746 251.712283 
L 121.521115 252.037644 
L 123.046484 252.597586 
L 128.385278 254.910628 
L 129.910647 255.253932 
L 140.206891 256.870302 
L 142.876288 256.835032 
L 146.308369 256.822232 
L 150.503135 257.101507 
L 159.27401 257.6566 
L 169.951596 257.924581 
L 179.485155 258.066928 
L 187.493345 257.850344 
L 191.306769 258.082393 
L 195.882877 258.314718 
L 203.128382 258.35 
L 212.280599 258.245122 
L 216.856707 258.077692 
L 216.856707 258.077692 
" style="fill:none;stroke:#0000ff;stroke-linecap:square;stroke-width:1.5;"/>
   </g>
   <g id="line2d_12">
    <path clip-path="url(#p82d436def7)" d="M 21.990757 260.310941 
L 21.990757 62.255877 
" style="fill:none;stroke:#0000ff;stroke-linecap:square;stroke-width:1.5;"/>
   </g>
   <g id="line2d_13">
    <path clip-path="url(#p82d436def7)" d="M 216.856707 258.352723 
L 216.856707 258.077692 
" style="fill:none;stroke:#0000ff;stroke-linecap:square;stroke-width:1.5;"/>
   </g>
   <g id="line2d_14">
    <g clip-path="url(#p82d436def7)">
     <use style="fill:#0000ff;stroke:#000000;" x="47.495475" xlink:href="#md9d1beb780" y="258.35"/>
    </g>
   </g>
   <g id="line2d_15">
    <path clip-path="url(#p82d436def7)" d="M 22.621018 229.851563 
L 23.013056 229.78458 
L 23.405095 229.536782 
L 24.189172 228.586258 
L 24.973248 227.042468 
L 25.757325 224.993887 
L 26.93344 221.11896 
L 28.501593 214.95582 
L 33.206054 195.761963 
L 35.166245 188.963294 
L 37.518475 181.653523 
L 39.870705 174.957418 
L 41.438859 171.061778 
L 42.614974 168.626068 
L 43.791089 166.815583 
L 44.575166 165.989632 
L 45.359242 165.441705 
L 46.143319 165.184988 
L 46.927396 165.133697 
L 48.103511 165.395183 
L 52.023894 166.723466 
L 54.376124 167.319007 
L 55.552239 167.933634 
L 56.728354 168.955013 
L 57.904469 170.434969 
L 59.472623 172.981707 
L 62.216891 177.720602 
L 63.785045 179.977437 
L 65.353198 181.822726 
L 69.273582 186.322208 
L 75.546195 194.097818 
L 78.290464 196.896135 
L 84.563077 202.868147 
L 86.915307 205.568796 
L 89.267537 208.610272 
L 92.795883 213.572077 
L 95.540151 217.274858 
L 97.108304 219.082263 
L 99.068496 220.975093 
L 104.164995 225.538714 
L 107.301301 229.069759 
L 110.437608 232.504132 
L 114.357992 236.261911 
L 118.278375 239.768888 
L 120.630605 241.549639 
L 122.982835 243.038662 
L 125.727104 244.464339 
L 129.647487 246.117356 
L 132.391756 247.37598 
L 137.488254 249.865241 
L 139.448446 250.485423 
L 142.584753 251.101344 
L 146.897175 251.980951 
L 151.601635 253.250521 
L 154.345903 253.84348 
L 156.698133 254.105223 
L 162.578709 254.616022 
L 167.675207 255.536502 
L 171.987629 256.214197 
L 175.908012 256.589304 
L 183.748779 257.111874 
L 192.373623 257.166321 
L 195.901968 257.289452 
L 199.038275 257.12022 
L 202.174582 256.977092 
L 204.526812 257.114138 
L 213.543694 257.991508 
L 217.464077 257.968185 
L 222.952614 257.822524 
L 222.952614 257.822524 
" style="fill:none;stroke:#0000ff;stroke-linecap:square;stroke-width:1.5;"/>
   </g>
   <g id="line2d_16">
    <path clip-path="url(#p82d436def7)" d="M 22.621018 258.634984 
L 22.621018 229.851563 
" style="fill:none;stroke:#0000ff;stroke-linecap:square;stroke-width:1.5;"/>
   </g>
   <g id="line2d_17">
    <path clip-path="url(#p82d436def7)" d="M 222.952614 258.355275 
L 222.952614 257.822524 
" style="fill:none;stroke:#0000ff;stroke-linecap:square;stroke-width:1.5;"/>
   </g>
   <g id="line2d_18">
    <g clip-path="url(#p82d436def7)">
     <use style="fill:#0000ff;stroke:#000000;" x="69.821026" xlink:href="#md9d1beb780" y="258.35"/>
    </g>
   </g>
   <g id="line2d_19">
    <path clip-path="url(#p82d436def7)" d="M 22.170584 236.308688 
L 22.697085 236.183094 
L 23.223586 235.852387 
L 23.750088 235.302472 
L 24.80309 233.615189 
L 25.856093 231.172 
L 26.909095 228.156195 
L 28.488599 222.813991 
L 31.647606 210.833502 
L 34.280112 201.092297 
L 35.859616 195.893503 
L 37.43912 191.438228 
L 38.492122 188.936348 
L 39.545125 186.854586 
L 40.598127 185.162211 
L 41.651129 183.833662 
L 42.704132 182.809165 
L 43.757134 182.042743 
L 45.336638 181.190884 
L 48.495645 179.876286 
L 53.760658 177.836499 
L 55.340161 177.533277 
L 56.919665 177.566164 
L 58.499169 177.939919 
L 60.078672 178.581711 
L 62.184677 179.719195 
L 64.290682 181.016387 
L 66.396687 182.581801 
L 67.976191 184.069456 
L 69.555695 185.926595 
L 71.135198 188.09469 
L 73.767704 192.178772 
L 77.453213 197.798619 
L 79.032717 199.867435 
L 80.61222 201.607378 
L 82.718225 203.542309 
L 86.403734 206.648154 
L 88.509739 208.803796 
L 91.668746 212.420166 
L 94.301252 215.37319 
L 95.880756 216.871535 
L 97.46026 218.091605 
L 99.039763 219.049244 
L 103.251773 221.34705 
L 104.831277 222.607896 
L 106.410781 224.211355 
L 110.62279 228.892649 
L 112.202294 230.160703 
L 113.255297 230.752819 
L 114.308299 231.130015 
L 115.887803 231.414613 
L 119.04681 231.806463 
L 120.099813 232.13914 
L 121.152815 232.652912 
L 122.205817 233.355217 
L 123.785321 234.713377 
L 128.523832 239.231059 
L 130.629837 240.782238 
L 132.735842 242.034108 
L 134.841847 243.028217 
L 136.947852 243.739587 
L 139.053857 244.132772 
L 142.739365 244.695048 
L 144.318869 245.181801 
L 145.898373 245.881369 
L 152.742889 249.267007 
L 154.848894 249.875431 
L 157.4814 250.367622 
L 160.640407 250.963474 
L 163.272913 251.744104 
L 170.117429 254.066067 
L 173.276437 254.794056 
L 176.961945 255.410359 
L 181.700456 255.889086 
L 198.021994 257.188399 
L 201.707503 257.19412 
L 208.552019 257.212064 
L 216.449537 257.462506 
L 230.665071 258.149996 
L 235.403582 258.205688 
L 253.831125 258.050177 
L 266.993655 258.273385 
L 276.997179 258.35 
L 287.000702 258.224686 
L 291.212712 258.138388 
L 291.212712 258.138388 
" style="fill:none;stroke:#0000ff;stroke-linecap:square;stroke-width:1.5;"/>
   </g>
   <g id="line2d_20">
    <path clip-path="url(#p82d436def7)" d="M 22.170584 258.570413 
L 22.170584 236.308688 
" style="fill:none;stroke:#0000ff;stroke-linecap:square;stroke-width:1.5;"/>
   </g>
   <g id="line2d_21">
    <path clip-path="url(#p82d436def7)" d="M 291.212712 258.352116 
L 291.212712 258.138388 
" style="fill:none;stroke:#0000ff;stroke-linecap:square;stroke-width:1.5;"/>
   </g>
   <g id="line2d_22">
    <g clip-path="url(#p82d436def7)">
     <use style="fill:#0000ff;stroke:#000000;" x="76.040855" xlink:href="#md9d1beb780" y="258.35"/>
    </g>
   </g>
   <g id="line2d_23">
    <path clip-path="url(#p82d436def7)" d="M 25.359716 250.364647 
L 26.493761 250.153155 
L 27.627805 249.641002 
L 28.761849 248.853686 
L 29.895894 247.789738 
L 31.029938 246.4737 
L 32.731005 244.047109 
L 34.432072 241.154723 
L 36.700161 236.786359 
L 44.07145 222.070776 
L 47.473583 216.065008 
L 50.308694 211.413442 
L 52.576783 207.989817 
L 54.844872 204.921517 
L 57.679983 201.549285 
L 61.082116 197.918723 
L 63.917228 195.193795 
L 65.618294 193.809916 
L 67.319361 192.679022 
L 69.020428 191.861546 
L 70.721494 191.313427 
L 72.989583 190.887124 
L 79.226828 189.957938 
L 82.628961 189.403118 
L 84.330028 189.367861 
L 85.464072 189.543321 
L 86.598117 189.908114 
L 87.732161 190.478449 
L 88.866205 191.2984 
L 90.00025 192.34042 
L 91.701317 194.253434 
L 97.938561 201.883989 
L 99.639628 203.415299 
L 101.340694 204.691541 
L 104.175806 206.495376 
L 109.279006 209.745883 
L 114.382206 213.304354 
L 118.351361 216.378761 
L 124.021584 220.885092 
L 127.423717 223.219559 
L 131.959895 225.964982 
L 134.795006 227.756874 
L 137.630117 229.825161 
L 140.465228 232.232305 
L 146.702473 237.781837 
L 148.970561 239.477237 
L 151.23865 240.886082 
L 154.073762 242.349978 
L 157.475895 243.804602 
L 162.012073 245.476577 
L 167.115273 247.028047 
L 172.218473 248.663937 
L 180.723806 251.549548 
L 184.692962 252.522653 
L 189.796162 253.472803 
L 196.600428 254.515532 
L 201.136606 254.919687 
L 206.239806 255.357836 
L 210.208962 255.993547 
L 215.312162 256.86066 
L 218.714295 257.171016 
L 222.116429 257.247502 
L 230.05474 257.314547 
L 235.15794 257.678247 
L 240.828162 258.03982 
L 247.065407 258.16955 
L 308.303807 258.265317 
L 315.108074 258.179308 
L 315.108074 258.179308 
" style="fill:none;stroke:#0000ff;stroke-linecap:square;stroke-width:1.5;"/>
   </g>
   <g id="line2d_24">
    <path clip-path="url(#p82d436def7)" d="M 25.359716 258.429854 
L 25.359716 250.364647 
" style="fill:none;stroke:#0000ff;stroke-linecap:square;stroke-width:1.5;"/>
   </g>
   <g id="line2d_25">
    <path clip-path="url(#p82d436def7)" d="M 315.108074 258.351707 
L 315.108074 258.179308 
" style="fill:none;stroke:#0000ff;stroke-linecap:square;stroke-width:1.5;"/>
   </g>
   <g id="line2d_26">
    <g clip-path="url(#p82d436def7)">
     <use style="fill:#0000ff;stroke:#000000;" x="94.643565" xlink:href="#md9d1beb780" y="258.35"/>
    </g>
   </g>
   <g id="line2d_27">
    <path clip-path="url(#p82d436def7)" d="M 28.847797 256.949463 
L 30.147682 256.820525 
L 31.772538 256.382031 
L 33.072423 255.787129 
L 34.372308 254.934672 
L 35.672192 253.819428 
L 36.972077 252.440199 
L 38.596933 250.301136 
L 40.221789 247.74065 
L 42.171616 244.171859 
L 44.446415 239.41714 
L 46.071271 235.608083 
L 47.696127 231.313507 
L 49.320982 226.352599 
L 50.945838 220.686222 
L 53.545608 210.655564 
L 56.145377 200.763385 
L 58.095205 194.140242 
L 60.045032 188.295451 
L 61.994859 183.195227 
L 63.619715 179.431167 
L 65.569542 175.456819 
L 67.84434 171.407285 
L 71.743995 164.990161 
L 74.343764 161.00418 
L 75.96862 158.926648 
L 76.943534 157.974033 
L 77.918447 157.301391 
L 78.893361 156.949687 
L 79.868274 156.935467 
L 80.518217 157.111766 
L 81.49313 157.662502 
L 82.468044 158.498679 
L 83.767929 159.948771 
L 87.667583 164.5125 
L 88.967468 165.575975 
L 91.242266 167.058587 
L 92.21718 167.764425 
L 93.192093 168.704772 
L 94.167007 169.956977 
L 95.14192 171.581066 
L 96.441805 174.285915 
L 98.066661 178.310555 
L 102.941229 190.945045 
L 105.86597 197.529421 
L 111.39048 209.302485 
L 113.340307 212.849858 
L 115.290134 215.899234 
L 120.164702 223.026513 
L 123.089443 227.808027 
L 125.364241 231.369709 
L 126.989097 233.564213 
L 128.613953 235.405839 
L 130.56378 237.282092 
L 134.463434 240.577 
L 137.388175 242.84906 
L 139.662973 244.297882 
L 141.937772 245.46404 
L 146.812339 247.796839 
L 151.686907 250.514037 
L 155.911533 252.714394 
L 159.161245 254.1843 
L 161.436043 254.981655 
L 164.035813 255.645098 
L 168.91038 256.595758 
L 172.810035 257.12643 
L 179.63443 257.755298 
L 184.184026 258.030745 
L 188.408652 258.097313 
L 194.908076 257.924651 
L 194.908076 257.924651 
" style="fill:none;stroke:#0000ff;stroke-linecap:square;stroke-width:1.5;"/>
   </g>
   <g id="line2d_28">
    <path clip-path="url(#p82d436def7)" d="M 28.847797 258.364005 
L 28.847797 256.949463 
" style="fill:none;stroke:#0000ff;stroke-linecap:square;stroke-width:1.5;"/>
   </g>
   <g id="line2d_29">
    <path clip-path="url(#p82d436def7)" d="M 194.908076 258.354253 
L 194.908076 257.924651 
" style="fill:none;stroke:#0000ff;stroke-linecap:square;stroke-width:1.5;"/>
   </g>
   <g id="line2d_30">
    <g clip-path="url(#p82d436def7)">
     <use style="fill:#0000ff;stroke:#000000;" x="87.622109" xlink:href="#md9d1beb780" y="258.35"/>
    </g>
   </g>
   <g id="line2d_31">
    <path clip-path="url(#p82d436def7)" d="M 45.718858 257.42053 
L 49.123532 257.300618 
L 51.555443 257.028021 
L 53.987353 256.559508 
L 56.905645 255.748233 
L 59.823938 254.708176 
L 62.255848 253.610895 
L 64.201376 252.495633 
L 66.146905 251.124634 
L 68.092433 249.47364 
L 70.037961 247.550689 
L 72.469872 244.777982 
L 74.901782 241.599492 
L 77.820074 237.328294 
L 89.493244 219.509286 
L 91.925154 215.326371 
L 94.843447 209.805904 
L 97.761739 203.767268 
L 102.62556 193.705329 
L 104.571088 190.254891 
L 106.516616 187.313571 
L 108.462144 184.862608 
L 110.407673 182.779507 
L 112.353201 180.920118 
L 115.271493 178.460414 
L 118.189786 176.270478 
L 121.108078 174.381766 
L 122.567224 173.611431 
L 124.02637 173.115021 
L 124.999135 172.977955 
L 125.971899 173.06188 
L 126.944663 173.386779 
L 127.917427 173.965955 
L 128.890191 174.829141 
L 129.862955 175.92371 
L 131.322101 177.969098 
L 133.754012 182.033891 
L 137.158686 187.827948 
L 139.590597 191.510221 
L 144.454417 198.175031 
L 148.831856 204.422689 
L 151.263766 207.749976 
L 153.209294 210.07002 
L 155.154823 212.008766 
L 160.991407 217.384394 
L 162.936936 219.663195 
L 165.855228 223.542333 
L 169.746285 228.789749 
L 172.664577 232.312552 
L 175.582869 235.426207 
L 179.473926 239.188892 
L 182.392218 241.787631 
L 184.824129 243.690237 
L 187.256039 245.303572 
L 190.660713 247.232827 
L 199.901973 252.08546 
L 201.847501 252.774184 
L 204.279411 253.386684 
L 214.007053 255.472185 
L 217.898109 256.290399 
L 222.275548 256.964535 
L 226.166604 257.353668 
L 230.057661 257.534653 
L 243.189976 257.867445 
L 249.999325 258.26262 
L 256.322292 258.346805 
L 284.532452 258.319891 
L 294.260093 258.162074 
L 294.260093 258.162074 
" style="fill:none;stroke:#0000ff;stroke-linecap:square;stroke-width:1.5;"/>
   </g>
   <g id="line2d_32">
    <path clip-path="url(#p82d436def7)" d="M 45.718858 258.359295 
L 45.718858 257.42053 
" style="fill:none;stroke:#0000ff;stroke-linecap:square;stroke-width:1.5;"/>
   </g>
   <g id="line2d_33">
    <path clip-path="url(#p82d436def7)" d="M 294.260093 258.351879 
L 294.260093 258.162074 
" style="fill:none;stroke:#0000ff;stroke-linecap:square;stroke-width:1.5;"/>
   </g>
   <g id="line2d_34">
    <g clip-path="url(#p82d436def7)">
     <use style="fill:#0000ff;stroke:#000000;" x="128.247597" xlink:href="#md9d1beb780" y="258.35"/>
    </g>
   </g>
   <g id="line2d_35">
    <path clip-path="url(#p82d436def7)" d="M 41.604318 255.105691 
L 44.007438 255.012659 
L 46.410557 254.721182 
L 48.813676 254.246864 
L 51.817575 253.376878 
L 54.220695 252.47565 
L 57.224594 251.111674 
L 60.228493 249.503269 
L 63.833172 247.287957 
L 67.437851 244.749559 
L 70.44175 242.383899 
L 74.046429 239.250083 
L 78.852668 234.705441 
L 89.065925 224.856924 
L 93.271384 221.125644 
L 96.876063 218.253278 
L 99.879962 216.138826 
L 103.484641 213.944729 
L 107.08932 212.085793 
L 111.895559 209.888566 
L 121.508036 205.746053 
L 123.911156 204.917712 
L 126.314275 204.328816 
L 128.717394 204.020159 
L 131.120514 204.010253 
L 133.523633 204.260514 
L 135.926753 204.755135 
L 138.930652 205.633318 
L 141.934551 206.80044 
L 145.53923 208.501913 
L 156.353267 213.982012 
L 160.558726 215.715413 
L 167.768084 218.583589 
L 171.372763 220.323098 
L 174.376662 222.029393 
L 178.582121 224.736446 
L 184.589919 228.698895 
L 188.194598 230.80567 
L 191.799277 232.630485 
L 197.807076 235.308594 
L 208.621113 239.742458 
L 221.838269 244.977569 
L 227.846067 247.289663 
L 232.652306 248.902107 
L 236.857765 250.110429 
L 241.063224 251.101365 
L 246.470242 252.15481 
L 265.695197 255.635146 
L 271.702996 256.317426 
L 280.714693 257.068542 
L 289.125611 257.553597 
L 296.935749 257.756623 
L 343.195796 258.243927 
L 348.602815 258.221934 
L 348.602815 258.221934 
" style="fill:none;stroke:#0000ff;stroke-linecap:square;stroke-width:1.5;"/>
   </g>
   <g id="line2d_36">
    <path clip-path="url(#p82d436def7)" d="M 41.604318 258.382443 
L 41.604318 255.105691 
" style="fill:none;stroke:#0000ff;stroke-linecap:square;stroke-width:1.5;"/>
   </g>
   <g id="line2d_37">
    <path clip-path="url(#p82d436def7)" d="M 348.602815 258.351281 
L 348.602815 258.221934 
" style="fill:none;stroke:#0000ff;stroke-linecap:square;stroke-width:1.5;"/>
   </g>
   <g id="line2d_38">
    <g clip-path="url(#p82d436def7)">
     <use style="fill:#0000ff;stroke:#000000;" x="143.302306" xlink:href="#md9d1beb780" y="258.35"/>
    </g>
   </g>
   <g id="line2d_39">
    <path clip-path="url(#p82d436def7)" d="M 63.328698 257.610669 
L 69.081505 257.506848 
L 71.957908 257.250953 
L 74.35491 256.838057 
L 76.751913 256.207943 
L 79.148916 255.339495 
L 81.545918 254.228955 
L 83.942921 252.856675 
L 86.339923 251.236403 
L 89.216327 249.015222 
L 93.051531 245.770924 
L 96.407334 242.673321 
L 98.804337 240.168882 
L 101.201339 237.339195 
L 103.598342 234.135388 
L 106.474745 229.890704 
L 109.830549 224.53929 
L 115.103955 215.56669 
L 118.459758 210.03586 
L 120.856761 206.501765 
L 122.774363 204.026123 
L 125.171365 201.303206 
L 132.362373 193.617963 
L 135.718177 189.866462 
L 137.635779 188.050424 
L 139.07398 187.014318 
L 140.512182 186.310863 
L 141.470983 186.031739 
L 142.909185 185.880281 
L 144.347386 186.008761 
L 146.264988 186.486129 
L 150.100192 187.818219 
L 158.250001 190.855031 
L 161.126404 192.258612 
L 165.441009 194.696951 
L 168.317412 196.573163 
L 170.714415 198.381531 
L 173.111417 200.496828 
L 175.50842 202.940379 
L 178.864224 206.780044 
L 191.328637 221.63926 
L 194.684441 225.320125 
L 198.040244 228.727337 
L 201.396048 231.858252 
L 205.710653 235.594255 
L 210.025257 239.031037 
L 216.257464 243.624641 
L 221.53087 247.22991 
L 224.407273 248.943444 
L 227.283676 250.379117 
L 230.160079 251.531487 
L 234.474684 252.972184 
L 240.70689 254.811139 
L 244.062694 255.527885 
L 247.418498 255.989585 
L 253.171304 256.485613 
L 259.882911 257.115151 
L 266.115118 257.645661 
L 270.909123 257.836984 
L 295.83795 258.329938 
L 308.302364 258.186974 
L 308.302364 258.186974 
" style="fill:none;stroke:#0000ff;stroke-linecap:square;stroke-width:1.5;"/>
   </g>
   <g id="line2d_40">
    <path clip-path="url(#p82d436def7)" d="M 63.328698 258.357393 
L 63.328698 257.610669 
" style="fill:none;stroke:#0000ff;stroke-linecap:square;stroke-width:1.5;"/>
   </g>
   <g id="line2d_41">
    <path clip-path="url(#p82d436def7)" d="M 308.302364 258.35163 
L 308.302364 258.186974 
" style="fill:none;stroke:#0000ff;stroke-linecap:square;stroke-width:1.5;"/>
   </g>
   <g id="line2d_42">
    <g clip-path="url(#p82d436def7)">
     <use style="fill:#0000ff;stroke:#000000;" x="154.543302" xlink:href="#md9d1beb780" y="258.35"/>
    </g>
   </g>
   <g id="line2d_43">
    <path clip-path="url(#p82d436def7)" d="M 54.048279 257.410708 
L 60.698392 257.308376 
L 66.683493 256.993626 
L 72.003582 256.483671 
L 75.99365 255.91959 
L 79.983717 255.159046 
L 83.973785 254.170688 
L 87.963852 252.939157 
L 91.953919 251.454373 
L 95.943987 249.688836 
L 99.934054 247.627339 
L 103.924121 245.277023 
L 118.554368 236.261284 
L 123.209447 233.794938 
L 138.504705 226.016269 
L 143.824795 223.289429 
L 147.149851 221.840939 
L 150.474907 220.642115 
L 155.794997 219.077225 
L 161.780098 217.258321 
L 175.080323 212.807784 
L 178.405379 212.016661 
L 182.395446 211.301256 
L 185.720502 210.917346 
L 189.045558 210.754002 
L 191.705603 210.823559 
L 194.365648 211.115564 
L 197.025693 211.637709 
L 199.685738 212.390234 
L 202.345783 213.339903 
L 205.670839 214.754903 
L 209.660906 216.714167 
L 214.980996 219.604892 
L 225.621176 225.490735 
L 232.271288 228.788784 
L 242.246456 233.466128 
L 252.221625 237.921435 
L 257.541715 239.997026 
L 261.531782 241.29323 
L 267.516883 242.968965 
L 272.836973 244.546856 
L 278.822074 246.642666 
L 284.142164 248.494623 
L 288.132231 249.633932 
L 292.122298 250.511463 
L 299.437422 251.791036 
L 316.727714 254.673765 
L 322.712815 255.340195 
L 338.008073 256.716245 
L 346.653219 257.371419 
L 355.298365 257.767237 
L 367.933578 258.085189 
L 381.898814 258.2262 
L 393.869016 258.221993 
L 393.869016 258.221993 
" style="fill:none;stroke:#0000ff;stroke-linecap:square;stroke-width:1.5;"/>
   </g>
   <g id="line2d_44">
    <path clip-path="url(#p82d436def7)" d="M 54.048279 258.359393 
L 54.048279 257.410708 
" style="fill:none;stroke:#0000ff;stroke-linecap:square;stroke-width:1.5;"/>
   </g>
   <g id="line2d_45">
    <path clip-path="url(#p82d436def7)" d="M 393.869016 258.35128 
L 393.869016 258.221993 
" style="fill:none;stroke:#0000ff;stroke-linecap:square;stroke-width:1.5;"/>
   </g>
   <g id="line2d_46">
    <g clip-path="url(#p82d436def7)">
     <use style="fill:#0000ff;stroke:#000000;" x="190.197938" xlink:href="#md9d1beb780" y="258.35"/>
    </g>
   </g>
   <g id="line2d_47"/>
   <g id="line2d_48"/>
   <g id="line2d_49"/>
   <g id="line2d_50"/>
   <g id="line2d_51"/>
   <g id="line2d_52"/>
   <g id="line2d_53"/>
   <g id="line2d_54"/>
   <g id="line2d_55"/>
   <g id="line2d_56"/>
   <g id="patch_3">
    <path d="M 21.8 258.35 
L 554.1375 258.35 
" style="fill:none;stroke:#000000;stroke-linecap:square;stroke-linejoin:miter;stroke-width:0.8;"/>
   </g>
   <g id="text_1">
    <!-- Modelo separado -->
    <g transform="translate(202.1 25.8)scale(0.2 -0.2)">
     <defs>
      <path d="M 9.8125 72.90625 
L 24.515625 72.90625 
L 43.109375 23.296875 
L 61.8125 72.90625 
L 76.515625 72.90625 
L 76.515625 0 
L 66.890625 0 
L 66.890625 64.015625 
L 48.09375 14.015625 
L 38.1875 14.015625 
L 19.390625 64.015625 
L 19.390625 0 
L 9.8125 0 
z
" id="DejaVuSans-77"/>
      <path d="M 30.609375 48.390625 
Q 23.390625 48.390625 19.1875 42.75 
Q 14.984375 37.109375 14.984375 27.296875 
Q 14.984375 17.484375 19.15625 11.84375 
Q 23.34375 6.203125 30.609375 6.203125 
Q 37.796875 6.203125 41.984375 11.859375 
Q 46.1875 17.53125 46.1875 27.296875 
Q 46.1875 37.015625 41.984375 42.703125 
Q 37.796875 48.390625 30.609375 48.390625 
z
M 30.609375 56 
Q 42.328125 56 49.015625 48.375 
Q 55.71875 40.765625 55.71875 27.296875 
Q 55.71875 13.875 49.015625 6.21875 
Q 42.328125 -1.421875 30.609375 -1.421875 
Q 18.84375 -1.421875 12.171875 6.21875 
Q 5.515625 13.875 5.515625 27.296875 
Q 5.515625 40.765625 12.171875 48.375 
Q 18.84375 56 30.609375 56 
z
" id="DejaVuSans-111"/>
      <path d="M 45.40625 46.390625 
L 45.40625 75.984375 
L 54.390625 75.984375 
L 54.390625 0 
L 45.40625 0 
L 45.40625 8.203125 
Q 42.578125 3.328125 38.25 0.953125 
Q 33.9375 -1.421875 27.875 -1.421875 
Q 17.96875 -1.421875 11.734375 6.484375 
Q 5.515625 14.40625 5.515625 27.296875 
Q 5.515625 40.1875 11.734375 48.09375 
Q 17.96875 56 27.875 56 
Q 33.9375 56 38.25 53.625 
Q 42.578125 51.265625 45.40625 46.390625 
z
M 14.796875 27.296875 
Q 14.796875 17.390625 18.875 11.75 
Q 22.953125 6.109375 30.078125 6.109375 
Q 37.203125 6.109375 41.296875 11.75 
Q 45.40625 17.390625 45.40625 27.296875 
Q 45.40625 37.203125 41.296875 42.84375 
Q 37.203125 48.484375 30.078125 48.484375 
Q 22.953125 48.484375 18.875 42.84375 
Q 14.796875 37.203125 14.796875 27.296875 
z
" id="DejaVuSans-100"/>
      <path d="M 56.203125 29.59375 
L 56.203125 25.203125 
L 14.890625 25.203125 
Q 15.484375 15.921875 20.484375 11.0625 
Q 25.484375 6.203125 34.421875 6.203125 
Q 39.59375 6.203125 44.453125 7.46875 
Q 49.3125 8.734375 54.109375 11.28125 
L 54.109375 2.78125 
Q 49.265625 0.734375 44.1875 -0.34375 
Q 39.109375 -1.421875 33.890625 -1.421875 
Q 20.796875 -1.421875 13.15625 6.1875 
Q 5.515625 13.8125 5.515625 26.8125 
Q 5.515625 40.234375 12.765625 48.109375 
Q 20.015625 56 32.328125 56 
Q 43.359375 56 49.78125 48.890625 
Q 56.203125 41.796875 56.203125 29.59375 
z
M 47.21875 32.234375 
Q 47.125 39.59375 43.09375 43.984375 
Q 39.0625 48.390625 32.421875 48.390625 
Q 24.90625 48.390625 20.390625 44.140625 
Q 15.875 39.890625 15.1875 32.171875 
z
" id="DejaVuSans-101"/>
      <path d="M 9.421875 75.984375 
L 18.40625 75.984375 
L 18.40625 0 
L 9.421875 0 
z
" id="DejaVuSans-108"/>
      <path id="DejaVuSans-32"/>
      <path d="M 44.28125 53.078125 
L 44.28125 44.578125 
Q 40.484375 46.53125 36.375 47.5 
Q 32.28125 48.484375 27.875 48.484375 
Q 21.1875 48.484375 17.84375 46.4375 
Q 14.5 44.390625 14.5 40.28125 
Q 14.5 37.15625 16.890625 35.375 
Q 19.28125 33.59375 26.515625 31.984375 
L 29.59375 31.296875 
Q 39.15625 29.25 43.1875 25.515625 
Q 47.21875 21.78125 47.21875 15.09375 
Q 47.21875 7.46875 41.1875 3.015625 
Q 35.15625 -1.421875 24.609375 -1.421875 
Q 20.21875 -1.421875 15.453125 -0.5625 
Q 10.6875 0.296875 5.421875 2 
L 5.421875 11.28125 
Q 10.40625 8.6875 15.234375 7.390625 
Q 20.0625 6.109375 24.8125 6.109375 
Q 31.15625 6.109375 34.5625 8.28125 
Q 37.984375 10.453125 37.984375 14.40625 
Q 37.984375 18.0625 35.515625 20.015625 
Q 33.0625 21.96875 24.703125 23.78125 
L 21.578125 24.515625 
Q 13.234375 26.265625 9.515625 29.90625 
Q 5.8125 33.546875 5.8125 39.890625 
Q 5.8125 47.609375 11.28125 51.796875 
Q 16.75 56 26.8125 56 
Q 31.78125 56 36.171875 55.265625 
Q 40.578125 54.546875 44.28125 53.078125 
z
" id="DejaVuSans-115"/>
      <path d="M 18.109375 8.203125 
L 18.109375 -20.796875 
L 9.078125 -20.796875 
L 9.078125 54.6875 
L 18.109375 54.6875 
L 18.109375 46.390625 
Q 20.953125 51.265625 25.265625 53.625 
Q 29.59375 56 35.59375 56 
Q 45.5625 56 51.78125 48.09375 
Q 58.015625 40.1875 58.015625 27.296875 
Q 58.015625 14.40625 51.78125 6.484375 
Q 45.5625 -1.421875 35.59375 -1.421875 
Q 29.59375 -1.421875 25.265625 0.953125 
Q 20.953125 3.328125 18.109375 8.203125 
z
M 48.6875 27.296875 
Q 48.6875 37.203125 44.609375 42.84375 
Q 40.53125 48.484375 33.40625 48.484375 
Q 26.265625 48.484375 22.1875 42.84375 
Q 18.109375 37.203125 18.109375 27.296875 
Q 18.109375 17.390625 22.1875 11.75 
Q 26.265625 6.109375 33.40625 6.109375 
Q 40.53125 6.109375 44.609375 11.75 
Q 48.6875 17.390625 48.6875 27.296875 
z
" id="DejaVuSans-112"/>
      <path d="M 34.28125 27.484375 
Q 23.390625 27.484375 19.1875 25 
Q 14.984375 22.515625 14.984375 16.5 
Q 14.984375 11.71875 18.140625 8.90625 
Q 21.296875 6.109375 26.703125 6.109375 
Q 34.1875 6.109375 38.703125 11.40625 
Q 43.21875 16.703125 43.21875 25.484375 
L 43.21875 27.484375 
z
M 52.203125 31.203125 
L 52.203125 0 
L 43.21875 0 
L 43.21875 8.296875 
Q 40.140625 3.328125 35.546875 0.953125 
Q 30.953125 -1.421875 24.3125 -1.421875 
Q 15.921875 -1.421875 10.953125 3.296875 
Q 6 8.015625 6 15.921875 
Q 6 25.140625 12.171875 29.828125 
Q 18.359375 34.515625 30.609375 34.515625 
L 43.21875 34.515625 
L 43.21875 35.40625 
Q 43.21875 41.609375 39.140625 45 
Q 35.0625 48.390625 27.6875 48.390625 
Q 23 48.390625 18.546875 47.265625 
Q 14.109375 46.140625 10.015625 43.890625 
L 10.015625 52.203125 
Q 14.9375 54.109375 19.578125 55.046875 
Q 24.21875 56 28.609375 56 
Q 40.484375 56 46.34375 49.84375 
Q 52.203125 43.703125 52.203125 31.203125 
z
" id="DejaVuSans-97"/>
      <path d="M 41.109375 46.296875 
Q 39.59375 47.171875 37.8125 47.578125 
Q 36.03125 48 33.890625 48 
Q 26.265625 48 22.1875 43.046875 
Q 18.109375 38.09375 18.109375 28.8125 
L 18.109375 0 
L 9.078125 0 
L 9.078125 54.6875 
L 18.109375 54.6875 
L 18.109375 46.1875 
Q 20.953125 51.171875 25.484375 53.578125 
Q 30.03125 56 36.53125 56 
Q 37.453125 56 38.578125 55.875 
Q 39.703125 55.765625 41.0625 55.515625 
z
" id="DejaVuSans-114"/>
     </defs>
     <use xlink:href="#DejaVuSans-77"/>
     <use x="86.279297" xlink:href="#DejaVuSans-111"/>
     <use x="147.460938" xlink:href="#DejaVuSans-100"/>
     <use x="210.9375" xlink:href="#DejaVuSans-101"/>
     <use x="272.460938" xlink:href="#DejaVuSans-108"/>
     <use x="300.244141" xlink:href="#DejaVuSans-111"/>
     <use x="361.425781" xlink:href="#DejaVuSans-32"/>
     <use x="393.212891" xlink:href="#DejaVuSans-115"/>
     <use x="445.3125" xlink:href="#DejaVuSans-101"/>
     <use x="506.835938" xlink:href="#DejaVuSans-112"/>
     <use x="570.3125" xlink:href="#DejaVuSans-97"/>
     <use x="631.591797" xlink:href="#DejaVuSans-114"/>
     <use x="672.705078" xlink:href="#DejaVuSans-97"/>
     <use x="733.984375" xlink:href="#DejaVuSans-100"/>
     <use x="797.460938" xlink:href="#DejaVuSans-111"/>
    </g>
   </g>
  </g>
  <g id="axes_2">
   <g id="patch_4">
    <path d="M 21.8 521.2 
L 554.1375 521.2 
L 554.1375 294.65 
L 21.8 294.65 
z
" style="fill:#ffffff;"/>
   </g>
   <g id="matplotlib.axis_3">
    <g id="xtick_7">
     <g id="line2d_57">
      <g>
       <use style="stroke:#000000;stroke-width:0.8;" x="21.8" xlink:href="#m3cbb7642a7" y="521.2"/>
      </g>
     </g>
     <g id="text_2">
      <!-- 0.0 -->
      <g transform="translate(10.667813 538.837813)scale(0.14 -0.14)">
       <defs>
        <path d="M 31.78125 66.40625 
Q 24.171875 66.40625 20.328125 58.90625 
Q 16.5 51.421875 16.5 36.375 
Q 16.5 21.390625 20.328125 13.890625 
Q 24.171875 6.390625 31.78125 6.390625 
Q 39.453125 6.390625 43.28125 13.890625 
Q 47.125 21.390625 47.125 36.375 
Q 47.125 51.421875 43.28125 58.90625 
Q 39.453125 66.40625 31.78125 66.40625 
z
M 31.78125 74.21875 
Q 44.046875 74.21875 50.515625 64.515625 
Q 56.984375 54.828125 56.984375 36.375 
Q 56.984375 17.96875 50.515625 8.265625 
Q 44.046875 -1.421875 31.78125 -1.421875 
Q 19.53125 -1.421875 13.0625 8.265625 
Q 6.59375 17.96875 6.59375 36.375 
Q 6.59375 54.828125 13.0625 64.515625 
Q 19.53125 74.21875 31.78125 74.21875 
z
" id="DejaVuSans-48"/>
        <path d="M 10.6875 12.40625 
L 21 12.40625 
L 21 0 
L 10.6875 0 
z
" id="DejaVuSans-46"/>
       </defs>
       <use xlink:href="#DejaVuSans-48"/>
       <use x="63.623047" xlink:href="#DejaVuSans-46"/>
       <use x="95.410156" xlink:href="#DejaVuSans-48"/>
      </g>
     </g>
    </g>
    <g id="xtick_8">
     <g id="line2d_58">
      <g>
       <use style="stroke:#000000;stroke-width:0.8;" x="128.2675" xlink:href="#m3cbb7642a7" y="521.2"/>
      </g>
     </g>
     <g id="text_3">
      <!-- 0.2 -->
      <g transform="translate(117.135313 538.837813)scale(0.14 -0.14)">
       <defs>
        <path d="M 19.1875 8.296875 
L 53.609375 8.296875 
L 53.609375 0 
L 7.328125 0 
L 7.328125 8.296875 
Q 12.9375 14.109375 22.625 23.890625 
Q 32.328125 33.6875 34.8125 36.53125 
Q 39.546875 41.84375 41.421875 45.53125 
Q 43.3125 49.21875 43.3125 52.78125 
Q 43.3125 58.59375 39.234375 62.25 
Q 35.15625 65.921875 28.609375 65.921875 
Q 23.96875 65.921875 18.8125 64.3125 
Q 13.671875 62.703125 7.8125 59.421875 
L 7.8125 69.390625 
Q 13.765625 71.78125 18.9375 73 
Q 24.125 74.21875 28.421875 74.21875 
Q 39.75 74.21875 46.484375 68.546875 
Q 53.21875 62.890625 53.21875 53.421875 
Q 53.21875 48.921875 51.53125 44.890625 
Q 49.859375 40.875 45.40625 35.40625 
Q 44.1875 33.984375 37.640625 27.21875 
Q 31.109375 20.453125 19.1875 8.296875 
z
" id="DejaVuSans-50"/>
       </defs>
       <use xlink:href="#DejaVuSans-48"/>
       <use x="63.623047" xlink:href="#DejaVuSans-46"/>
       <use x="95.410156" xlink:href="#DejaVuSans-50"/>
      </g>
     </g>
    </g>
    <g id="xtick_9">
     <g id="line2d_59">
      <g>
       <use style="stroke:#000000;stroke-width:0.8;" x="234.735" xlink:href="#m3cbb7642a7" y="521.2"/>
      </g>
     </g>
     <g id="text_4">
      <!-- 0.4 -->
      <g transform="translate(223.602813 538.837813)scale(0.14 -0.14)">
       <defs>
        <path d="M 37.796875 64.3125 
L 12.890625 25.390625 
L 37.796875 25.390625 
z
M 35.203125 72.90625 
L 47.609375 72.90625 
L 47.609375 25.390625 
L 58.015625 25.390625 
L 58.015625 17.1875 
L 47.609375 17.1875 
L 47.609375 0 
L 37.796875 0 
L 37.796875 17.1875 
L 4.890625 17.1875 
L 4.890625 26.703125 
z
" id="DejaVuSans-52"/>
       </defs>
       <use xlink:href="#DejaVuSans-48"/>
       <use x="63.623047" xlink:href="#DejaVuSans-46"/>
       <use x="95.410156" xlink:href="#DejaVuSans-52"/>
      </g>
     </g>
    </g>
    <g id="xtick_10">
     <g id="line2d_60">
      <g>
       <use style="stroke:#000000;stroke-width:0.8;" x="341.2025" xlink:href="#m3cbb7642a7" y="521.2"/>
      </g>
     </g>
     <g id="text_5">
      <!-- 0.6 -->
      <g transform="translate(330.070313 538.837813)scale(0.14 -0.14)">
       <defs>
        <path d="M 33.015625 40.375 
Q 26.375 40.375 22.484375 35.828125 
Q 18.609375 31.296875 18.609375 23.390625 
Q 18.609375 15.53125 22.484375 10.953125 
Q 26.375 6.390625 33.015625 6.390625 
Q 39.65625 6.390625 43.53125 10.953125 
Q 47.40625 15.53125 47.40625 23.390625 
Q 47.40625 31.296875 43.53125 35.828125 
Q 39.65625 40.375 33.015625 40.375 
z
M 52.59375 71.296875 
L 52.59375 62.3125 
Q 48.875 64.0625 45.09375 64.984375 
Q 41.3125 65.921875 37.59375 65.921875 
Q 27.828125 65.921875 22.671875 59.328125 
Q 17.53125 52.734375 16.796875 39.40625 
Q 19.671875 43.65625 24.015625 45.921875 
Q 28.375 48.1875 33.59375 48.1875 
Q 44.578125 48.1875 50.953125 41.515625 
Q 57.328125 34.859375 57.328125 23.390625 
Q 57.328125 12.15625 50.6875 5.359375 
Q 44.046875 -1.421875 33.015625 -1.421875 
Q 20.359375 -1.421875 13.671875 8.265625 
Q 6.984375 17.96875 6.984375 36.375 
Q 6.984375 53.65625 15.1875 63.9375 
Q 23.390625 74.21875 37.203125 74.21875 
Q 40.921875 74.21875 44.703125 73.484375 
Q 48.484375 72.75 52.59375 71.296875 
z
" id="DejaVuSans-54"/>
       </defs>
       <use xlink:href="#DejaVuSans-48"/>
       <use x="63.623047" xlink:href="#DejaVuSans-46"/>
       <use x="95.410156" xlink:href="#DejaVuSans-54"/>
      </g>
     </g>
    </g>
    <g id="xtick_11">
     <g id="line2d_61">
      <g>
       <use style="stroke:#000000;stroke-width:0.8;" x="447.67" xlink:href="#m3cbb7642a7" y="521.2"/>
      </g>
     </g>
     <g id="text_6">
      <!-- 0.8 -->
      <g transform="translate(436.537813 538.837813)scale(0.14 -0.14)">
       <defs>
        <path d="M 31.78125 34.625 
Q 24.75 34.625 20.71875 30.859375 
Q 16.703125 27.09375 16.703125 20.515625 
Q 16.703125 13.921875 20.71875 10.15625 
Q 24.75 6.390625 31.78125 6.390625 
Q 38.8125 6.390625 42.859375 10.171875 
Q 46.921875 13.96875 46.921875 20.515625 
Q 46.921875 27.09375 42.890625 30.859375 
Q 38.875 34.625 31.78125 34.625 
z
M 21.921875 38.8125 
Q 15.578125 40.375 12.03125 44.71875 
Q 8.5 49.078125 8.5 55.328125 
Q 8.5 64.0625 14.71875 69.140625 
Q 20.953125 74.21875 31.78125 74.21875 
Q 42.671875 74.21875 48.875 69.140625 
Q 55.078125 64.0625 55.078125 55.328125 
Q 55.078125 49.078125 51.53125 44.71875 
Q 48 40.375 41.703125 38.8125 
Q 48.828125 37.15625 52.796875 32.3125 
Q 56.78125 27.484375 56.78125 20.515625 
Q 56.78125 9.90625 50.3125 4.234375 
Q 43.84375 -1.421875 31.78125 -1.421875 
Q 19.734375 -1.421875 13.25 4.234375 
Q 6.78125 9.90625 6.78125 20.515625 
Q 6.78125 27.484375 10.78125 32.3125 
Q 14.796875 37.15625 21.921875 38.8125 
z
M 18.3125 54.390625 
Q 18.3125 48.734375 21.84375 45.5625 
Q 25.390625 42.390625 31.78125 42.390625 
Q 38.140625 42.390625 41.71875 45.5625 
Q 45.3125 48.734375 45.3125 54.390625 
Q 45.3125 60.0625 41.71875 63.234375 
Q 38.140625 66.40625 31.78125 66.40625 
Q 25.390625 66.40625 21.84375 63.234375 
Q 18.3125 60.0625 18.3125 54.390625 
z
" id="DejaVuSans-56"/>
       </defs>
       <use xlink:href="#DejaVuSans-48"/>
       <use x="63.623047" xlink:href="#DejaVuSans-46"/>
       <use x="95.410156" xlink:href="#DejaVuSans-56"/>
      </g>
     </g>
    </g>
    <g id="xtick_12">
     <g id="line2d_62">
      <g>
       <use style="stroke:#000000;stroke-width:0.8;" x="554.1375" xlink:href="#m3cbb7642a7" y="521.2"/>
      </g>
     </g>
     <g id="text_7">
      <!-- 1.0 -->
      <g transform="translate(543.005313 538.837813)scale(0.14 -0.14)">
       <defs>
        <path d="M 12.40625 8.296875 
L 28.515625 8.296875 
L 28.515625 63.921875 
L 10.984375 60.40625 
L 10.984375 69.390625 
L 28.421875 72.90625 
L 38.28125 72.90625 
L 38.28125 8.296875 
L 54.390625 8.296875 
L 54.390625 0 
L 12.40625 0 
z
" id="DejaVuSans-49"/>
       </defs>
       <use xlink:href="#DejaVuSans-49"/>
       <use x="63.623047" xlink:href="#DejaVuSans-46"/>
       <use x="95.410156" xlink:href="#DejaVuSans-48"/>
      </g>
     </g>
    </g>
    <g id="text_8">
     <!-- $\theta$ -->
     <g transform="translate(281.76875 560.94625)scale(0.2 -0.2)">
      <defs>
       <path d="M 45.515625 34.671875 
L 14.453125 34.671875 
Q 12.359375 20.0625 14.5 13.875 
Q 17.1875 6.25 24.46875 6.25 
Q 31.78125 6.25 37.359375 13.921875 
Q 42.234375 20.65625 45.515625 34.671875 
z
M 47.015625 42.96875 
Q 48.34375 56.84375 46.625 61.71875 
Q 43.953125 69.4375 36.765625 69.4375 
Q 29.296875 69.4375 23.828125 61.8125 
Q 19.53125 55.671875 16.15625 42.96875 
z
M 38.1875 76.765625 
Q 49.90625 76.765625 54.59375 66.40625 
Q 59.28125 56.109375 55.71875 37.84375 
Q 52.203125 19.625 43.453125 9.28125 
Q 34.765625 -1.125 23.046875 -1.125 
Q 11.28125 -1.125 6.640625 9.28125 
Q 2 19.625 5.515625 37.84375 
Q 9.078125 56.109375 17.71875 66.40625 
Q 26.421875 76.765625 38.1875 76.765625 
z
" id="DejaVuSans-Oblique-952"/>
      </defs>
      <use transform="translate(0 0.234375)" xlink:href="#DejaVuSans-Oblique-952"/>
     </g>
    </g>
   </g>
   <g id="matplotlib.axis_4"/>
   <g id="line2d_63">
    <path clip-path="url(#p6a1bf731dd)" d="M 22.03963 449.913193 
L 22.36122 449.136215 
L 22.68281 447.624685 
L 23.325989 442.622648 
L 23.969169 435.385853 
L 25.255529 417.121124 
L 27.185068 389.472656 
L 28.793017 370.057756 
L 31.044146 345.922536 
L 32.973685 327.305156 
L 34.260045 316.939777 
L 35.224815 311.037779 
L 35.867994 308.221422 
L 36.511174 306.426121 
L 36.832764 305.877979 
L 37.154354 305.582056 
L 37.475944 305.474348 
L 37.797534 305.529609 
L 38.440713 306.046769 
L 41.335022 309.499039 
L 42.299792 310.087376 
L 43.907741 310.733978 
L 45.194101 311.254381 
L 46.15887 312.041743 
L 46.80205 312.930949 
L 47.44523 314.203682 
L 48.08841 315.907333 
L 49.053179 319.229635 
L 52.269078 331.976745 
L 53.233847 334.518251 
L 55.163387 338.993564 
L 56.128156 342.31723 
L 57.092926 346.600501 
L 59.344055 357.026455 
L 60.630415 361.815657 
L 62.559954 368.949951 
L 63.846313 374.71569 
L 65.775853 384.530357 
L 69.313341 402.709587 
L 70.278111 406.61074 
L 71.24288 409.575558 
L 72.20765 411.770785 
L 74.458779 416.519089 
L 75.745139 419.890972 
L 76.709908 422.894638 
L 77.674678 426.503234 
L 78.961037 432.277647 
L 82.498526 448.947768 
L 84.749655 458.316497 
L 86.357604 464.15621 
L 87.643964 468.118246 
L 88.930323 471.401354 
L 90.216683 474.04454 
L 92.467812 477.815654 
L 94.075761 480.647385 
L 95.362121 483.252094 
L 96.64848 486.322952 
L 100.185969 495.346333 
L 101.150739 497.024643 
L 102.115508 498.284784 
L 103.080278 499.221613 
L 104.366637 500.174304 
L 106.296177 501.248074 
L 108.225716 502.344996 
L 109.512075 503.421849 
L 111.441615 505.486138 
L 118.195002 512.523958 
L 120.124541 513.87932 
L 122.05408 515.048639 
L 123.34044 515.561893 
L 124.626799 515.763318 
L 126.877928 515.966144 
L 128.164288 516.365244 
L 131.380187 517.501159 
L 133.952906 518.108596 
L 135.560855 518.268489 
L 140.063113 518.434179 
L 144.243782 519.040132 
L 148.74604 519.213206 
L 153.248298 520.118745 
L 162.895994 520.798048 
L 166.111893 520.94834 
L 186.372055 520.802095 
L 186.372055 520.802095 
" style="fill:none;stroke:#008000;stroke-linecap:square;stroke-width:1.5;"/>
   </g>
   <g id="line2d_64">
    <path clip-path="url(#p6a1bf731dd)" d="M 22.03963 521.912868 
L 22.03963 449.913193 
" style="fill:none;stroke:#008000;stroke-linecap:square;stroke-width:1.5;"/>
   </g>
   <g id="line2d_65">
    <path clip-path="url(#p6a1bf731dd)" d="M 186.372055 521.203979 
L 186.372055 520.802095 
" style="fill:none;stroke:#008000;stroke-linecap:square;stroke-width:1.5;"/>
   </g>
   <g id="line2d_66">
    <defs>
     <path d="M 0 3 
C 0.795609 3 1.55874 2.683901 2.12132 2.12132 
C 2.683901 1.55874 3 0.795609 3 0 
C 3 -0.795609 2.683901 -1.55874 2.12132 -2.12132 
C 1.55874 -2.683901 0.795609 -3 0 -3 
C -0.795609 -3 -1.55874 -2.683901 -2.12132 -2.12132 
C -2.683901 -1.55874 -3 -0.795609 -3 0 
C -3 0.795609 -2.683901 1.55874 -2.12132 2.12132 
C -1.55874 2.683901 -0.795609 3 0 3 
z
" id="mf64b1d19e7" style="stroke:#000000;"/>
    </defs>
    <g clip-path="url(#p6a1bf731dd)">
     <use style="fill:#008000;stroke:#000000;" x="55.708313" xlink:href="#mf64b1d19e7" y="521.2"/>
    </g>
   </g>
   <g id="line2d_67">
    <path clip-path="url(#p6a1bf731dd)" d="M 21.984373 445.07005 
L 22.336652 444.279623 
L 22.688931 442.753932 
L 23.393489 437.6902 
L 24.098047 430.439975 
L 25.507163 412.377533 
L 27.268557 389.799364 
L 28.677673 374.584967 
L 30.439068 358.392844 
L 32.200463 343.929892 
L 33.2573 336.686167 
L 34.314136 331.072847 
L 35.370973 326.815906 
L 39.246042 313.308314 
L 39.9506 311.561458 
L 40.655158 310.441726 
L 41.007436 310.166891 
L 41.359715 310.058848 
L 41.711994 310.098343 
L 42.064273 310.278859 
L 42.768831 311.009736 
L 43.825668 312.647382 
L 45.234784 315.336788 
L 47.348458 320.06442 
L 48.757573 323.188828 
L 49.81441 325.118015 
L 51.928084 328.722944 
L 52.984921 331.420969 
L 54.041758 334.901828 
L 55.803152 341.834046 
L 57.916826 351.271826 
L 60.382779 362.487839 
L 61.791894 367.7928 
L 64.610126 377.726085 
L 65.666963 382.576881 
L 67.428358 392.156019 
L 69.189752 401.400203 
L 70.598868 407.588736 
L 72.360263 414.165456 
L 73.769379 418.648976 
L 75.883052 424.45175 
L 77.292168 428.559528 
L 79.053563 434.475526 
L 82.224073 445.41609 
L 86.451421 458.610347 
L 87.860537 462.408365 
L 92.087884 473.099653 
L 93.849279 477.570057 
L 95.258395 480.56366 
L 96.66751 482.926967 
L 99.485742 487.08824 
L 100.894858 489.856653 
L 103.36081 494.992773 
L 104.769926 497.346803 
L 109.349553 504.200821 
L 110.05411 504.910481 
L 110.758668 505.382432 
L 111.815505 505.770392 
L 113.929179 506.293056 
L 114.986016 506.847467 
L 116.395131 507.95943 
L 121.679316 512.643589 
L 122.736153 513.218197 
L 123.792989 513.509552 
L 124.849826 513.536599 
L 126.258942 513.506771 
L 126.9635 513.647083 
L 127.668058 513.949008 
L 128.724895 514.681156 
L 131.190847 516.650892 
L 132.247684 517.181591 
L 133.304521 517.470529 
L 134.713637 517.569816 
L 136.827311 517.701399 
L 138.236426 518.045842 
L 141.054658 518.903263 
L 142.816053 519.103568 
L 150.213911 519.511001 
L 154.441258 520.1594 
L 162.191395 520.507996 
L 166.771021 520.883762 
L 172.759763 520.962562 
L 182.975853 521.094187 
L 186.498642 521.099157 
L 191.430548 520.975677 
L 197.067011 521.148047 
L 200.942079 520.903666 
L 201.998916 520.869132 
L 201.998916 520.869132 
" style="fill:none;stroke:#008000;stroke-linecap:square;stroke-width:1.5;"/>
   </g>
   <g id="line2d_68">
    <path clip-path="url(#p6a1bf731dd)" d="M 21.984373 521.961299 
L 21.984373 445.07005 
" style="fill:none;stroke:#008000;stroke-linecap:square;stroke-width:1.5;"/>
   </g>
   <g id="line2d_69">
    <path clip-path="url(#p6a1bf731dd)" d="M 201.998916 521.203309 
L 201.998916 520.869132 
" style="fill:none;stroke:#008000;stroke-linecap:square;stroke-width:1.5;"/>
   </g>
   <g id="line2d_70">
    <g clip-path="url(#p6a1bf731dd)">
     <use style="fill:#008000;stroke:#000000;" x="56.58341" xlink:href="#mf64b1d19e7" y="521.2"/>
    </g>
   </g>
   <g id="line2d_71">
    <path clip-path="url(#p6a1bf731dd)" d="M 22.697855 509.556047 
L 23.124023 509.282913 
L 23.550191 508.744063 
L 23.976358 507.938113 
L 24.828694 505.564133 
L 25.681029 502.283902 
L 26.533365 498.16842 
L 27.811868 490.790147 
L 29.516539 479.371618 
L 32.073545 460.488798 
L 35.909054 432.069092 
L 41.449234 392.932217 
L 43.153905 381.199498 
L 44.432408 373.600962 
L 45.710912 367.150106 
L 47.415582 359.785375 
L 49.120253 353.435874 
L 50.398756 349.400345 
L 51.677259 346.140501 
L 52.529595 344.412449 
L 53.38193 343.118849 
L 54.234266 342.293231 
L 54.660433 342.058227 
L 55.086601 341.958657 
L 55.938937 342.104806 
L 56.791272 342.715263 
L 57.643607 343.598233 
L 62.75762 350.015042 
L 63.609955 351.526257 
L 64.888458 354.324178 
L 67.871632 361.312478 
L 69.150136 363.516626 
L 70.428639 365.097076 
L 72.559477 367.453789 
L 73.411813 368.827334 
L 74.264148 370.713604 
L 75.116483 373.168368 
L 76.394987 377.800634 
L 81.508999 397.955633 
L 87.901515 419.708397 
L 89.606186 424.385054 
L 93.867863 434.986484 
L 96.424869 442.492884 
L 101.112714 456.424529 
L 102.817385 460.728157 
L 104.522055 464.410732 
L 107.079062 469.773522 
L 110.062236 476.760984 
L 112.193074 481.563642 
L 113.897745 484.945078 
L 115.176248 487.091675 
L 116.454751 488.889032 
L 118.58559 491.400831 
L 124.551938 498.217352 
L 126.682776 501.042704 
L 129.66595 505.130399 
L 130.944453 506.537817 
L 132.222956 507.628616 
L 133.50146 508.445912 
L 135.632298 509.493808 
L 139.467807 511.367218 
L 144.58182 513.937186 
L 147.138826 514.861561 
L 154.809845 517.450678 
L 157.366851 518.270515 
L 159.071522 518.595154 
L 161.202361 518.735933 
L 163.759367 518.926581 
L 169.725715 519.740038 
L 175.692063 519.903078 
L 179.101404 520.428935 
L 182.084578 520.770682 
L 185.920088 520.952687 
L 195.721945 521.010502 
L 220.439672 521.0029 
L 236.207877 521.154012 
L 240.469555 521.055182 
L 240.469555 521.055182 
" style="fill:none;stroke:#008000;stroke-linecap:square;stroke-width:1.5;"/>
   </g>
   <g id="line2d_72">
    <path clip-path="url(#p6a1bf731dd)" d="M 22.697855 521.31644 
L 22.697855 509.556047 
" style="fill:none;stroke:#008000;stroke-linecap:square;stroke-width:1.5;"/>
   </g>
   <g id="line2d_73">
    <path clip-path="url(#p6a1bf731dd)" d="M 240.469555 521.201448 
L 240.469555 521.055182 
" style="fill:none;stroke:#008000;stroke-linecap:square;stroke-width:1.5;"/>
   </g>
   <g id="line2d_74">
    <g clip-path="url(#p6a1bf731dd)">
     <use style="fill:#008000;stroke:#000000;" x="70.446105" xlink:href="#mf64b1d19e7" y="521.2"/>
    </g>
   </g>
   <g id="line2d_75">
    <path clip-path="url(#p6a1bf731dd)" d="M 23.106554 509.626929 
L 23.516674 509.512648 
L 23.926794 509.16532 
L 24.336914 508.571155 
L 25.157154 506.75586 
L 25.977394 504.138624 
L 26.797634 500.830675 
L 28.027993 494.803854 
L 29.668473 485.41755 
L 37.870873 434.369614 
L 39.921472 420.231694 
L 42.792312 399.965613 
L 44.432792 390.174676 
L 45.663152 384.193482 
L 46.893512 379.345872 
L 48.123872 375.39535 
L 49.764352 371.102156 
L 51.404832 367.381654 
L 54.275671 361.619223 
L 56.736391 357.405489 
L 58.376871 355.098681 
L 59.197111 354.240599 
L 60.017351 353.631365 
L 60.837591 353.374919 
L 61.657831 353.466858 
L 62.478071 353.82995 
L 66.16915 356.082302 
L 67.39951 356.680831 
L 68.21975 357.309965 
L 69.03999 358.20428 
L 69.86023 359.387645 
L 71.50071 362.401981 
L 73.96143 367.145483 
L 75.60191 370.21022 
L 76.83227 372.826966 
L 78.062629 376.022933 
L 79.292989 379.916954 
L 80.933469 386.06738 
L 85.854909 406.28401 
L 87.085269 409.978511 
L 88.315629 412.926461 
L 92.006708 420.714049 
L 93.237068 424.093273 
L 94.467428 428.055804 
L 96.107908 434.102406 
L 98.568628 443.298786 
L 99.798988 447.236618 
L 101.439468 451.631308 
L 105.950787 462.531245 
L 107.591267 465.918926 
L 108.821627 467.941274 
L 110.462107 470.141662 
L 112.922827 473.401552 
L 114.563307 476.035662 
L 116.613906 479.821661 
L 120.304986 487.239552 
L 123.996066 494.700913 
L 125.226426 496.665004 
L 126.456786 498.208462 
L 127.687146 499.40355 
L 129.737745 500.950889 
L 133.428825 503.36311 
L 135.479425 504.856365 
L 137.119905 506.319114 
L 139.990745 509.019345 
L 141.631225 510.211185 
L 143.271704 511.053882 
L 149.013384 513.576517 
L 151.884224 515.093716 
L 153.524704 515.707001 
L 155.165183 516.054993 
L 157.625903 516.270418 
L 159.676503 516.528217 
L 162.137223 517.118443 
L 169.109262 518.927628 
L 171.159862 519.093823 
L 177.311662 519.503431 
L 182.233101 519.89126 
L 187.974781 520.464618 
L 190.845621 520.486774 
L 194.5367 520.504915 
L 206.020059 521.078102 
L 210.941499 521.087238 
L 216.683179 521.039756 
L 225.705818 521.191324 
L 232.677857 521.061124 
L 232.677857 521.061124 
" style="fill:none;stroke:#008000;stroke-linecap:square;stroke-width:1.5;"/>
   </g>
   <g id="line2d_76">
    <path clip-path="url(#p6a1bf731dd)" d="M 23.106554 521.315731 
L 23.106554 509.626929 
" style="fill:none;stroke:#008000;stroke-linecap:square;stroke-width:1.5;"/>
   </g>
   <g id="line2d_77">
    <path clip-path="url(#p6a1bf731dd)" d="M 232.677857 521.201389 
L 232.677857 521.061124 
" style="fill:none;stroke:#008000;stroke-linecap:square;stroke-width:1.5;"/>
   </g>
   <g id="line2d_78">
    <g clip-path="url(#p6a1bf731dd)">
     <use style="fill:#008000;stroke:#000000;" x="73.303757" xlink:href="#mf64b1d19e7" y="521.2"/>
    </g>
   </g>
   <g id="line2d_79">
    <path clip-path="url(#p6a1bf731dd)" d="M 23.641375 518.418825 
L 24.565008 518.304415 
L 25.488641 517.967613 
L 26.412274 517.426575 
L 27.335907 516.671029 
L 28.721356 515.143405 
L 30.106805 513.098558 
L 31.030438 511.408824 
L 32.415887 508.296808 
L 33.801336 504.442816 
L 35.186785 499.861011 
L 37.034051 492.795634 
L 39.343133 482.783021 
L 42.114031 469.640549 
L 45.808563 450.862716 
L 49.503094 432.110263 
L 52.273992 419.351078 
L 58.739422 391.303517 
L 60.124871 385.995618 
L 61.51032 381.479549 
L 62.89577 377.874081 
L 63.819402 375.978891 
L 64.743035 374.456256 
L 65.666668 373.248227 
L 66.590301 372.31712 
L 67.513934 371.62786 
L 68.899383 370.8891 
L 72.593914 369.124904 
L 74.902996 367.981698 
L 75.826629 367.822751 
L 76.750262 367.964526 
L 77.673894 368.461638 
L 78.597527 369.24619 
L 79.982976 370.78408 
L 81.830242 372.813709 
L 83.215691 373.964446 
L 86.448406 376.237854 
L 87.372039 377.292616 
L 88.295672 378.708417 
L 89.219304 380.478775 
L 90.604754 383.765784 
L 92.452019 388.994326 
L 98.455632 406.714803 
L 100.764714 412.365628 
L 106.306511 425.352341 
L 108.615593 431.703032 
L 111.386492 440.128323 
L 115.542839 452.967558 
L 117.390105 457.807545 
L 118.775554 460.856626 
L 120.62282 464.369514 
L 123.393718 469.032802 
L 127.550066 476.09682 
L 132.630046 485.196522 
L 134.015495 487.148039 
L 136.786394 490.457805 
L 138.633659 492.777797 
L 144.637272 500.867882 
L 146.484538 502.783676 
L 148.331804 504.391237 
L 151.102702 506.414004 
L 154.335417 508.817974 
L 157.568132 511.25439 
L 159.415397 512.284259 
L 161.262663 512.988837 
L 166.80446 514.693813 
L 172.346256 516.935768 
L 175.117155 517.591286 
L 179.735319 518.444403 
L 184.353483 518.985138 
L 188.971647 519.383505 
L 192.666178 519.764899 
L 197.746158 520.41406 
L 201.902506 520.60716 
L 222.222428 521.099069 
L 249.469595 521.172338 
L 255.935025 521.139138 
L 259.629556 521.080558 
L 259.629556 521.080558 
" style="fill:none;stroke:#008000;stroke-linecap:square;stroke-width:1.5;"/>
   </g>
   <g id="line2d_80">
    <path clip-path="url(#p6a1bf731dd)" d="M 23.641375 521.227812 
L 23.641375 518.418825 
" style="fill:none;stroke:#008000;stroke-linecap:square;stroke-width:1.5;"/>
   </g>
   <g id="line2d_81">
    <path clip-path="url(#p6a1bf731dd)" d="M 259.629556 521.201194 
L 259.629556 521.080558 
" style="fill:none;stroke:#008000;stroke-linecap:square;stroke-width:1.5;"/>
   </g>
   <g id="line2d_82">
    <g clip-path="url(#p6a1bf731dd)">
     <use style="fill:#008000;stroke:#000000;" x="85.371641" xlink:href="#mf64b1d19e7" y="521.2"/>
    </g>
   </g>
   <g id="line2d_83">
    <path clip-path="url(#p6a1bf731dd)" d="M 33.026552 518.020166 
L 33.700035 517.866947 
L 34.373518 517.529356 
L 35.383743 516.688719 
L 36.393968 515.48839 
L 37.740934 513.420217 
L 39.087901 510.830378 
L 40.434867 507.695275 
L 41.781834 503.830882 
L 43.1288 499.064638 
L 44.475767 493.257016 
L 45.822733 486.432385 
L 47.843183 474.746931 
L 52.557565 445.611062 
L 54.241273 433.978426 
L 56.261723 418.169626 
L 59.629139 391.291441 
L 61.649589 377.329111 
L 63.333297 367.178782 
L 65.017005 358.549089 
L 66.700713 351.280625 
L 69.057904 342.314839 
L 71.751837 332.801583 
L 73.435545 327.690121 
L 74.782512 324.370468 
L 75.792737 322.428782 
L 76.46622 321.528677 
L 77.139703 320.956192 
L 77.813186 320.747328 
L 78.48667 320.854705 
L 79.160153 321.304049 
L 80.170378 322.432776 
L 81.517344 324.441723 
L 82.864311 326.794836 
L 83.874535 328.967885 
L 84.88476 331.653928 
L 85.894985 334.978708 
L 87.241952 340.252925 
L 90.272626 352.558696 
L 91.619593 357.088362 
L 95.660492 369.838093 
L 97.680942 377.895876 
L 101.048358 392.328246 
L 102.732066 400.621361 
L 104.752515 411.881825 
L 106.772965 422.899123 
L 108.456673 430.666974 
L 110.477123 438.628123 
L 114.518022 453.562104 
L 116.875214 461.171925 
L 122.936563 479.537383 
L 124.957012 484.82648 
L 126.977462 489.422563 
L 128.997912 493.533107 
L 130.68162 496.463102 
L 132.365328 498.917507 
L 135.732744 503.63955 
L 138.763418 508.165801 
L 139.773643 509.312148 
L 140.783868 510.163239 
L 142.130835 510.964375 
L 145.161509 512.59586 
L 148.528925 514.574867 
L 155.600499 517.861136 
L 157.620949 518.571436 
L 160.651623 519.367277 
L 164.019039 520.037846 
L 166.712972 520.334203 
L 169.743647 520.436326 
L 173.447805 520.331745 
L 176.141738 520.306564 
L 178.498929 520.521366 
L 183.550053 521.069874 
L 186.580728 521.097248 
L 193.989043 521.07221 
L 200.050392 521.168833 
L 205.101516 521.04972 
L 205.101516 521.04972 
" style="fill:none;stroke:#008000;stroke-linecap:square;stroke-width:1.5;"/>
   </g>
   <g id="line2d_84">
    <path clip-path="url(#p6a1bf731dd)" d="M 33.026552 521.231798 
L 33.026552 518.020166 
" style="fill:none;stroke:#008000;stroke-linecap:square;stroke-width:1.5;"/>
   </g>
   <g id="line2d_85">
    <path clip-path="url(#p6a1bf731dd)" d="M 205.101516 521.201503 
L 205.101516 521.04972 
" style="fill:none;stroke:#008000;stroke-linecap:square;stroke-width:1.5;"/>
   </g>
   <g id="line2d_86">
    <g clip-path="url(#p6a1bf731dd)">
     <use style="fill:#008000;stroke:#000000;" x="84.58142" xlink:href="#mf64b1d19e7" y="521.2"/>
    </g>
   </g>
   <g id="line2d_87">
    <path clip-path="url(#p6a1bf731dd)" d="M 44.598196 520.339898 
L 46.522 520.196355 
L 48.830565 519.757139 
L 51.139131 519.099916 
L 53.062935 518.329023 
L 54.601979 517.455298 
L 56.141023 516.296127 
L 57.680066 514.849008 
L 59.603871 512.731204 
L 61.912436 509.874682 
L 63.45148 507.728522 
L 64.990523 505.224012 
L 66.529567 502.165854 
L 67.68385 499.407045 
L 69.222893 495.055693 
L 70.761937 489.981021 
L 72.685741 482.707856 
L 74.609546 474.536657 
L 77.302872 461.848598 
L 85.382851 421.940761 
L 88.460938 406.792812 
L 90.384743 398.335323 
L 93.078069 387.687893 
L 96.156156 376.478061 
L 98.849483 367.481924 
L 100.388526 362.968171 
L 101.542809 360.061142 
L 102.697092 357.744826 
L 103.851375 356.056502 
L 104.620896 355.280236 
L 105.390418 354.745977 
L 106.544701 354.337739 
L 107.698984 354.247164 
L 109.238027 354.440603 
L 110.39231 354.738529 
L 111.931353 355.351843 
L 113.085636 356.095363 
L 114.239919 357.120095 
L 115.394202 358.523962 
L 116.548484 360.279772 
L 118.087528 363.078248 
L 121.550376 370.253915 
L 124.243702 376.208131 
L 126.167507 381.007374 
L 127.70655 385.368466 
L 129.630355 391.549584 
L 135.017008 409.690169 
L 140.018899 425.05498 
L 142.712226 434.470312 
L 146.944596 449.34552 
L 149.253161 456.672223 
L 151.561726 463.171452 
L 153.870292 469.031453 
L 160.795988 485.590131 
L 162.719793 489.524176 
L 164.643597 492.959835 
L 168.875967 499.842847 
L 170.799772 502.721862 
L 172.338815 504.694848 
L 174.26262 506.76727 
L 178.110229 510.471968 
L 180.034033 512.078113 
L 181.957838 513.322686 
L 184.266403 514.462015 
L 187.34449 515.730683 
L 191.961621 517.34715 
L 196.578752 518.747779 
L 199.272078 519.371822 
L 202.350166 519.854994 
L 208.891101 520.635278 
L 211.199666 520.666795 
L 218.510123 520.559246 
L 226.205341 520.676444 
L 233.131038 521.071693 
L 238.51769 521.096028 
L 241.211017 521.069733 
L 241.211017 521.069733 
" style="fill:none;stroke:#008000;stroke-linecap:square;stroke-width:1.5;"/>
   </g>
   <g id="line2d_88">
    <path clip-path="url(#p6a1bf731dd)" d="M 44.598196 521.208601 
L 44.598196 520.339898 
" style="fill:none;stroke:#008000;stroke-linecap:square;stroke-width:1.5;"/>
   </g>
   <g id="line2d_89">
    <path clip-path="url(#p6a1bf731dd)" d="M 241.211017 521.201303 
L 241.211017 521.069733 
" style="fill:none;stroke:#008000;stroke-linecap:square;stroke-width:1.5;"/>
   </g>
   <g id="line2d_90">
    <g clip-path="url(#p6a1bf731dd)">
     <use style="fill:#008000;stroke:#000000;" x="115.620795" xlink:href="#mf64b1d19e7" y="521.2"/>
    </g>
   </g>
   <g id="line2d_91">
    <path clip-path="url(#p6a1bf731dd)" d="M 29.937252 520.380946 
L 32.030715 520.24502 
L 34.124178 519.899414 
L 36.217641 519.338031 
L 38.311104 518.561072 
L 40.404567 517.506802 
L 42.498029 516.135229 
L 44.068127 514.877812 
L 46.16159 512.891183 
L 47.731687 511.140986 
L 49.301784 509.13216 
L 50.871881 506.796029 
L 52.441979 504.084525 
L 54.012076 500.984389 
L 56.105539 496.311937 
L 58.722368 489.837438 
L 62.385928 480.116948 
L 67.096219 466.870218 
L 77.040169 438.050895 
L 81.227094 426.048627 
L 83.843923 419.204295 
L 86.460752 412.986818 
L 89.600946 406.182686 
L 92.741141 400.01879 
L 94.311238 397.312989 
L 95.881335 395.003655 
L 96.928067 393.713178 
L 97.974798 392.649194 
L 99.544895 391.478307 
L 101.114993 390.728349 
L 102.68509 390.314904 
L 104.778553 390.044873 
L 106.34865 390.024358 
L 107.918747 390.213509 
L 108.965479 390.509047 
L 110.01221 391.011761 
L 111.058942 391.739917 
L 112.105673 392.74198 
L 113.152405 394.018366 
L 114.722502 396.404397 
L 116.815965 400.248402 
L 121.526257 409.299767 
L 124.143085 413.607945 
L 130.94684 424.194246 
L 135.657132 432.363735 
L 139.320692 439.159429 
L 142.984252 446.442758 
L 147.694544 455.61825 
L 150.311373 460.231008 
L 153.451567 465.297729 
L 160.255322 476.018949 
L 162.87215 480.058848 
L 164.965613 482.964983 
L 167.582442 486.175075 
L 171.246002 490.274511 
L 179.096488 498.647797 
L 182.236683 501.615395 
L 185.376877 504.295543 
L 187.47034 505.880418 
L 189.563803 507.234679 
L 192.180632 508.651088 
L 197.937655 511.707366 
L 201.07785 513.376871 
L 203.171313 514.265565 
L 205.264775 514.933248 
L 208.928336 515.806916 
L 215.208725 517.136237 
L 218.872285 517.622222 
L 223.582576 518.243509 
L 228.816234 519.178374 
L 233.526526 519.977359 
L 236.143354 520.174233 
L 239.806915 520.151802 
L 243.99384 520.176705 
L 248.180766 520.462971 
L 253.414424 520.776221 
L 257.60135 520.799328 
L 265.975202 520.793134 
L 287.956563 521.111826 
L 296.85378 521.101363 
L 297.377146 521.100698 
L 297.377146 521.100698 
" style="fill:none;stroke:#008000;stroke-linecap:square;stroke-width:1.5;"/>
   </g>
   <g id="line2d_92">
    <path clip-path="url(#p6a1bf731dd)" d="M 29.937252 521.208191 
L 29.937252 520.380946 
" style="fill:none;stroke:#008000;stroke-linecap:square;stroke-width:1.5;"/>
   </g>
   <g id="line2d_93">
    <path clip-path="url(#p6a1bf731dd)" d="M 297.377146 521.200993 
L 297.377146 521.100698 
" style="fill:none;stroke:#008000;stroke-linecap:square;stroke-width:1.5;"/>
   </g>
   <g id="line2d_94">
    <g clip-path="url(#p6a1bf731dd)">
     <use style="fill:#008000;stroke:#000000;" x="115.037591" xlink:href="#mf64b1d19e7" y="521.2"/>
    </g>
   </g>
   <g id="line2d_95">
    <path clip-path="url(#p6a1bf731dd)" d="M 50.976232 520.992711 
L 56.360171 520.886701 
L 59.500803 520.631417 
L 62.192773 520.197747 
L 64.436081 519.636519 
L 66.679389 518.852093 
L 68.474035 518.00072 
L 69.82002 517.169927 
L 71.166005 516.116296 
L 72.51199 514.797672 
L 73.857975 513.197763 
L 75.652622 510.669154 
L 78.344591 506.362953 
L 84.177193 496.56806 
L 85.523178 493.887095 
L 86.869162 490.8063 
L 88.215147 487.25079 
L 90.009794 481.705863 
L 91.80444 475.378196 
L 98.983027 449.058863 
L 101.674996 439.313367 
L 103.469643 432.005854 
L 105.712951 421.812864 
L 108.404921 409.503974 
L 110.199567 402.41592 
L 111.545552 397.926242 
L 113.340199 392.841767 
L 115.134845 388.449216 
L 117.378154 383.632552 
L 119.1728 380.266914 
L 121.416108 376.574576 
L 124.108078 372.759486 
L 125.902725 370.50337 
L 127.697371 368.597157 
L 129.043356 367.572952 
L 129.940679 367.146196 
L 130.838003 366.941102 
L 131.735326 367.005454 
L 132.632649 367.319723 
L 133.529972 367.887737 
L 134.427296 368.674615 
L 135.324619 369.705594 
L 136.670604 371.67691 
L 138.016589 374.104855 
L 139.811235 377.910364 
L 144.746513 388.653392 
L 151.476438 401.950948 
L 153.271084 406.192462 
L 155.514392 412.063215 
L 157.309039 417.291746 
L 159.552347 424.576867 
L 163.590302 438.170966 
L 165.384948 443.411329 
L 167.628257 449.213638 
L 175.704166 469.057526 
L 179.293459 477.236422 
L 181.536767 481.789005 
L 183.331414 484.972693 
L 186.023384 489.228206 
L 189.612677 494.484263 
L 192.753308 498.757728 
L 195.89394 502.695983 
L 199.034571 506.238725 
L 201.277879 508.459213 
L 203.521187 510.321145 
L 206.213157 512.170192 
L 211.148435 515.285324 
L 213.391743 516.392743 
L 215.635051 517.221251 
L 218.775683 518.115867 
L 222.364976 518.928678 
L 225.505607 519.423446 
L 228.646239 519.678928 
L 234.030178 520.070113 
L 239.86278 520.634162 
L 251.527982 521.090057 
L 261.8472 521.184648 
L 275.307049 521.159415 
L 280.242327 521.086096 
L 280.242327 521.086096 
" style="fill:none;stroke:#008000;stroke-linecap:square;stroke-width:1.5;"/>
   </g>
   <g id="line2d_96">
    <path clip-path="url(#p6a1bf731dd)" d="M 50.976232 521.202073 
L 50.976232 520.992711 
" style="fill:none;stroke:#008000;stroke-linecap:square;stroke-width:1.5;"/>
   </g>
   <g id="line2d_97">
    <path clip-path="url(#p6a1bf731dd)" d="M 280.242327 521.201139 
L 280.242327 521.086096 
" style="fill:none;stroke:#008000;stroke-linecap:square;stroke-width:1.5;"/>
   </g>
   <g id="line2d_98">
    <g clip-path="url(#p6a1bf731dd)">
     <use style="fill:#008000;stroke:#000000;" x="135.598255" xlink:href="#mf64b1d19e7" y="521.2"/>
    </g>
   </g>
   <g id="line2d_99">
    <path clip-path="url(#p6a1bf731dd)" d="M 40.003543 521.005934 
L 44.63129 520.91047 
L 48.680569 520.608444 
L 51.572911 520.171399 
L 53.886785 519.633595 
L 56.779127 518.695508 
L 59.671469 517.476314 
L 62.56381 516.010518 
L 65.456152 514.300787 
L 67.770026 512.73227 
L 69.505431 511.372873 
L 71.240836 509.772511 
L 72.976241 507.851159 
L 74.711647 505.562873 
L 76.447052 502.9271 
L 78.760925 498.957819 
L 81.653267 493.491245 
L 85.124078 486.394958 
L 93.222635 469.169271 
L 96.693445 461.18929 
L 100.164256 453.23687 
L 103.056598 447.277776 
L 107.684345 438.011039 
L 109.998218 432.764716 
L 114.625966 422.043227 
L 116.361371 418.728954 
L 117.518308 416.886105 
L 118.675244 415.332722 
L 119.832181 414.040171 
L 121.567586 412.49584 
L 123.302991 411.263697 
L 125.616865 409.933495 
L 127.35227 409.15675 
L 129.087675 408.61396 
L 130.82308 408.379871 
L 132.558486 408.44224 
L 134.293891 408.761345 
L 136.607764 409.473606 
L 140.078575 410.887109 
L 143.549385 412.564204 
L 147.598664 414.761899 
L 149.912537 416.204349 
L 151.647943 417.520479 
L 153.383348 419.194021 
L 155.118753 421.267037 
L 156.854158 423.671902 
L 162.638842 432.049355 
L 164.952715 434.930398 
L 170.158931 441.23902 
L 172.472805 444.447199 
L 175.943615 449.697989 
L 182.306767 459.641781 
L 185.777578 465.605027 
L 189.826856 472.539092 
L 192.14073 476.047083 
L 194.454603 479.132931 
L 196.768477 481.832903 
L 199.660819 484.877909 
L 206.023971 491.225618 
L 217.014871 501.738755 
L 219.328744 503.560218 
L 222.221086 505.519064 
L 228.584238 509.431671 
L 231.47658 511.040391 
L 233.790454 512.119044 
L 236.104327 512.963029 
L 238.418201 513.591733 
L 243.045948 514.48829 
L 247.095227 515.342984 
L 256.350721 517.449176 
L 259.821531 517.984922 
L 270.812431 519.43496 
L 275.440178 520.142696 
L 279.489457 520.503388 
L 284.695672 520.690501 
L 325.766928 521.144781 
L 335.60089 521.043761 
L 335.60089 521.043761 
" style="fill:none;stroke:#008000;stroke-linecap:square;stroke-width:1.5;"/>
   </g>
   <g id="line2d_100">
    <path clip-path="url(#p6a1bf731dd)" d="M 40.003543 521.201941 
L 40.003543 521.005934 
" style="fill:none;stroke:#008000;stroke-linecap:square;stroke-width:1.5;"/>
   </g>
   <g id="line2d_101">
    <path clip-path="url(#p6a1bf731dd)" d="M 335.60089 521.201562 
L 335.60089 521.043761 
" style="fill:none;stroke:#008000;stroke-linecap:square;stroke-width:1.5;"/>
   </g>
   <g id="line2d_102">
    <g clip-path="url(#p6a1bf731dd)">
     <use style="fill:#008000;stroke:#000000;" x="144.775912" xlink:href="#mf64b1d19e7" y="521.2"/>
    </g>
   </g>
   <g id="line2d_103"/>
   <g id="line2d_104"/>
   <g id="line2d_105"/>
   <g id="line2d_106"/>
   <g id="line2d_107"/>
   <g id="line2d_108"/>
   <g id="line2d_109"/>
   <g id="line2d_110"/>
   <g id="line2d_111"/>
   <g id="line2d_112"/>
   <g id="patch_5">
    <path d="M 21.8 521.2 
L 554.1375 521.2 
" style="fill:none;stroke:#000000;stroke-linecap:square;stroke-linejoin:miter;stroke-width:0.8;"/>
   </g>
   <g id="text_9">
    <!-- Modelo jerrquico -->
    <g transform="translate(198.457813 288.65)scale(0.2 -0.2)">
     <defs>
      <path d="M 9.421875 54.6875 
L 18.40625 54.6875 
L 18.40625 -0.984375 
Q 18.40625 -11.421875 14.421875 -16.109375 
Q 10.453125 -20.796875 1.609375 -20.796875 
L -1.8125 -20.796875 
L -1.8125 -13.1875 
L 0.59375 -13.1875 
Q 5.71875 -13.1875 7.5625 -10.8125 
Q 9.421875 -8.453125 9.421875 -0.984375 
z
M 9.421875 75.984375 
L 18.40625 75.984375 
L 18.40625 64.59375 
L 9.421875 64.59375 
z
" id="DejaVuSans-106"/>
      <path d="M 34.28125 27.484375 
Q 23.390625 27.484375 19.1875 25 
Q 14.984375 22.515625 14.984375 16.5 
Q 14.984375 11.71875 18.140625 8.90625 
Q 21.296875 6.109375 26.703125 6.109375 
Q 34.1875 6.109375 38.703125 11.40625 
Q 43.21875 16.703125 43.21875 25.484375 
L 43.21875 27.484375 
z
M 52.203125 31.203125 
L 52.203125 0 
L 43.21875 0 
L 43.21875 8.296875 
Q 40.140625 3.328125 35.546875 0.953125 
Q 30.953125 -1.421875 24.3125 -1.421875 
Q 15.921875 -1.421875 10.953125 3.296875 
Q 6 8.015625 6 15.921875 
Q 6 25.140625 12.171875 29.828125 
Q 18.359375 34.515625 30.609375 34.515625 
L 43.21875 34.515625 
L 43.21875 35.40625 
Q 43.21875 41.609375 39.140625 45 
Q 35.0625 48.390625 27.6875 48.390625 
Q 23 48.390625 18.546875 47.265625 
Q 14.109375 46.140625 10.015625 43.890625 
L 10.015625 52.203125 
Q 14.9375 54.109375 19.578125 55.046875 
Q 24.21875 56 28.609375 56 
Q 40.484375 56 46.34375 49.84375 
Q 52.203125 43.703125 52.203125 31.203125 
z
M 35.78125 79.984375 
L 45.5 79.984375 
L 29.59375 61.625 
L 22.109375 61.625 
z
" id="DejaVuSans-225"/>
      <path d="M 14.796875 27.296875 
Q 14.796875 17.390625 18.875 11.75 
Q 22.953125 6.109375 30.078125 6.109375 
Q 37.203125 6.109375 41.296875 11.75 
Q 45.40625 17.390625 45.40625 27.296875 
Q 45.40625 37.203125 41.296875 42.84375 
Q 37.203125 48.484375 30.078125 48.484375 
Q 22.953125 48.484375 18.875 42.84375 
Q 14.796875 37.203125 14.796875 27.296875 
z
M 45.40625 8.203125 
Q 42.578125 3.328125 38.25 0.953125 
Q 33.9375 -1.421875 27.875 -1.421875 
Q 17.96875 -1.421875 11.734375 6.484375 
Q 5.515625 14.40625 5.515625 27.296875 
Q 5.515625 40.1875 11.734375 48.09375 
Q 17.96875 56 27.875 56 
Q 33.9375 56 38.25 53.625 
Q 42.578125 51.265625 45.40625 46.390625 
L 45.40625 54.6875 
L 54.390625 54.6875 
L 54.390625 -20.796875 
L 45.40625 -20.796875 
z
" id="DejaVuSans-113"/>
      <path d="M 8.5 21.578125 
L 8.5 54.6875 
L 17.484375 54.6875 
L 17.484375 21.921875 
Q 17.484375 14.15625 20.5 10.265625 
Q 23.53125 6.390625 29.59375 6.390625 
Q 36.859375 6.390625 41.078125 11.03125 
Q 45.3125 15.671875 45.3125 23.6875 
L 45.3125 54.6875 
L 54.296875 54.6875 
L 54.296875 0 
L 45.3125 0 
L 45.3125 8.40625 
Q 42.046875 3.421875 37.71875 1 
Q 33.40625 -1.421875 27.6875 -1.421875 
Q 18.265625 -1.421875 13.375 4.4375 
Q 8.5 10.296875 8.5 21.578125 
z
M 31.109375 56 
z
" id="DejaVuSans-117"/>
      <path d="M 9.421875 54.6875 
L 18.40625 54.6875 
L 18.40625 0 
L 9.421875 0 
z
M 9.421875 75.984375 
L 18.40625 75.984375 
L 18.40625 64.59375 
L 9.421875 64.59375 
z
" id="DejaVuSans-105"/>
      <path d="M 48.78125 52.59375 
L 48.78125 44.1875 
Q 44.96875 46.296875 41.140625 47.34375 
Q 37.3125 48.390625 33.40625 48.390625 
Q 24.65625 48.390625 19.8125 42.84375 
Q 14.984375 37.3125 14.984375 27.296875 
Q 14.984375 17.28125 19.8125 11.734375 
Q 24.65625 6.203125 33.40625 6.203125 
Q 37.3125 6.203125 41.140625 7.25 
Q 44.96875 8.296875 48.78125 10.40625 
L 48.78125 2.09375 
Q 45.015625 0.34375 40.984375 -0.53125 
Q 36.96875 -1.421875 32.421875 -1.421875 
Q 20.0625 -1.421875 12.78125 6.34375 
Q 5.515625 14.109375 5.515625 27.296875 
Q 5.515625 40.671875 12.859375 48.328125 
Q 20.21875 56 33.015625 56 
Q 37.15625 56 41.109375 55.140625 
Q 45.0625 54.296875 48.78125 52.59375 
z
" id="DejaVuSans-99"/>
     </defs>
     <use xlink:href="#DejaVuSans-77"/>
     <use x="86.279297" xlink:href="#DejaVuSans-111"/>
     <use x="147.460938" xlink:href="#DejaVuSans-100"/>
     <use x="210.9375" xlink:href="#DejaVuSans-101"/>
     <use x="272.460938" xlink:href="#DejaVuSans-108"/>
     <use x="300.244141" xlink:href="#DejaVuSans-111"/>
     <use x="361.425781" xlink:href="#DejaVuSans-32"/>
     <use x="393.212891" xlink:href="#DejaVuSans-106"/>
     <use x="420.996094" xlink:href="#DejaVuSans-101"/>
     <use x="482.519531" xlink:href="#DejaVuSans-114"/>
     <use x="523.632812" xlink:href="#DejaVuSans-225"/>
     <use x="584.912109" xlink:href="#DejaVuSans-114"/>
     <use x="624.275391" xlink:href="#DejaVuSans-113"/>
     <use x="687.751953" xlink:href="#DejaVuSans-117"/>
     <use x="751.130859" xlink:href="#DejaVuSans-105"/>
     <use x="778.914062" xlink:href="#DejaVuSans-99"/>
     <use x="833.894531" xlink:href="#DejaVuSans-111"/>
    </g>
   </g>
  </g>
 </g>
 <defs>
  <clipPath id="p82d436def7">
   <rect height="226.55" width="532.3375" x="21.8" y="31.8"/>
  </clipPath>
  <clipPath id="p6a1bf731dd">
   <rect height="226.55" width="532.3375" x="21.8" y="294.65"/>
  </clipPath>
 </defs>
</svg>
