<svg class="marks" width="467" height="463" viewBox="0 0 467 463" version="1.1" xmlns="http://www.w3.org/2000/svg" xmlns:xlink="http://www.w3.org/1999/xlink"><rect width="467" height="463" style="fill: white;"></rect><g transform="translate(62,12)"><g class="mark-group role-frame root"><g transform="translate(0,0)"><path class="background" d="M0.5,0.5h400v400h-400Z" style="fill: none; stroke: #ddd;"></path><g><g class="mark-group role-axis"><g transform="translate(0.5,0.5)"><path class="background" d="M0,0h0v0h0Z" style="pointer-events: none; fill: none;"></path><g><g class="mark-rule role-axis-grid" style="pointer-events: none;"><line transform="translate(0,400)" x2="400" y2="0" style="fill: none; stroke: #ddd; stroke-width: 1; opacity: 1;"></line><line transform="translate(0,360)" x2="400" y2="0" style="fill: none; stroke: #ddd; stroke-width: 1; opacity: 1;"></line><line transform="translate(0,320)" x2="400" y2="0" style="fill: none; stroke: #ddd; stroke-width: 1; opacity: 1;"></line><line transform="translate(0,280)" x2="400" y2="0" style="fill: none; stroke: #ddd; stroke-width: 1; opacity: 1;"></line><line transform="translate(0,240)" x2="400" y2="0" style="fill: none; stroke: #ddd; stroke-width: 1; opacity: 1;"></line><line transform="translate(0,200)" x2="400" y2="0" style="fill: none; stroke: #ddd; stroke-width: 1; opacity: 1;"></line><line transform="translate(0,160)" x2="400" y2="0" style="fill: none; stroke: #ddd; stroke-width: 1; opacity: 1;"></line><line transform="translate(0,120)" x2="400" y2="0" style="fill: none; stroke: #ddd; stroke-width: 1; opacity: 1;"></line><line transform="translate(0,80)" x2="400" y2="0" style="fill: none; stroke: #ddd; stroke-width: 1; opacity: 1;"></line><line transform="translate(0,40)" x2="400" y2="0" style="fill: none; stroke: #ddd; stroke-width: 1; opacity: 1;"></line><line transform="translate(0,0)" x2="400" y2="0" style="fill: none; stroke: #ddd; stroke-width: 1; opacity: 1;"></line></g></g><path class="foreground" d="" style="pointer-events: none; display: none; fill: none;"></path></g></g><g class="mark-group role-axis"><g transform="translate(0.5,400.5)"><path class="background" d="M0,0h0v0h0Z" style="pointer-events: none; fill: none;"></path><g><g class="mark-rule role-axis-tick" style="pointer-events: none;"><line transform="translate(50,0)" x2="0" y2="5" style="fill: none; stroke: #888; stroke-width: 1; opacity: 1;"></line><line transform="translate(60,0)" x2="0" y2="5" style="fill: none; stroke: #888; stroke-width: 1; opacity: 1;"></line><line transform="translate(70,0)" x2="0" y2="5" style="fill: none; stroke: #888; stroke-width: 1; opacity: 1;"></line><line transform="translate(80,0)" x2="0" y2="5" style="fill: none; stroke: #888; stroke-width: 1; opacity: 1;"></line><line transform="translate(90,0)" x2="0" y2="5" style="fill: none; stroke: #888; stroke-width: 1; opacity: 1;"></line><line transform="translate(100,0)" x2="0" y2="5" style="fill: none; stroke: #888; stroke-width: 1; opacity: 1;"></line><line transform="translate(110,0)" x2="0" y2="5" style="fill: none; stroke: #888; stroke-width: 1; opacity: 1;"></line><line transform="translate(120,0)" x2="0" y2="5" style="fill: none; stroke: #888; stroke-width: 1; opacity: 1;"></line><line transform="translate(130,0)" x2="0" y2="5" style="fill: none; stroke: #888; stroke-width: 1; opacity: 1;"></line><line transform="translate(140,0)" x2="0" y2="5" style="fill: none; stroke: #888; stroke-width: 1; opacity: 1;"></line><line transform="translate(150,0)" x2="0" y2="5" style="fill: none; stroke: #888; stroke-width: 1; opacity: 1;"></line><line transform="translate(160,0)" x2="0" y2="5" style="fill: none; stroke: #888; stroke-width: 1; opacity: 1;"></line><line transform="translate(170,0)" x2="0" y2="5" style="fill: none; stroke: #888; stroke-width: 1; opacity: 1;"></line><line transform="translate(180,0)" x2="0" y2="5" style="fill: none; stroke: #888; stroke-width: 1; opacity: 1;"></line><line transform="translate(190,0)" x2="0" y2="5" style="fill: none; stroke: #888; stroke-width: 1; opacity: 1;"></line><line transform="translate(200,0)" x2="0" y2="5" style="fill: none; stroke: #888; stroke-width: 1; opacity: 1;"></line><line transform="translate(210,0)" x2="0" y2="5" style="fill: none; stroke: #888; stroke-width: 1; opacity: 1;"></line><line transform="translate(220,0)" x2="0" y2="5" style="fill: none; stroke: #888; stroke-width: 1; opacity: 1;"></line><line transform="translate(230,0)" x2="0" y2="5" style="fill: none; stroke: #888; stroke-width: 1; opacity: 1;"></line><line transform="translate(240,0)" x2="0" y2="5" style="fill: none; stroke: #888; stroke-width: 1; opacity: 1;"></line><line transform="translate(250,0)" x2="0" y2="5" style="fill: none; stroke: #888; stroke-width: 1; opacity: 1;"></line><line transform="translate(260,0)" x2="0" y2="5" style="fill: none; stroke: #888; stroke-width: 1; opacity: 1;"></line><line transform="translate(270,0)" x2="0" y2="5" style="fill: none; stroke: #888; stroke-width: 1; opacity: 1;"></line><line transform="translate(280,0)" x2="0" y2="5" style="fill: none; stroke: #888; stroke-width: 1; opacity: 1;"></line><line transform="translate(290,0)" x2="0" y2="5" style="fill: none; stroke: #888; stroke-width: 1; opacity: 1;"></line><line transform="translate(300,0)" x2="0" y2="5" style="fill: none; stroke: #888; stroke-width: 1; opacity: 1;"></line><line transform="translate(310,0)" x2="0" y2="5" style="fill: none; stroke: #888; stroke-width: 1; opacity: 1;"></line><line transform="translate(320,0)" x2="0" y2="5" style="fill: none; stroke: #888; stroke-width: 1; opacity: 1;"></line><line transform="translate(330,0)" x2="0" y2="5" style="fill: none; stroke: #888; stroke-width: 1; opacity: 1;"></line><line transform="translate(340,0)" x2="0" y2="5" style="fill: none; stroke: #888; stroke-width: 1; opacity: 1;"></line><line transform="translate(350,0)" x2="0" y2="5" style="fill: none; stroke: #888; stroke-width: 1; opacity: 1;"></line><line transform="translate(360,0)" x2="0" y2="5" style="fill: none; stroke: #888; stroke-width: 1; opacity: 1;"></line></g><g class="mark-text role-axis-label" style="pointer-events: none;"><text text-anchor="middle" transform="translate(50,19)" style="font-family: sans-serif; font-size: 15px; fill: #000; opacity: 1;">5</text><text text-anchor="middle" transform="translate(60,19)" style="font-family: sans-serif; font-size: 15px; fill: #000; opacity: 0;">6</text><text text-anchor="middle" transform="translate(70,19)" style="font-family: sans-serif; font-size: 15px; fill: #000; opacity: 1;">7</text><text text-anchor="middle" transform="translate(80,19)" style="font-family: sans-serif; font-size: 15px; fill: #000; opacity: 0;">8</text><text text-anchor="middle" transform="translate(90,19)" style="font-family: sans-serif; font-size: 15px; fill: #000; opacity: 1;">9</text><text text-anchor="middle" transform="translate(100,19)" style="font-family: sans-serif; font-size: 15px; fill: #000; opacity: 0;">10</text><text text-anchor="middle" transform="translate(110.00000000000001,19)" style="font-family: sans-serif; font-size: 15px; fill: #000; opacity: 1;">11</text><text text-anchor="middle" transform="translate(120,19)" style="font-family: sans-serif; font-size: 15px; fill: #000; opacity: 0;">12</text><text text-anchor="middle" transform="translate(130,19)" style="font-family: sans-serif; font-size: 15px; fill: #000; opacity: 1;">13</text><text text-anchor="middle" transform="translate(140,19)" style="font-family: sans-serif; font-size: 15px; fill: #000; opacity: 0;">14</text><text text-anchor="middle" transform="translate(150,19)" style="font-family: sans-serif; font-size: 15px; fill: #000; opacity: 1;">15</text><text text-anchor="middle" transform="translate(160,19)" style="font-family: sans-serif; font-size: 15px; fill: #000; opacity: 0;">16</text><text text-anchor="middle" transform="translate(170,19)" style="font-family: sans-serif; font-size: 15px; fill: #000; opacity: 1;">17</text><text text-anchor="middle" transform="translate(180,19)" style="font-family: sans-serif; font-size: 15px; fill: #000; opacity: 0;">18</text><text text-anchor="middle" transform="translate(190,19)" style="font-family: sans-serif; font-size: 15px; fill: #000; opacity: 1;">19</text><text text-anchor="middle" transform="translate(200,19)" style="font-family: sans-serif; font-size: 15px; fill: #000; opacity: 0;">20</text><text text-anchor="middle" transform="translate(210,19)" style="font-family: sans-serif; font-size: 15px; fill: #000; opacity: 1;">21</text><text text-anchor="middle" transform="translate(220.00000000000003,19)" style="font-family: sans-serif; font-size: 15px; fill: #000; opacity: 0;">22</text><text text-anchor="middle" transform="translate(229.99999999999997,19)" style="font-family: sans-serif; font-size: 15px; fill: #000; opacity: 1;">23</text><text text-anchor="middle" transform="translate(240,19)" style="font-family: sans-serif; font-size: 15px; fill: #000; opacity: 0;">24</text><text text-anchor="middle" transform="translate(250,19)" style="font-family: sans-serif; font-size: 15px; fill: #000; opacity: 1;">25</text><text text-anchor="middle" transform="translate(260,19)" style="font-family: sans-serif; font-size: 15px; fill: #000; opacity: 0;">26</text><text text-anchor="middle" transform="translate(270,19)" style="font-family: sans-serif; font-size: 15px; fill: #000; opacity: 1;">27</text><text text-anchor="middle" transform="translate(280,19)" style="font-family: sans-serif; font-size: 15px; fill: #000; opacity: 0;">28</text><text text-anchor="middle" transform="translate(290,19)" style="font-family: sans-serif; font-size: 15px; fill: #000; opacity: 1;">29</text><text text-anchor="middle" transform="translate(300,19)" style="font-family: sans-serif; font-size: 15px; fill: #000; opacity: 0;">30</text><text text-anchor="middle" transform="translate(310,19)" style="font-family: sans-serif; font-size: 15px; fill: #000; opacity: 1;">31</text><text text-anchor="middle" transform="translate(320,19)" style="font-family: sans-serif; font-size: 15px; fill: #000; opacity: 0;">32</text><text text-anchor="middle" transform="translate(330,19)" style="font-family: sans-serif; font-size: 15px; fill: #000; opacity: 1;">33</text><text text-anchor="middle" transform="translate(340,19)" style="font-family: sans-serif; font-size: 15px; fill: #000; opacity: 0;">34</text><text text-anchor="middle" transform="translate(350,19)" style="font-family: sans-serif; font-size: 15px; fill: #000; opacity: 1;">35</text><text text-anchor="middle" transform="translate(360,19)" style="font-family: sans-serif; font-size: 15px; fill: #000; opacity: 0;">36</text></g><g class="mark-rule role-axis-domain" style="pointer-events: none;"><line transform="translate(0,0)" x2="400" y2="0" style="fill: none; stroke: #888; stroke-width: 1; opacity: 1;"></line></g><g class="mark-text role-axis-title" style="pointer-events: none;"><text text-anchor="middle" transform="translate(200,42)" style="font-family: Helvetica Neue; font-size: 20px; font-weight: bold; fill: #000; opacity: 1;">Variable</text></g></g><path class="foreground" d="" style="pointer-events: none; display: none; fill: none;"></path></g></g><g class="mark-group role-axis"><g transform="translate(0.5,0.5)"><path class="background" d="M0,0h0v0h0Z" style="pointer-events: none; fill: none;"></path><g><g class="mark-rule role-axis-tick" style="pointer-events: none;"><line transform="translate(0,400)" x2="-5" y2="0" style="fill: none; stroke: #888; stroke-width: 1; opacity: 1;"></line><line transform="translate(0,360)" x2="-5" y2="0" style="fill: none; stroke: #888; stroke-width: 1; opacity: 1;"></line><line transform="translate(0,320)" x2="-5" y2="0" style="fill: none; stroke: #888; stroke-width: 1; opacity: 1;"></line><line transform="translate(0,280)" x2="-5" y2="0" style="fill: none; stroke: #888; stroke-width: 1; opacity: 1;"></line><line transform="translate(0,240)" x2="-5" y2="0" style="fill: none; stroke: #888; stroke-width: 1; opacity: 1;"></line><line transform="translate(0,200)" x2="-5" y2="0" style="fill: none; stroke: #888; stroke-width: 1; opacity: 1;"></line><line transform="translate(0,160)" x2="-5" y2="0" style="fill: none; stroke: #888; stroke-width: 1; opacity: 1;"></line><line transform="translate(0,120)" x2="-5" y2="0" style="fill: none; stroke: #888; stroke-width: 1; opacity: 1;"></line><line transform="translate(0,80)" x2="-5" y2="0" style="fill: none; stroke: #888; stroke-width: 1; opacity: 1;"></line><line transform="translate(0,40)" x2="-5" y2="0" style="fill: none; stroke: #888; stroke-width: 1; opacity: 1;"></line><line transform="translate(0,0)" x2="-5" y2="0" style="fill: none; stroke: #888; stroke-width: 1; opacity: 1;"></line></g><g class="mark-text role-axis-label" style="pointer-events: none;"><text text-anchor="end" transform="translate(-7,405)" style="font-family: sans-serif; font-size: 15px; fill: #000; opacity: 1;">0</text><text text-anchor="end" transform="translate(-7,365)" style="font-family: sans-serif; font-size: 15px; fill: #000; opacity: 1;">10</text><text text-anchor="end" transform="translate(-7,325)" style="font-family: sans-serif; font-size: 15px; fill: #000; opacity: 1;">20</text><text text-anchor="end" transform="translate(-7,285)" style="font-family: sans-serif; font-size: 15px; fill: #000; opacity: 1;">30</text><text text-anchor="end" transform="translate(-7,245)" style="font-family: sans-serif; font-size: 15px; fill: #000; opacity: 1;">40</text><text text-anchor="end" transform="translate(-7,205)" style="font-family: sans-serif; font-size: 15px; fill: #000; opacity: 1;">50</text><text text-anchor="end" transform="translate(-7,165)" style="font-family: sans-serif; font-size: 15px; fill: #000; opacity: 1;">60</text><text text-anchor="end" transform="translate(-7,125.00000000000001)" style="font-family: sans-serif; font-size: 15px; fill: #000; opacity: 1;">70</text><text text-anchor="end" transform="translate(-7,84.99999999999999)" style="font-family: sans-serif; font-size: 15px; fill: #000; opacity: 1;">80</text><text text-anchor="end" transform="translate(-7,44.99999999999999)" style="font-family: sans-serif; font-size: 15px; fill: #000; opacity: 1;">90</text><text text-anchor="end" transform="translate(-7,5)" style="font-family: sans-serif; font-size: 15px; fill: #000; opacity: 1;">100</text></g><g class="mark-rule role-axis-domain" style="pointer-events: none;"><line transform="translate(0,400)" x2="0" y2="-400" style="fill: none; stroke: #888; stroke-width: 1; opacity: 1;"></line></g><g class="mark-text role-axis-title" style="pointer-events: none;"><text text-anchor="middle" transform="translate(-36.02685546875,200) rotate(-90) translate(0,-4)" style="font-family: Helvetica Neue; font-size: 20px; font-weight: bold; fill: #000; opacity: 1;">Densidad</text></g></g><path class="foreground" d="" style="pointer-events: none; display: none; fill: none;"></path></g></g><g class="mark-rect role-mark layer_0_marks"><path d="M181,75.99999999999997h9v324h-9Z" style="fill: #4c78a8;"></path><path d="M171,124.00000000000003h9v276h-9Z" style="fill: #4c78a8;"></path><path d="M191,83.99999999999999h9v316h-9Z" style="fill: #4c78a8;"></path><path d="M201,35.999999999999986h9v364h-9Z" style="fill: #4c78a8;"></path><path d="M81,376h9v24h-9Z" style="fill: #4c78a8;"></path><path d="M221.00000000000003,75.99999999999997h8.999999999999943v324h-8.999999999999943Z" style="fill: #4c78a8;"></path><path d="M301,364h9v36h-9Z" style="fill: #4c78a8;"></path><path d="M211,148h9.000000000000028v252h-9.000000000000028Z" style="fill: #4c78a8;"></path><path d="M271,308h9v92h-9Z" style="fill: #4c78a8;"></path><path d="M151,140h9v260h-9Z" style="fill: #4c78a8;"></path><path d="M230.99999999999997,136h9.000000000000028v264h-9.000000000000028Z" style="fill: #4c78a8;"></path><path d="M241,224.00000000000003h9v175.99999999999997h-9Z" style="fill: #4c78a8;"></path><path d="M141,248h9v152h-9Z" style="fill: #4c78a8;"></path><path d="M131,296h9v104h-9Z" style="fill: #4c78a8;"></path><path d="M91,364h9v36h-9Z" style="fill: #4c78a8;"></path><path d="M161,152h9v248h-9Z" style="fill: #4c78a8;"></path><path d="M251,228.00000000000003h9v171.99999999999997h-9Z" style="fill: #4c78a8;"></path><path d="M341,388h9v12h-9Z" style="fill: #4c78a8;"></path><path d="M321,372h9v28h-9Z" style="fill: #4c78a8;"></path><path d="M121,284h9v116h-9Z" style="fill: #4c78a8;"></path><path d="M291,352h9v48h-9Z" style="fill: #4c78a8;"></path><path d="M281,344h9v56h-9Z" style="fill: #4c78a8;"></path><path d="M111.00000000000001,332h8.999999999999986v68h-8.999999999999986Z" style="fill: #4c78a8;"></path><path d="M311,384h9v16h-9Z" style="fill: #4c78a8;"></path><path d="M61,392h9v8h-9Z" style="fill: #4c78a8;"></path><path d="M101,360h9.000000000000014v40h-9.000000000000014Z" style="fill: #4c78a8;"></path><path d="M261,260h9v140h-9Z" style="fill: #4c78a8;"></path><path d="M51,392h9v8h-9Z" style="fill: #4c78a8;"></path><path d="M71,376h9v24h-9Z" style="fill: #4c78a8;"></path><path d="M351,392h9v8h-9Z" style="fill: #4c78a8;"></path><path d="M331,392h9v8h-9Z" style="fill: #4c78a8;"></path></g><g class="mark-line role-mark layer_1_marks"><path d="M55.08553139529383,393.1104096110191L61.07228194042642,389.9134948463654L67.05903248555903,386.41058452110116L73.04578303069162,382.4181705855979L79.03253357582423,377.95109165414607L85.01928412095683,373.30318114896477L91.00603466608943,368.4823048733209L96.99278521122203,362.328382286112L102.97953575635464,353.13214557715594L108.96628630148722,340.6701938490337L114.95303684661984,326.39603186739754L120.93978739175245,311.7439983976014L126.92653793688504,297.38750137582895L132.91328848201763,282.2083539522179L138.90003902715026,262.1600330917068L144.88678957228285,234.03533086498757L150.87354011741544,201.20421843325573L156.86029066254804,171.4643273916649L162.8470412076806,148.6553146196643L168.83379175281328,130.16731782035453L174.82054229794585,112.53448962356747L180.80729284307844,95.59527659046978L186.79404338821104,81.25182908462114L192.78079393334366,71.62938821194462L198.76754447847625,69.56652044414878L204.75429502360885,77.45808264821163L210.74104556874147,92.18189558458674L216.72779611387404,105.55752643125427L222.7145466590067,114.80146125232649L228.70129720413925,127.23102035524323L234.68804774927187,149.90636640219282L240.67479829440447,179.56841010909162L246.66154883953703,206.9246433283933L252.64829938466966,227.5704328299163L258.6350499298023,244.92151176868902L264.62180047493484,264.2653848826628L270.60855102006747,286.9904878641429L276.5953015652001,310.06544417527675L282.5820521103327,329.45217026545913L288.5688026554653,343.3529747968927L294.55555320059784,352.86175621753L300.5423037457304,360.4597645601932L306.52905429086303,367.5135176568568L312.5158048359957,373.3090352320652L318.5025553811283,377.09165465815954L324.48930592626084,379.8199879238562L330.4760564713935,382.7759910549713L336.4628070165261,385.71572396460977L342.44955756165865,387.8507961562584L348.4363081067913,389.6579105215021L354.4230586519239,392.1764143892041" style="fill: none; stroke: red; stroke-width: 5; opacity: 1;"></path></g></g><path class="foreground" d="" style="display: none; fill: none;"></path></g></g></g></svg>