<?xml version="1.0" encoding="UTF-8" standalone="no"?>
<!DOCTYPE svg PUBLIC "-//W3C//DTD SVG 1.1//EN"
 "http://www.w3.org/Graphics/SVG/1.1/DTD/svg11.dtd">
<!-- Generated by graphviz version 2.44.0 (20200408.0750)
 -->
<!-- Title: G Pages: 1 -->
<svg width="238pt" height="102pt"
 viewBox="0.00 0.00 238.00 102.00" xmlns="http://www.w3.org/2000/svg" xmlns:xlink="http://www.w3.org/1999/xlink">
<g id="graph0" class="graph" transform="scale(1 1) rotate(0) translate(4 98)">
<title>G</title>
<polygon fill="white" stroke="transparent" points="-4,4 -4,-98 234,-98 234,4 -4,4"/>
<!-- a -->
<g id="node1" class="node">
<title>a</title>
<polygon fill="none" stroke="black" points="76.5,-94 0.5,-94 0.5,-56 76.5,-56 76.5,-94"/>
<text text-anchor="middle" x="38.5" y="-78.8" font-family="Times,serif" font-size="14.00">Prior</text>
<text text-anchor="middle" x="38.5" y="-63.8" font-family="Times,serif" font-size="14.00">(creencias)</text>
</g>
<!-- c -->
<g id="node2" class="node">
<title>c</title>
<polygon fill="none" stroke="black" points="230,-66 113,-66 113,-28 230,-28 230,-66"/>
<text text-anchor="middle" x="171.5" y="-50.8" font-family="Times,serif" font-size="14.00">Posterior</text>
<text text-anchor="middle" x="171.5" y="-35.8" font-family="Times,serif" font-size="14.00">(nuevas creencias)</text>
</g>
<!-- a&#45;&gt;c -->
<g id="edge1" class="edge">
<title>a&#45;&gt;c</title>
<path fill="none" stroke="black" d="M76.69,-67.05C84.82,-65.31 93.68,-63.42 102.59,-61.51"/>
<polygon fill="black" stroke="black" points="103.6,-64.88 112.65,-59.37 102.14,-58.03 103.6,-64.88"/>
</g>
<!-- b -->
<g id="node3" class="node">
<title>b</title>
<polygon fill="none" stroke="black" points="77,-38 0,-38 0,0 77,0 77,-38"/>
<text text-anchor="middle" x="38.5" y="-22.8" font-family="Times,serif" font-size="14.00">Likelihood</text>
<text text-anchor="middle" x="38.5" y="-7.8" font-family="Times,serif" font-size="14.00">(evidencia)</text>
</g>
<!-- b&#45;&gt;c -->
<g id="edge2" class="edge">
<title>b&#45;&gt;c</title>
<path fill="none" stroke="black" d="M77.04,-27.02C85.17,-28.76 94.01,-30.65 102.9,-32.55"/>
<polygon fill="black" stroke="black" points="102.41,-36.03 112.92,-34.69 103.87,-29.18 102.41,-36.03"/>
</g>
</g>
</svg>
