<?xml version="1.0" encoding="utf-8" standalone="no"?>
<!DOCTYPE svg PUBLIC "-//W3C//DTD SVG 1.1//EN"
  "http://www.w3.org/Graphics/SVG/1.1/DTD/svg11.dtd">
<!-- Created with matplotlib (https://matplotlib.org/) -->
<svg height="360pt" version="1.1" viewBox="0 0 720 360" width="720pt" xmlns="http://www.w3.org/2000/svg" xmlns:xlink="http://www.w3.org/1999/xlink">
 <defs>
  <style type="text/css">
*{stroke-linecap:butt;stroke-linejoin:round;}
  </style>
 </defs>
 <g id="figure_1">
  <g id="patch_1">
   <path d="M 0 360 
L 720 360 
L 720 0 
L 0 0 
z
" style="fill:#ffffff;"/>
  </g>
  <g id="axes_1">
   <g id="patch_2">
    <path d="M 90 315 
L 648 315 
L 648 43.2 
L 90 43.2 
z
" style="fill:#ffffff;"/>
   </g>
   <g id="matplotlib.axis_1">
    <g id="xtick_1">
     <g id="line2d_1">
      <defs>
       <path d="M 0 0 
L 0 3.5 
" id="m5f4ba2b96a" style="stroke:#000000;stroke-width:0.8;"/>
      </defs>
      <g>
       <use style="stroke:#000000;stroke-width:0.8;" x="99.681818" xlink:href="#m5f4ba2b96a" y="315"/>
      </g>
     </g>
     <g id="text_1">
      <!-- −20 -->
      <defs>
       <path d="M 10.59375 35.5 
L 73.1875 35.5 
L 73.1875 27.203125 
L 10.59375 27.203125 
z
" id="DejaVuSans-8722"/>
       <path d="M 19.1875 8.296875 
L 53.609375 8.296875 
L 53.609375 0 
L 7.328125 0 
L 7.328125 8.296875 
Q 12.9375 14.109375 22.625 23.890625 
Q 32.328125 33.6875 34.8125 36.53125 
Q 39.546875 41.84375 41.421875 45.53125 
Q 43.3125 49.21875 43.3125 52.78125 
Q 43.3125 58.59375 39.234375 62.25 
Q 35.15625 65.921875 28.609375 65.921875 
Q 23.96875 65.921875 18.8125 64.3125 
Q 13.671875 62.703125 7.8125 59.421875 
L 7.8125 69.390625 
Q 13.765625 71.78125 18.9375 73 
Q 24.125 74.21875 28.421875 74.21875 
Q 39.75 74.21875 46.484375 68.546875 
Q 53.21875 62.890625 53.21875 53.421875 
Q 53.21875 48.921875 51.53125 44.890625 
Q 49.859375 40.875 45.40625 35.40625 
Q 44.1875 33.984375 37.640625 27.21875 
Q 31.109375 20.453125 19.1875 8.296875 
z
" id="DejaVuSans-50"/>
       <path d="M 31.78125 66.40625 
Q 24.171875 66.40625 20.328125 58.90625 
Q 16.5 51.421875 16.5 36.375 
Q 16.5 21.390625 20.328125 13.890625 
Q 24.171875 6.390625 31.78125 6.390625 
Q 39.453125 6.390625 43.28125 13.890625 
Q 47.125 21.390625 47.125 36.375 
Q 47.125 51.421875 43.28125 58.90625 
Q 39.453125 66.40625 31.78125 66.40625 
z
M 31.78125 74.21875 
Q 44.046875 74.21875 50.515625 64.515625 
Q 56.984375 54.828125 56.984375 36.375 
Q 56.984375 17.96875 50.515625 8.265625 
Q 44.046875 -1.421875 31.78125 -1.421875 
Q 19.53125 -1.421875 13.0625 8.265625 
Q 6.59375 17.96875 6.59375 36.375 
Q 6.59375 54.828125 13.0625 64.515625 
Q 19.53125 74.21875 31.78125 74.21875 
z
" id="DejaVuSans-48"/>
      </defs>
      <g transform="translate(89.129474 329.598437)scale(0.1 -0.1)">
       <use xlink:href="#DejaVuSans-8722"/>
       <use x="83.789062" xlink:href="#DejaVuSans-50"/>
       <use x="147.412109" xlink:href="#DejaVuSans-48"/>
      </g>
     </g>
    </g>
    <g id="xtick_2">
     <g id="line2d_2">
      <g>
       <use style="stroke:#000000;stroke-width:0.8;" x="167.522727" xlink:href="#m5f4ba2b96a" y="315"/>
      </g>
     </g>
     <g id="text_2">
      <!-- −15 -->
      <defs>
       <path d="M 12.40625 8.296875 
L 28.515625 8.296875 
L 28.515625 63.921875 
L 10.984375 60.40625 
L 10.984375 69.390625 
L 28.421875 72.90625 
L 38.28125 72.90625 
L 38.28125 8.296875 
L 54.390625 8.296875 
L 54.390625 0 
L 12.40625 0 
z
" id="DejaVuSans-49"/>
       <path d="M 10.796875 72.90625 
L 49.515625 72.90625 
L 49.515625 64.59375 
L 19.828125 64.59375 
L 19.828125 46.734375 
Q 21.96875 47.46875 24.109375 47.828125 
Q 26.265625 48.1875 28.421875 48.1875 
Q 40.625 48.1875 47.75 41.5 
Q 54.890625 34.8125 54.890625 23.390625 
Q 54.890625 11.625 47.5625 5.09375 
Q 40.234375 -1.421875 26.90625 -1.421875 
Q 22.3125 -1.421875 17.546875 -0.640625 
Q 12.796875 0.140625 7.71875 1.703125 
L 7.71875 11.625 
Q 12.109375 9.234375 16.796875 8.0625 
Q 21.484375 6.890625 26.703125 6.890625 
Q 35.15625 6.890625 40.078125 11.328125 
Q 45.015625 15.765625 45.015625 23.390625 
Q 45.015625 31 40.078125 35.4375 
Q 35.15625 39.890625 26.703125 39.890625 
Q 22.75 39.890625 18.8125 39.015625 
Q 14.890625 38.140625 10.796875 36.28125 
z
" id="DejaVuSans-53"/>
      </defs>
      <g transform="translate(156.970384 329.598437)scale(0.1 -0.1)">
       <use xlink:href="#DejaVuSans-8722"/>
       <use x="83.789062" xlink:href="#DejaVuSans-49"/>
       <use x="147.412109" xlink:href="#DejaVuSans-53"/>
      </g>
     </g>
    </g>
    <g id="xtick_3">
     <g id="line2d_3">
      <g>
       <use style="stroke:#000000;stroke-width:0.8;" x="235.363636" xlink:href="#m5f4ba2b96a" y="315"/>
      </g>
     </g>
     <g id="text_3">
      <!-- −10 -->
      <g transform="translate(224.811293 329.598437)scale(0.1 -0.1)">
       <use xlink:href="#DejaVuSans-8722"/>
       <use x="83.789062" xlink:href="#DejaVuSans-49"/>
       <use x="147.412109" xlink:href="#DejaVuSans-48"/>
      </g>
     </g>
    </g>
    <g id="xtick_4">
     <g id="line2d_4">
      <g>
       <use style="stroke:#000000;stroke-width:0.8;" x="303.204545" xlink:href="#m5f4ba2b96a" y="315"/>
      </g>
     </g>
     <g id="text_4">
      <!-- −5 -->
      <g transform="translate(295.833452 329.598437)scale(0.1 -0.1)">
       <use xlink:href="#DejaVuSans-8722"/>
       <use x="83.789062" xlink:href="#DejaVuSans-53"/>
      </g>
     </g>
    </g>
    <g id="xtick_5">
     <g id="line2d_5">
      <g>
       <use style="stroke:#000000;stroke-width:0.8;" x="371.045455" xlink:href="#m5f4ba2b96a" y="315"/>
      </g>
     </g>
     <g id="text_5">
      <!-- 0 -->
      <g transform="translate(367.864205 329.598437)scale(0.1 -0.1)">
       <use xlink:href="#DejaVuSans-48"/>
      </g>
     </g>
    </g>
    <g id="xtick_6">
     <g id="line2d_6">
      <g>
       <use style="stroke:#000000;stroke-width:0.8;" x="438.886364" xlink:href="#m5f4ba2b96a" y="315"/>
      </g>
     </g>
     <g id="text_6">
      <!-- 5 -->
      <g transform="translate(435.705114 329.598437)scale(0.1 -0.1)">
       <use xlink:href="#DejaVuSans-53"/>
      </g>
     </g>
    </g>
    <g id="xtick_7">
     <g id="line2d_7">
      <g>
       <use style="stroke:#000000;stroke-width:0.8;" x="506.727273" xlink:href="#m5f4ba2b96a" y="315"/>
      </g>
     </g>
     <g id="text_7">
      <!-- 10 -->
      <g transform="translate(500.364773 329.598437)scale(0.1 -0.1)">
       <use xlink:href="#DejaVuSans-49"/>
       <use x="63.623047" xlink:href="#DejaVuSans-48"/>
      </g>
     </g>
    </g>
    <g id="xtick_8">
     <g id="line2d_8">
      <g>
       <use style="stroke:#000000;stroke-width:0.8;" x="574.568182" xlink:href="#m5f4ba2b96a" y="315"/>
      </g>
     </g>
     <g id="text_8">
      <!-- 15 -->
      <g transform="translate(568.205682 329.598437)scale(0.1 -0.1)">
       <use xlink:href="#DejaVuSans-49"/>
       <use x="63.623047" xlink:href="#DejaVuSans-53"/>
      </g>
     </g>
    </g>
    <g id="xtick_9">
     <g id="line2d_9">
      <g>
       <use style="stroke:#000000;stroke-width:0.8;" x="642.409091" xlink:href="#m5f4ba2b96a" y="315"/>
      </g>
     </g>
     <g id="text_9">
      <!-- 20 -->
      <g transform="translate(636.046591 329.598437)scale(0.1 -0.1)">
       <use xlink:href="#DejaVuSans-50"/>
       <use x="63.623047" xlink:href="#DejaVuSans-48"/>
      </g>
     </g>
    </g>
    <g id="text_10">
     <!-- Hipótesis -->
     <defs>
      <path d="M 9.8125 72.90625 
L 19.671875 72.90625 
L 19.671875 43.015625 
L 55.515625 43.015625 
L 55.515625 72.90625 
L 65.375 72.90625 
L 65.375 0 
L 55.515625 0 
L 55.515625 34.71875 
L 19.671875 34.71875 
L 19.671875 0 
L 9.8125 0 
z
" id="DejaVuSans-72"/>
      <path d="M 9.421875 54.6875 
L 18.40625 54.6875 
L 18.40625 0 
L 9.421875 0 
z
M 9.421875 75.984375 
L 18.40625 75.984375 
L 18.40625 64.59375 
L 9.421875 64.59375 
z
" id="DejaVuSans-105"/>
      <path d="M 18.109375 8.203125 
L 18.109375 -20.796875 
L 9.078125 -20.796875 
L 9.078125 54.6875 
L 18.109375 54.6875 
L 18.109375 46.390625 
Q 20.953125 51.265625 25.265625 53.625 
Q 29.59375 56 35.59375 56 
Q 45.5625 56 51.78125 48.09375 
Q 58.015625 40.1875 58.015625 27.296875 
Q 58.015625 14.40625 51.78125 6.484375 
Q 45.5625 -1.421875 35.59375 -1.421875 
Q 29.59375 -1.421875 25.265625 0.953125 
Q 20.953125 3.328125 18.109375 8.203125 
z
M 48.6875 27.296875 
Q 48.6875 37.203125 44.609375 42.84375 
Q 40.53125 48.484375 33.40625 48.484375 
Q 26.265625 48.484375 22.1875 42.84375 
Q 18.109375 37.203125 18.109375 27.296875 
Q 18.109375 17.390625 22.1875 11.75 
Q 26.265625 6.109375 33.40625 6.109375 
Q 40.53125 6.109375 44.609375 11.75 
Q 48.6875 17.390625 48.6875 27.296875 
z
" id="DejaVuSans-112"/>
      <path d="M 30.609375 48.390625 
Q 23.390625 48.390625 19.1875 42.75 
Q 14.984375 37.109375 14.984375 27.296875 
Q 14.984375 17.484375 19.15625 11.84375 
Q 23.34375 6.203125 30.609375 6.203125 
Q 37.796875 6.203125 41.984375 11.859375 
Q 46.1875 17.53125 46.1875 27.296875 
Q 46.1875 37.015625 41.984375 42.703125 
Q 37.796875 48.390625 30.609375 48.390625 
z
M 30.609375 56 
Q 42.328125 56 49.015625 48.375 
Q 55.71875 40.765625 55.71875 27.296875 
Q 55.71875 13.875 49.015625 6.21875 
Q 42.328125 -1.421875 30.609375 -1.421875 
Q 18.84375 -1.421875 12.171875 6.21875 
Q 5.515625 13.875 5.515625 27.296875 
Q 5.515625 40.765625 12.171875 48.375 
Q 18.84375 56 30.609375 56 
z
M 37.40625 79.984375 
L 47.125 79.984375 
L 31.203125 61.625 
L 23.734375 61.625 
z
" id="DejaVuSans-243"/>
      <path d="M 18.3125 70.21875 
L 18.3125 54.6875 
L 36.8125 54.6875 
L 36.8125 47.703125 
L 18.3125 47.703125 
L 18.3125 18.015625 
Q 18.3125 11.328125 20.140625 9.421875 
Q 21.96875 7.515625 27.59375 7.515625 
L 36.8125 7.515625 
L 36.8125 0 
L 27.59375 0 
Q 17.1875 0 13.234375 3.875 
Q 9.28125 7.765625 9.28125 18.015625 
L 9.28125 47.703125 
L 2.6875 47.703125 
L 2.6875 54.6875 
L 9.28125 54.6875 
L 9.28125 70.21875 
z
" id="DejaVuSans-116"/>
      <path d="M 56.203125 29.59375 
L 56.203125 25.203125 
L 14.890625 25.203125 
Q 15.484375 15.921875 20.484375 11.0625 
Q 25.484375 6.203125 34.421875 6.203125 
Q 39.59375 6.203125 44.453125 7.46875 
Q 49.3125 8.734375 54.109375 11.28125 
L 54.109375 2.78125 
Q 49.265625 0.734375 44.1875 -0.34375 
Q 39.109375 -1.421875 33.890625 -1.421875 
Q 20.796875 -1.421875 13.15625 6.1875 
Q 5.515625 13.8125 5.515625 26.8125 
Q 5.515625 40.234375 12.765625 48.109375 
Q 20.015625 56 32.328125 56 
Q 43.359375 56 49.78125 48.890625 
Q 56.203125 41.796875 56.203125 29.59375 
z
M 47.21875 32.234375 
Q 47.125 39.59375 43.09375 43.984375 
Q 39.0625 48.390625 32.421875 48.390625 
Q 24.90625 48.390625 20.390625 44.140625 
Q 15.875 39.890625 15.1875 32.171875 
z
" id="DejaVuSans-101"/>
      <path d="M 44.28125 53.078125 
L 44.28125 44.578125 
Q 40.484375 46.53125 36.375 47.5 
Q 32.28125 48.484375 27.875 48.484375 
Q 21.1875 48.484375 17.84375 46.4375 
Q 14.5 44.390625 14.5 40.28125 
Q 14.5 37.15625 16.890625 35.375 
Q 19.28125 33.59375 26.515625 31.984375 
L 29.59375 31.296875 
Q 39.15625 29.25 43.1875 25.515625 
Q 47.21875 21.78125 47.21875 15.09375 
Q 47.21875 7.46875 41.1875 3.015625 
Q 35.15625 -1.421875 24.609375 -1.421875 
Q 20.21875 -1.421875 15.453125 -0.5625 
Q 10.6875 0.296875 5.421875 2 
L 5.421875 11.28125 
Q 10.40625 8.6875 15.234375 7.390625 
Q 20.0625 6.109375 24.8125 6.109375 
Q 31.15625 6.109375 34.5625 8.28125 
Q 37.984375 10.453125 37.984375 14.40625 
Q 37.984375 18.0625 35.515625 20.015625 
Q 33.0625 21.96875 24.703125 23.78125 
L 21.578125 24.515625 
Q 13.234375 26.265625 9.515625 29.90625 
Q 5.8125 33.546875 5.8125 39.890625 
Q 5.8125 47.609375 11.28125 51.796875 
Q 16.75 56 26.8125 56 
Q 31.78125 56 36.171875 55.265625 
Q 40.578125 54.546875 44.28125 53.078125 
z
" id="DejaVuSans-115"/>
     </defs>
     <g transform="translate(345.982031 343.676562)scale(0.1 -0.1)">
      <use xlink:href="#DejaVuSans-72"/>
      <use x="75.195312" xlink:href="#DejaVuSans-105"/>
      <use x="102.978516" xlink:href="#DejaVuSans-112"/>
      <use x="166.455078" xlink:href="#DejaVuSans-243"/>
      <use x="227.636719" xlink:href="#DejaVuSans-116"/>
      <use x="266.845703" xlink:href="#DejaVuSans-101"/>
      <use x="328.369141" xlink:href="#DejaVuSans-115"/>
      <use x="380.46875" xlink:href="#DejaVuSans-105"/>
      <use x="408.251953" xlink:href="#DejaVuSans-115"/>
     </g>
    </g>
   </g>
   <g id="matplotlib.axis_2">
    <g id="ytick_1">
     <g id="line2d_10">
      <defs>
       <path d="M 0 0 
L -3.5 0 
" id="m8f5f021dd1" style="stroke:#000000;stroke-width:0.8;"/>
      </defs>
      <g>
       <use style="stroke:#000000;stroke-width:0.8;" x="90" xlink:href="#m8f5f021dd1" y="302.645455"/>
      </g>
     </g>
     <g id="text_11">
      <!-- 0.0 -->
      <defs>
       <path d="M 10.6875 12.40625 
L 21 12.40625 
L 21 0 
L 10.6875 0 
z
" id="DejaVuSans-46"/>
      </defs>
      <g transform="translate(67.096875 306.444673)scale(0.1 -0.1)">
       <use xlink:href="#DejaVuSans-48"/>
       <use x="63.623047" xlink:href="#DejaVuSans-46"/>
       <use x="95.410156" xlink:href="#DejaVuSans-48"/>
      </g>
     </g>
    </g>
    <g id="ytick_2">
     <g id="line2d_11">
      <g>
       <use style="stroke:#000000;stroke-width:0.8;" x="90" xlink:href="#m8f5f021dd1" y="253.227273"/>
      </g>
     </g>
     <g id="text_12">
      <!-- 0.2 -->
      <g transform="translate(67.096875 257.026491)scale(0.1 -0.1)">
       <use xlink:href="#DejaVuSans-48"/>
       <use x="63.623047" xlink:href="#DejaVuSans-46"/>
       <use x="95.410156" xlink:href="#DejaVuSans-50"/>
      </g>
     </g>
    </g>
    <g id="ytick_3">
     <g id="line2d_12">
      <g>
       <use style="stroke:#000000;stroke-width:0.8;" x="90" xlink:href="#m8f5f021dd1" y="203.809091"/>
      </g>
     </g>
     <g id="text_13">
      <!-- 0.4 -->
      <defs>
       <path d="M 37.796875 64.3125 
L 12.890625 25.390625 
L 37.796875 25.390625 
z
M 35.203125 72.90625 
L 47.609375 72.90625 
L 47.609375 25.390625 
L 58.015625 25.390625 
L 58.015625 17.1875 
L 47.609375 17.1875 
L 47.609375 0 
L 37.796875 0 
L 37.796875 17.1875 
L 4.890625 17.1875 
L 4.890625 26.703125 
z
" id="DejaVuSans-52"/>
      </defs>
      <g transform="translate(67.096875 207.60831)scale(0.1 -0.1)">
       <use xlink:href="#DejaVuSans-48"/>
       <use x="63.623047" xlink:href="#DejaVuSans-46"/>
       <use x="95.410156" xlink:href="#DejaVuSans-52"/>
      </g>
     </g>
    </g>
    <g id="ytick_4">
     <g id="line2d_13">
      <g>
       <use style="stroke:#000000;stroke-width:0.8;" x="90" xlink:href="#m8f5f021dd1" y="154.390909"/>
      </g>
     </g>
     <g id="text_14">
      <!-- 0.6 -->
      <defs>
       <path d="M 33.015625 40.375 
Q 26.375 40.375 22.484375 35.828125 
Q 18.609375 31.296875 18.609375 23.390625 
Q 18.609375 15.53125 22.484375 10.953125 
Q 26.375 6.390625 33.015625 6.390625 
Q 39.65625 6.390625 43.53125 10.953125 
Q 47.40625 15.53125 47.40625 23.390625 
Q 47.40625 31.296875 43.53125 35.828125 
Q 39.65625 40.375 33.015625 40.375 
z
M 52.59375 71.296875 
L 52.59375 62.3125 
Q 48.875 64.0625 45.09375 64.984375 
Q 41.3125 65.921875 37.59375 65.921875 
Q 27.828125 65.921875 22.671875 59.328125 
Q 17.53125 52.734375 16.796875 39.40625 
Q 19.671875 43.65625 24.015625 45.921875 
Q 28.375 48.1875 33.59375 48.1875 
Q 44.578125 48.1875 50.953125 41.515625 
Q 57.328125 34.859375 57.328125 23.390625 
Q 57.328125 12.15625 50.6875 5.359375 
Q 44.046875 -1.421875 33.015625 -1.421875 
Q 20.359375 -1.421875 13.671875 8.265625 
Q 6.984375 17.96875 6.984375 36.375 
Q 6.984375 53.65625 15.1875 63.9375 
Q 23.390625 74.21875 37.203125 74.21875 
Q 40.921875 74.21875 44.703125 73.484375 
Q 48.484375 72.75 52.59375 71.296875 
z
" id="DejaVuSans-54"/>
      </defs>
      <g transform="translate(67.096875 158.190128)scale(0.1 -0.1)">
       <use xlink:href="#DejaVuSans-48"/>
       <use x="63.623047" xlink:href="#DejaVuSans-46"/>
       <use x="95.410156" xlink:href="#DejaVuSans-54"/>
      </g>
     </g>
    </g>
    <g id="ytick_5">
     <g id="line2d_14">
      <g>
       <use style="stroke:#000000;stroke-width:0.8;" x="90" xlink:href="#m8f5f021dd1" y="104.972727"/>
      </g>
     </g>
     <g id="text_15">
      <!-- 0.8 -->
      <defs>
       <path d="M 31.78125 34.625 
Q 24.75 34.625 20.71875 30.859375 
Q 16.703125 27.09375 16.703125 20.515625 
Q 16.703125 13.921875 20.71875 10.15625 
Q 24.75 6.390625 31.78125 6.390625 
Q 38.8125 6.390625 42.859375 10.171875 
Q 46.921875 13.96875 46.921875 20.515625 
Q 46.921875 27.09375 42.890625 30.859375 
Q 38.875 34.625 31.78125 34.625 
z
M 21.921875 38.8125 
Q 15.578125 40.375 12.03125 44.71875 
Q 8.5 49.078125 8.5 55.328125 
Q 8.5 64.0625 14.71875 69.140625 
Q 20.953125 74.21875 31.78125 74.21875 
Q 42.671875 74.21875 48.875 69.140625 
Q 55.078125 64.0625 55.078125 55.328125 
Q 55.078125 49.078125 51.53125 44.71875 
Q 48 40.375 41.703125 38.8125 
Q 48.828125 37.15625 52.796875 32.3125 
Q 56.78125 27.484375 56.78125 20.515625 
Q 56.78125 9.90625 50.3125 4.234375 
Q 43.84375 -1.421875 31.78125 -1.421875 
Q 19.734375 -1.421875 13.25 4.234375 
Q 6.78125 9.90625 6.78125 20.515625 
Q 6.78125 27.484375 10.78125 32.3125 
Q 14.796875 37.15625 21.921875 38.8125 
z
M 18.3125 54.390625 
Q 18.3125 48.734375 21.84375 45.5625 
Q 25.390625 42.390625 31.78125 42.390625 
Q 38.140625 42.390625 41.71875 45.5625 
Q 45.3125 48.734375 45.3125 54.390625 
Q 45.3125 60.0625 41.71875 63.234375 
Q 38.140625 66.40625 31.78125 66.40625 
Q 25.390625 66.40625 21.84375 63.234375 
Q 18.3125 60.0625 18.3125 54.390625 
z
" id="DejaVuSans-56"/>
      </defs>
      <g transform="translate(67.096875 108.771946)scale(0.1 -0.1)">
       <use xlink:href="#DejaVuSans-48"/>
       <use x="63.623047" xlink:href="#DejaVuSans-46"/>
       <use x="95.410156" xlink:href="#DejaVuSans-56"/>
      </g>
     </g>
    </g>
    <g id="ytick_6">
     <g id="line2d_15">
      <g>
       <use style="stroke:#000000;stroke-width:0.8;" x="90" xlink:href="#m8f5f021dd1" y="55.554545"/>
      </g>
     </g>
     <g id="text_16">
      <!-- 1.0 -->
      <g transform="translate(67.096875 59.353764)scale(0.1 -0.1)">
       <use xlink:href="#DejaVuSans-49"/>
       <use x="63.623047" xlink:href="#DejaVuSans-46"/>
       <use x="95.410156" xlink:href="#DejaVuSans-48"/>
      </g>
     </g>
    </g>
    <g id="text_17">
     <!-- Probabilidad  -->
     <defs>
      <path d="M 19.671875 64.796875 
L 19.671875 37.40625 
L 32.078125 37.40625 
Q 38.96875 37.40625 42.71875 40.96875 
Q 46.484375 44.53125 46.484375 51.125 
Q 46.484375 57.671875 42.71875 61.234375 
Q 38.96875 64.796875 32.078125 64.796875 
z
M 9.8125 72.90625 
L 32.078125 72.90625 
Q 44.34375 72.90625 50.609375 67.359375 
Q 56.890625 61.8125 56.890625 51.125 
Q 56.890625 40.328125 50.609375 34.8125 
Q 44.34375 29.296875 32.078125 29.296875 
L 19.671875 29.296875 
L 19.671875 0 
L 9.8125 0 
z
" id="DejaVuSans-80"/>
      <path d="M 41.109375 46.296875 
Q 39.59375 47.171875 37.8125 47.578125 
Q 36.03125 48 33.890625 48 
Q 26.265625 48 22.1875 43.046875 
Q 18.109375 38.09375 18.109375 28.8125 
L 18.109375 0 
L 9.078125 0 
L 9.078125 54.6875 
L 18.109375 54.6875 
L 18.109375 46.1875 
Q 20.953125 51.171875 25.484375 53.578125 
Q 30.03125 56 36.53125 56 
Q 37.453125 56 38.578125 55.875 
Q 39.703125 55.765625 41.0625 55.515625 
z
" id="DejaVuSans-114"/>
      <path d="M 30.609375 48.390625 
Q 23.390625 48.390625 19.1875 42.75 
Q 14.984375 37.109375 14.984375 27.296875 
Q 14.984375 17.484375 19.15625 11.84375 
Q 23.34375 6.203125 30.609375 6.203125 
Q 37.796875 6.203125 41.984375 11.859375 
Q 46.1875 17.53125 46.1875 27.296875 
Q 46.1875 37.015625 41.984375 42.703125 
Q 37.796875 48.390625 30.609375 48.390625 
z
M 30.609375 56 
Q 42.328125 56 49.015625 48.375 
Q 55.71875 40.765625 55.71875 27.296875 
Q 55.71875 13.875 49.015625 6.21875 
Q 42.328125 -1.421875 30.609375 -1.421875 
Q 18.84375 -1.421875 12.171875 6.21875 
Q 5.515625 13.875 5.515625 27.296875 
Q 5.515625 40.765625 12.171875 48.375 
Q 18.84375 56 30.609375 56 
z
" id="DejaVuSans-111"/>
      <path d="M 48.6875 27.296875 
Q 48.6875 37.203125 44.609375 42.84375 
Q 40.53125 48.484375 33.40625 48.484375 
Q 26.265625 48.484375 22.1875 42.84375 
Q 18.109375 37.203125 18.109375 27.296875 
Q 18.109375 17.390625 22.1875 11.75 
Q 26.265625 6.109375 33.40625 6.109375 
Q 40.53125 6.109375 44.609375 11.75 
Q 48.6875 17.390625 48.6875 27.296875 
z
M 18.109375 46.390625 
Q 20.953125 51.265625 25.265625 53.625 
Q 29.59375 56 35.59375 56 
Q 45.5625 56 51.78125 48.09375 
Q 58.015625 40.1875 58.015625 27.296875 
Q 58.015625 14.40625 51.78125 6.484375 
Q 45.5625 -1.421875 35.59375 -1.421875 
Q 29.59375 -1.421875 25.265625 0.953125 
Q 20.953125 3.328125 18.109375 8.203125 
L 18.109375 0 
L 9.078125 0 
L 9.078125 75.984375 
L 18.109375 75.984375 
z
" id="DejaVuSans-98"/>
      <path d="M 34.28125 27.484375 
Q 23.390625 27.484375 19.1875 25 
Q 14.984375 22.515625 14.984375 16.5 
Q 14.984375 11.71875 18.140625 8.90625 
Q 21.296875 6.109375 26.703125 6.109375 
Q 34.1875 6.109375 38.703125 11.40625 
Q 43.21875 16.703125 43.21875 25.484375 
L 43.21875 27.484375 
z
M 52.203125 31.203125 
L 52.203125 0 
L 43.21875 0 
L 43.21875 8.296875 
Q 40.140625 3.328125 35.546875 0.953125 
Q 30.953125 -1.421875 24.3125 -1.421875 
Q 15.921875 -1.421875 10.953125 3.296875 
Q 6 8.015625 6 15.921875 
Q 6 25.140625 12.171875 29.828125 
Q 18.359375 34.515625 30.609375 34.515625 
L 43.21875 34.515625 
L 43.21875 35.40625 
Q 43.21875 41.609375 39.140625 45 
Q 35.0625 48.390625 27.6875 48.390625 
Q 23 48.390625 18.546875 47.265625 
Q 14.109375 46.140625 10.015625 43.890625 
L 10.015625 52.203125 
Q 14.9375 54.109375 19.578125 55.046875 
Q 24.21875 56 28.609375 56 
Q 40.484375 56 46.34375 49.84375 
Q 52.203125 43.703125 52.203125 31.203125 
z
" id="DejaVuSans-97"/>
      <path d="M 9.421875 75.984375 
L 18.40625 75.984375 
L 18.40625 0 
L 9.421875 0 
z
" id="DejaVuSans-108"/>
      <path d="M 45.40625 46.390625 
L 45.40625 75.984375 
L 54.390625 75.984375 
L 54.390625 0 
L 45.40625 0 
L 45.40625 8.203125 
Q 42.578125 3.328125 38.25 0.953125 
Q 33.9375 -1.421875 27.875 -1.421875 
Q 17.96875 -1.421875 11.734375 6.484375 
Q 5.515625 14.40625 5.515625 27.296875 
Q 5.515625 40.1875 11.734375 48.09375 
Q 17.96875 56 27.875 56 
Q 33.9375 56 38.25 53.625 
Q 42.578125 51.265625 45.40625 46.390625 
z
M 14.796875 27.296875 
Q 14.796875 17.390625 18.875 11.75 
Q 22.953125 6.109375 30.078125 6.109375 
Q 37.203125 6.109375 41.296875 11.75 
Q 45.40625 17.390625 45.40625 27.296875 
Q 45.40625 37.203125 41.296875 42.84375 
Q 37.203125 48.484375 30.078125 48.484375 
Q 22.953125 48.484375 18.875 42.84375 
Q 14.796875 37.203125 14.796875 27.296875 
z
" id="DejaVuSans-100"/>
      <path id="DejaVuSans-32"/>
     </defs>
     <g transform="translate(49.819375 211.610938)rotate(-90)scale(0.1 -0.1)">
      <use xlink:href="#DejaVuSans-80"/>
      <use x="58.552734" xlink:href="#DejaVuSans-114"/>
      <use x="97.416016" xlink:href="#DejaVuSans-111"/>
      <use x="158.597656" xlink:href="#DejaVuSans-98"/>
      <use x="222.074219" xlink:href="#DejaVuSans-97"/>
      <use x="283.353516" xlink:href="#DejaVuSans-98"/>
      <use x="346.830078" xlink:href="#DejaVuSans-105"/>
      <use x="374.613281" xlink:href="#DejaVuSans-108"/>
      <use x="402.396484" xlink:href="#DejaVuSans-105"/>
      <use x="430.179688" xlink:href="#DejaVuSans-100"/>
      <use x="493.65625" xlink:href="#DejaVuSans-97"/>
      <use x="554.935547" xlink:href="#DejaVuSans-100"/>
      <use x="618.412109" xlink:href="#DejaVuSans-32"/>
     </g>
     <!--  (densidad relativa al max) -->
     <defs>
      <path d="M 31 75.875 
Q 24.46875 64.65625 21.28125 53.65625 
Q 18.109375 42.671875 18.109375 31.390625 
Q 18.109375 20.125 21.3125 9.0625 
Q 24.515625 -2 31 -13.1875 
L 23.1875 -13.1875 
Q 15.875 -1.703125 12.234375 9.375 
Q 8.59375 20.453125 8.59375 31.390625 
Q 8.59375 42.28125 12.203125 53.3125 
Q 15.828125 64.359375 23.1875 75.875 
z
" id="DejaVuSans-40"/>
      <path d="M 54.890625 33.015625 
L 54.890625 0 
L 45.90625 0 
L 45.90625 32.71875 
Q 45.90625 40.484375 42.875 44.328125 
Q 39.84375 48.1875 33.796875 48.1875 
Q 26.515625 48.1875 22.3125 43.546875 
Q 18.109375 38.921875 18.109375 30.90625 
L 18.109375 0 
L 9.078125 0 
L 9.078125 54.6875 
L 18.109375 54.6875 
L 18.109375 46.1875 
Q 21.34375 51.125 25.703125 53.5625 
Q 30.078125 56 35.796875 56 
Q 45.21875 56 50.046875 50.171875 
Q 54.890625 44.34375 54.890625 33.015625 
z
" id="DejaVuSans-110"/>
      <path d="M 2.984375 54.6875 
L 12.5 54.6875 
L 29.59375 8.796875 
L 46.6875 54.6875 
L 56.203125 54.6875 
L 35.6875 0 
L 23.484375 0 
z
" id="DejaVuSans-118"/>
      <path d="M 52 44.1875 
Q 55.375 50.25 60.0625 53.125 
Q 64.75 56 71.09375 56 
Q 79.640625 56 84.28125 50.015625 
Q 88.921875 44.046875 88.921875 33.015625 
L 88.921875 0 
L 79.890625 0 
L 79.890625 32.71875 
Q 79.890625 40.578125 77.09375 44.375 
Q 74.3125 48.1875 68.609375 48.1875 
Q 61.625 48.1875 57.5625 43.546875 
Q 53.515625 38.921875 53.515625 30.90625 
L 53.515625 0 
L 44.484375 0 
L 44.484375 32.71875 
Q 44.484375 40.625 41.703125 44.40625 
Q 38.921875 48.1875 33.109375 48.1875 
Q 26.21875 48.1875 22.15625 43.53125 
Q 18.109375 38.875 18.109375 30.90625 
L 18.109375 0 
L 9.078125 0 
L 9.078125 54.6875 
L 18.109375 54.6875 
L 18.109375 46.1875 
Q 21.1875 51.21875 25.484375 53.609375 
Q 29.78125 56 35.6875 56 
Q 41.65625 56 45.828125 52.96875 
Q 50 49.953125 52 44.1875 
z
" id="DejaVuSans-109"/>
      <path d="M 54.890625 54.6875 
L 35.109375 28.078125 
L 55.90625 0 
L 45.3125 0 
L 29.390625 21.484375 
L 13.484375 0 
L 2.875 0 
L 24.125 28.609375 
L 4.6875 54.6875 
L 15.28125 54.6875 
L 29.78125 35.203125 
L 44.28125 54.6875 
z
" id="DejaVuSans-120"/>
      <path d="M 8.015625 75.875 
L 15.828125 75.875 
Q 23.140625 64.359375 26.78125 53.3125 
Q 30.421875 42.28125 30.421875 31.390625 
Q 30.421875 20.453125 26.78125 9.375 
Q 23.140625 -1.703125 15.828125 -13.1875 
L 8.015625 -13.1875 
Q 14.5 -2 17.703125 9.0625 
Q 20.90625 20.125 20.90625 31.390625 
Q 20.90625 42.671875 17.703125 53.65625 
Q 14.5 64.65625 8.015625 75.875 
z
" id="DejaVuSans-41"/>
     </defs>
     <g transform="translate(61.017187 246.375781)rotate(-90)scale(0.1 -0.1)">
      <use xlink:href="#DejaVuSans-32"/>
      <use x="31.787109" xlink:href="#DejaVuSans-40"/>
      <use x="70.800781" xlink:href="#DejaVuSans-100"/>
      <use x="134.277344" xlink:href="#DejaVuSans-101"/>
      <use x="195.800781" xlink:href="#DejaVuSans-110"/>
      <use x="259.179688" xlink:href="#DejaVuSans-115"/>
      <use x="311.279297" xlink:href="#DejaVuSans-105"/>
      <use x="339.0625" xlink:href="#DejaVuSans-100"/>
      <use x="402.539062" xlink:href="#DejaVuSans-97"/>
      <use x="463.818359" xlink:href="#DejaVuSans-100"/>
      <use x="527.294922" xlink:href="#DejaVuSans-32"/>
      <use x="559.082031" xlink:href="#DejaVuSans-114"/>
      <use x="597.945312" xlink:href="#DejaVuSans-101"/>
      <use x="659.46875" xlink:href="#DejaVuSans-108"/>
      <use x="687.251953" xlink:href="#DejaVuSans-97"/>
      <use x="748.53125" xlink:href="#DejaVuSans-116"/>
      <use x="787.740234" xlink:href="#DejaVuSans-105"/>
      <use x="815.523438" xlink:href="#DejaVuSans-118"/>
      <use x="874.703125" xlink:href="#DejaVuSans-97"/>
      <use x="935.982422" xlink:href="#DejaVuSans-32"/>
      <use x="967.769531" xlink:href="#DejaVuSans-97"/>
      <use x="1029.048828" xlink:href="#DejaVuSans-108"/>
      <use x="1056.832031" xlink:href="#DejaVuSans-32"/>
      <use x="1088.619141" xlink:href="#DejaVuSans-109"/>
      <use x="1186.03125" xlink:href="#DejaVuSans-97"/>
      <use x="1247.310547" xlink:href="#DejaVuSans-120"/>
      <use x="1306.490234" xlink:href="#DejaVuSans-41"/>
     </g>
    </g>
   </g>
   <g id="line2d_16">
    <path clip-path="url(#pb8c0ca567e)" d="M 189 301.921792 
L 193.090909 300.707963 
L 197.181818 297.908896 
L 201.272727 292.072273 
L 205.363636 281.094417 
L 209.454545 262.535666 
L 213.545455 234.481898 
L 217.636364 196.872707 
L 221.727273 152.77535 
L 225.818182 108.7463 
L 229.909091 73.581634 
L 234 55.554545 
L 238.090909 59.270035 
L 242.181818 83.760283 
L 246.272727 122.892661 
L 250.363636 167.856397 
L 254.454545 210.355739 
L 258.545455 244.946007 
L 262.636364 269.70651 
L 266.727273 285.475569 
L 270.818182 294.473145 
L 274.909091 299.093709 
L 279 301.235976 
L 283.090909 302.13472 
" style="fill:none;stroke:#ff0000;stroke-linecap:square;stroke-opacity:0.6;stroke-width:2;"/>
   </g>
   <g id="line2d_17">
    <path clip-path="url(#pb8c0ca567e)" d="M 115.363636 302.374315 
L 119.454545 302.308339 
L 123.545455 302.227793 
L 127.636364 302.129832 
L 131.727273 302.011149 
L 135.818182 301.867907 
L 139.909091 301.695689 
L 144 301.48943 
L 148.090909 301.243354 
L 152.181818 300.950911 
L 156.272727 300.604711 
L 160.363636 300.19647 
L 164.454545 299.71695 
L 168.545455 299.155916 
L 172.636364 298.502094 
L 176.727273 297.743151 
L 180.818182 296.865684 
L 184.909091 295.855231 
L 189 294.696301 
L 193.090909 293.372437 
L 197.181818 291.866294 
L 201.272727 290.159762 
L 205.363636 288.234116 
L 209.454545 286.070201 
L 213.545455 283.648657 
L 217.636364 280.95018 
L 221.727273 277.955822 
L 225.818182 274.647327 
L 229.909091 271.007498 
L 234 267.020599 
L 238.090909 262.672778 
L 242.181818 257.952513 
L 246.272727 252.851062 
L 250.363636 247.362926 
L 254.454545 241.486299 
L 258.545455 235.223494 
L 262.636364 228.581355 
L 266.727273 221.571608 
L 270.818182 214.211177 
L 274.909091 206.522417 
L 279 198.533282 
L 283.090909 190.277398 
L 287.181818 181.794039 
L 291.272727 173.128002 
L 295.363636 164.329369 
L 299.454545 155.453153 
L 303.545455 146.558833 
L 307.636364 137.709779 
L 311.727273 128.972564 
L 315.818182 120.416188 
L 319.909091 112.111209 
L 324 104.128799 
L 328.090909 96.539758 
L 332.181818 89.413475 
L 336.272727 82.816884 
L 340.363636 76.813425 
L 344.454545 71.462028 
L 348.545455 66.816156 
L 352.636364 62.922911 
L 356.727273 59.822246 
L 360.818182 57.546277 
L 364.909091 56.118734 
L 369 55.554545 
L 373.090909 55.85958 
L 377.181818 57.030544 
L 381.272727 59.055044 
L 385.363636 61.911799 
L 389.454545 65.57102 
L 393.545455 69.994922 
L 397.636364 75.138373 
L 401.727273 80.949663 
L 405.818182 87.371367 
L 409.909091 94.341286 
L 414 101.79345 
L 418.090909 109.659147 
L 422.181818 117.867971 
L 426.272727 126.348859 
L 430.363636 135.03109 
L 434.454545 143.845247 
L 438.545455 152.724092 
L 442.636364 161.603381 
L 446.727273 170.422563 
L 450.818182 179.125394 
L 454.909091 187.660423 
L 459 195.981382 
L 463.090909 204.047449 
L 467.181818 211.823408 
L 471.272727 219.279699 
L 475.363636 226.392371 
L 479.454545 233.142942 
L 483.545455 239.518182 
L 487.636364 245.509825 
L 491.727273 251.114221 
L 495.818182 256.331952 
L 499.909091 261.167405 
L 504 265.628332 
L 508.090909 269.725392 
L 512.181818 273.471698 
L 516.272727 276.882376 
L 520.363636 279.974129 
L 524.454545 282.76484 
L 528.545455 285.27319 
L 532.636364 287.518314 
L 536.727273 289.519497 
L 540.818182 291.295898 
L 544.909091 292.866317 
L 549 294.249001 
L 553.090909 295.461477 
L 557.181818 296.520432 
L 561.272727 297.441612 
L 565.363636 298.239763 
L 569.454545 298.928582 
L 573.545455 299.520708 
L 577.636364 300.027721 
L 581.727273 300.460162 
L 585.818182 300.827567 
L 589.909091 301.138509 
L 594 301.400649 
L 598.090909 301.620797 
L 602.181818 301.804972 
L 606.272727 301.958462 
L 610.363636 302.085892 
L 614.454545 302.191286 
L 618.545455 302.278122 
L 622.636364 302.349399 
" style="fill:none;stroke:#0000ff;stroke-linecap:square;stroke-opacity:0.6;stroke-width:2;"/>
   </g>
   <g id="line2d_18">
    <path clip-path="url(#pb8c0ca567e)" d="M 246.272727 302.642936 
L 250.363636 302.62949 
L 254.454545 302.559362 
L 258.545455 302.250454 
L 262.636364 301.103606 
L 266.727273 297.525113 
L 270.818182 288.178773 
L 274.909091 267.871695 
L 279 231.532758 
L 283.090909 178.921041 
L 287.181818 119.508315 
L 291.272727 72.018421 
L 295.363636 55.554545 
L 299.454545 77.420719 
L 303.545455 127.98758 
L 307.636364 187.413476 
L 311.727273 237.965362 
L 315.818182 271.758079 
L 319.909091 290.096598 
L 324 298.307949 
L 328.090909 301.36993 
L 332.181818 302.326337 
L 336.272727 302.57753 
L 340.363636 302.633154 
" style="fill:none;stroke:#008000;stroke-linecap:square;stroke-opacity:0.6;stroke-width:2;"/>
   </g>
   <g id="line2d_19">
    <path clip-path="url(#pb8c0ca567e)" d="M 371.045455 302.645455 
L 371.045455 300.149587 
L 371.045455 297.653719 
L 371.045455 295.157851 
L 371.045455 292.661983 
L 371.045455 290.166116 
L 371.045455 287.670248 
L 371.045455 285.17438 
L 371.045455 282.678512 
L 371.045455 280.182645 
L 371.045455 277.686777 
L 371.045455 275.190909 
L 371.045455 272.695041 
L 371.045455 270.199174 
L 371.045455 267.703306 
L 371.045455 265.207438 
L 371.045455 262.71157 
L 371.045455 260.215702 
L 371.045455 257.719835 
L 371.045455 255.223967 
L 371.045455 252.728099 
L 371.045455 250.232231 
L 371.045455 247.736364 
L 371.045455 245.240496 
L 371.045455 242.744628 
L 371.045455 240.24876 
L 371.045455 237.752893 
L 371.045455 235.257025 
L 371.045455 232.761157 
L 371.045455 230.265289 
L 371.045455 227.769421 
L 371.045455 225.273554 
L 371.045455 222.777686 
L 371.045455 220.281818 
L 371.045455 217.78595 
L 371.045455 215.290083 
L 371.045455 212.794215 
L 371.045455 210.298347 
L 371.045455 207.802479 
L 371.045455 205.306612 
L 371.045455 202.810744 
L 371.045455 200.314876 
L 371.045455 197.819008 
L 371.045455 195.32314 
L 371.045455 192.827273 
L 371.045455 190.331405 
L 371.045455 187.835537 
L 371.045455 185.339669 
L 371.045455 182.843802 
L 371.045455 180.347934 
L 371.045455 177.852066 
L 371.045455 175.356198 
L 371.045455 172.860331 
L 371.045455 170.364463 
L 371.045455 167.868595 
L 371.045455 165.372727 
L 371.045455 162.87686 
L 371.045455 160.380992 
L 371.045455 157.885124 
L 371.045455 155.389256 
L 371.045455 152.893388 
L 371.045455 150.397521 
L 371.045455 147.901653 
L 371.045455 145.405785 
L 371.045455 142.909917 
L 371.045455 140.41405 
L 371.045455 137.918182 
L 371.045455 135.422314 
L 371.045455 132.926446 
L 371.045455 130.430579 
L 371.045455 127.934711 
L 371.045455 125.438843 
L 371.045455 122.942975 
L 371.045455 120.447107 
L 371.045455 117.95124 
L 371.045455 115.455372 
L 371.045455 112.959504 
L 371.045455 110.463636 
L 371.045455 107.967769 
L 371.045455 105.471901 
L 371.045455 102.976033 
L 371.045455 100.480165 
L 371.045455 97.984298 
L 371.045455 95.48843 
L 371.045455 92.992562 
L 371.045455 90.496694 
L 371.045455 88.000826 
L 371.045455 85.504959 
L 371.045455 83.009091 
L 371.045455 80.513223 
L 371.045455 78.017355 
L 371.045455 75.521488 
L 371.045455 73.02562 
L 371.045455 70.529752 
L 371.045455 68.033884 
L 371.045455 65.538017 
L 371.045455 63.042149 
L 371.045455 60.546281 
L 371.045455 58.050413 
L 371.045455 55.554545 
" style="fill:none;stroke:#000000;stroke-dasharray:7.4,3.2;stroke-dashoffset:0;stroke-width:2;"/>
   </g>
   <g id="patch_3">
    <path d="M 90 315 
L 90 43.2 
" style="fill:none;stroke:#000000;stroke-linecap:square;stroke-linejoin:miter;stroke-width:0.8;"/>
   </g>
   <g id="patch_4">
    <path d="M 648 315 
L 648 43.2 
" style="fill:none;stroke:#000000;stroke-linecap:square;stroke-linejoin:miter;stroke-width:0.8;"/>
   </g>
   <g id="patch_5">
    <path d="M 90 315 
L 648 315 
" style="fill:none;stroke:#000000;stroke-linecap:square;stroke-linejoin:miter;stroke-width:0.8;"/>
   </g>
   <g id="patch_6">
    <path d="M 90 43.2 
L 648 43.2 
" style="fill:none;stroke:#000000;stroke-linecap:square;stroke-linejoin:miter;stroke-width:0.8;"/>
   </g>
   <g id="legend_1">
    <g id="patch_7">
     <path d="M 458.175 109.9125 
L 641 109.9125 
Q 643 109.9125 643 107.9125 
L 643 50.2 
Q 643 48.2 641 48.2 
L 458.175 48.2 
Q 456.175 48.2 456.175 50.2 
L 456.175 107.9125 
Q 456.175 109.9125 458.175 109.9125 
z
" style="fill:#ffffff;opacity:0.8;stroke:#cccccc;stroke-linejoin:miter;"/>
    </g>
    <g id="line2d_20">
     <path d="M 460.175 56.298437 
L 480.175 56.298437 
" style="fill:none;stroke:#ff0000;stroke-linecap:square;stroke-opacity:0.6;stroke-width:2;"/>
    </g>
    <g id="line2d_21"/>
    <g id="text_18">
     <!-- Prior normal(-10,1) -->
     <defs>
      <path d="M 4.890625 31.390625 
L 31.203125 31.390625 
L 31.203125 23.390625 
L 4.890625 23.390625 
z
" id="DejaVuSans-45"/>
      <path d="M 11.71875 12.40625 
L 22.015625 12.40625 
L 22.015625 4 
L 14.015625 -11.625 
L 7.71875 -11.625 
L 11.71875 4 
z
" id="DejaVuSans-44"/>
     </defs>
     <g transform="translate(488.175 59.798437)scale(0.1 -0.1)">
      <use xlink:href="#DejaVuSans-80"/>
      <use x="58.552734" xlink:href="#DejaVuSans-114"/>
      <use x="99.666016" xlink:href="#DejaVuSans-105"/>
      <use x="127.449219" xlink:href="#DejaVuSans-111"/>
      <use x="188.630859" xlink:href="#DejaVuSans-114"/>
      <use x="229.744141" xlink:href="#DejaVuSans-32"/>
      <use x="261.53125" xlink:href="#DejaVuSans-110"/>
      <use x="324.910156" xlink:href="#DejaVuSans-111"/>
      <use x="386.091797" xlink:href="#DejaVuSans-114"/>
      <use x="425.455078" xlink:href="#DejaVuSans-109"/>
      <use x="522.867188" xlink:href="#DejaVuSans-97"/>
      <use x="584.146484" xlink:href="#DejaVuSans-108"/>
      <use x="611.929688" xlink:href="#DejaVuSans-40"/>
      <use x="650.943359" xlink:href="#DejaVuSans-45"/>
      <use x="687.027344" xlink:href="#DejaVuSans-49"/>
      <use x="750.650391" xlink:href="#DejaVuSans-48"/>
      <use x="814.273438" xlink:href="#DejaVuSans-44"/>
      <use x="846.060547" xlink:href="#DejaVuSans-49"/>
      <use x="909.683594" xlink:href="#DejaVuSans-41"/>
     </g>
    </g>
    <g id="line2d_22">
     <path d="M 460.175 70.976562 
L 480.175 70.976562 
" style="fill:none;stroke:#0000ff;stroke-linecap:square;stroke-opacity:0.6;stroke-width:2;"/>
    </g>
    <g id="line2d_23"/>
    <g id="text_19">
     <!-- Likelihood normal(hipotesis,5) -->
     <defs>
      <path d="M 9.8125 72.90625 
L 19.671875 72.90625 
L 19.671875 8.296875 
L 55.171875 8.296875 
L 55.171875 0 
L 9.8125 0 
z
" id="DejaVuSans-76"/>
      <path d="M 9.078125 75.984375 
L 18.109375 75.984375 
L 18.109375 31.109375 
L 44.921875 54.6875 
L 56.390625 54.6875 
L 27.390625 29.109375 
L 57.625 0 
L 45.90625 0 
L 18.109375 26.703125 
L 18.109375 0 
L 9.078125 0 
z
" id="DejaVuSans-107"/>
      <path d="M 54.890625 33.015625 
L 54.890625 0 
L 45.90625 0 
L 45.90625 32.71875 
Q 45.90625 40.484375 42.875 44.328125 
Q 39.84375 48.1875 33.796875 48.1875 
Q 26.515625 48.1875 22.3125 43.546875 
Q 18.109375 38.921875 18.109375 30.90625 
L 18.109375 0 
L 9.078125 0 
L 9.078125 75.984375 
L 18.109375 75.984375 
L 18.109375 46.1875 
Q 21.34375 51.125 25.703125 53.5625 
Q 30.078125 56 35.796875 56 
Q 45.21875 56 50.046875 50.171875 
Q 54.890625 44.34375 54.890625 33.015625 
z
" id="DejaVuSans-104"/>
     </defs>
     <g transform="translate(488.175 74.476562)scale(0.1 -0.1)">
      <use xlink:href="#DejaVuSans-76"/>
      <use x="55.712891" xlink:href="#DejaVuSans-105"/>
      <use x="83.496094" xlink:href="#DejaVuSans-107"/>
      <use x="137.78125" xlink:href="#DejaVuSans-101"/>
      <use x="199.304688" xlink:href="#DejaVuSans-108"/>
      <use x="227.087891" xlink:href="#DejaVuSans-105"/>
      <use x="254.871094" xlink:href="#DejaVuSans-104"/>
      <use x="318.25" xlink:href="#DejaVuSans-111"/>
      <use x="379.431641" xlink:href="#DejaVuSans-111"/>
      <use x="440.613281" xlink:href="#DejaVuSans-100"/>
      <use x="504.089844" xlink:href="#DejaVuSans-32"/>
      <use x="535.876953" xlink:href="#DejaVuSans-110"/>
      <use x="599.255859" xlink:href="#DejaVuSans-111"/>
      <use x="660.4375" xlink:href="#DejaVuSans-114"/>
      <use x="699.800781" xlink:href="#DejaVuSans-109"/>
      <use x="797.212891" xlink:href="#DejaVuSans-97"/>
      <use x="858.492188" xlink:href="#DejaVuSans-108"/>
      <use x="886.275391" xlink:href="#DejaVuSans-40"/>
      <use x="925.289062" xlink:href="#DejaVuSans-104"/>
      <use x="988.667969" xlink:href="#DejaVuSans-105"/>
      <use x="1016.451172" xlink:href="#DejaVuSans-112"/>
      <use x="1079.927734" xlink:href="#DejaVuSans-111"/>
      <use x="1141.109375" xlink:href="#DejaVuSans-116"/>
      <use x="1180.318359" xlink:href="#DejaVuSans-101"/>
      <use x="1241.841797" xlink:href="#DejaVuSans-115"/>
      <use x="1293.941406" xlink:href="#DejaVuSans-105"/>
      <use x="1321.724609" xlink:href="#DejaVuSans-115"/>
      <use x="1373.824219" xlink:href="#DejaVuSans-44"/>
      <use x="1405.611328" xlink:href="#DejaVuSans-53"/>
      <use x="1469.234375" xlink:href="#DejaVuSans-41"/>
     </g>
    </g>
    <g id="line2d_24">
     <path d="M 460.175 85.654687 
L 480.175 85.654687 
" style="fill:none;stroke:#008000;stroke-linecap:square;stroke-opacity:0.6;stroke-width:2;"/>
    </g>
    <g id="line2d_25"/>
    <g id="text_20">
     <!-- Posterior normal(-5.6,0.75) -->
     <defs>
      <path d="M 8.203125 72.90625 
L 55.078125 72.90625 
L 55.078125 68.703125 
L 28.609375 0 
L 18.3125 0 
L 43.21875 64.59375 
L 8.203125 64.59375 
z
" id="DejaVuSans-55"/>
     </defs>
     <g transform="translate(488.175 89.154687)scale(0.1 -0.1)">
      <use xlink:href="#DejaVuSans-80"/>
      <use x="56.677734" xlink:href="#DejaVuSans-111"/>
      <use x="117.859375" xlink:href="#DejaVuSans-115"/>
      <use x="169.958984" xlink:href="#DejaVuSans-116"/>
      <use x="209.167969" xlink:href="#DejaVuSans-101"/>
      <use x="270.691406" xlink:href="#DejaVuSans-114"/>
      <use x="311.804688" xlink:href="#DejaVuSans-105"/>
      <use x="339.587891" xlink:href="#DejaVuSans-111"/>
      <use x="400.769531" xlink:href="#DejaVuSans-114"/>
      <use x="441.882812" xlink:href="#DejaVuSans-32"/>
      <use x="473.669922" xlink:href="#DejaVuSans-110"/>
      <use x="537.048828" xlink:href="#DejaVuSans-111"/>
      <use x="598.230469" xlink:href="#DejaVuSans-114"/>
      <use x="637.59375" xlink:href="#DejaVuSans-109"/>
      <use x="735.005859" xlink:href="#DejaVuSans-97"/>
      <use x="796.285156" xlink:href="#DejaVuSans-108"/>
      <use x="824.068359" xlink:href="#DejaVuSans-40"/>
      <use x="863.082031" xlink:href="#DejaVuSans-45"/>
      <use x="899.166016" xlink:href="#DejaVuSans-53"/>
      <use x="962.789062" xlink:href="#DejaVuSans-46"/>
      <use x="994.576172" xlink:href="#DejaVuSans-54"/>
      <use x="1058.199219" xlink:href="#DejaVuSans-44"/>
      <use x="1089.986328" xlink:href="#DejaVuSans-48"/>
      <use x="1153.609375" xlink:href="#DejaVuSans-46"/>
      <use x="1185.396484" xlink:href="#DejaVuSans-55"/>
      <use x="1249.019531" xlink:href="#DejaVuSans-53"/>
      <use x="1312.642578" xlink:href="#DejaVuSans-41"/>
     </g>
    </g>
    <g id="line2d_26">
     <path d="M 460.175 100.332812 
L 480.175 100.332812 
" style="fill:none;stroke:#000000;stroke-dasharray:7.4,3.2;stroke-dashoffset:0;stroke-width:2;"/>
    </g>
    <g id="line2d_27"/>
    <g id="text_21">
     <!-- Real -->
     <defs>
      <path d="M 44.390625 34.1875 
Q 47.5625 33.109375 50.5625 29.59375 
Q 53.5625 26.078125 56.59375 19.921875 
L 66.609375 0 
L 56 0 
L 46.6875 18.703125 
Q 43.0625 26.03125 39.671875 28.421875 
Q 36.28125 30.8125 30.421875 30.8125 
L 19.671875 30.8125 
L 19.671875 0 
L 9.8125 0 
L 9.8125 72.90625 
L 32.078125 72.90625 
Q 44.578125 72.90625 50.734375 67.671875 
Q 56.890625 62.453125 56.890625 51.90625 
Q 56.890625 45.015625 53.6875 40.46875 
Q 50.484375 35.9375 44.390625 34.1875 
z
M 19.671875 64.796875 
L 19.671875 38.921875 
L 32.078125 38.921875 
Q 39.203125 38.921875 42.84375 42.21875 
Q 46.484375 45.515625 46.484375 51.90625 
Q 46.484375 58.296875 42.84375 61.546875 
Q 39.203125 64.796875 32.078125 64.796875 
z
" id="DejaVuSans-82"/>
     </defs>
     <g transform="translate(488.175 103.832812)scale(0.1 -0.1)">
      <use xlink:href="#DejaVuSans-82"/>
      <use x="64.982422" xlink:href="#DejaVuSans-101"/>
      <use x="126.505859" xlink:href="#DejaVuSans-97"/>
      <use x="187.785156" xlink:href="#DejaVuSans-108"/>
     </g>
    </g>
   </g>
  </g>
 </g>
 <defs>
  <clipPath id="pb8c0ca567e">
   <rect height="271.8" width="558" x="90" y="43.2"/>
  </clipPath>
 </defs>
</svg>
